<svg width="50" height="50" viewBox="0 0 50 50" fill="none" xmlns="http://www.w3.org/2000/svg">
<path d="M18.572 39.0011L20.4292 40.8583L22.2864 39.0011L20.4292 37.1439L18.572 39.0011Z" fill="white"/>
<path d="M20.6353 36.9376L22.4924 38.7947L24.3496 36.9376L22.4924 35.0804L20.6353 36.9376Z" fill="white"/>
<path d="M22.6992 34.874L24.5564 36.7312L26.4136 34.874L24.5564 33.0169L22.6992 34.874Z" fill="white"/>
<path d="M24.7625 36.9376L26.6196 38.7947L28.4768 36.9376L26.6196 35.0804L24.7625 36.9376Z" fill="white"/>
<path d="M26.8257 39.0011L28.6829 40.8583L30.54 39.0011L28.6829 37.1439L26.8257 39.0011Z" fill="white"/>
<path d="M28.8894 41.0646L30.7466 42.9218L32.6037 41.0646L30.7466 39.2075L28.8894 41.0646Z" fill="white"/>
<path d="M24.7625 32.8105L26.6196 34.6677L28.4768 32.8105L26.6196 30.9533L24.7625 32.8105Z" fill="white"/>
<path d="M26.8257 34.874L28.6829 36.7312L30.54 34.874L28.6829 33.0169L26.8257 34.874Z" fill="white"/>
<path d="M28.8894 36.9376L30.7466 38.7947L32.6037 36.9376L30.7466 35.0804L28.8894 36.9376Z" fill="white"/>
<path d="M30.9526 39.0011L32.8098 40.8583L34.667 39.0011L32.8098 37.1439L30.9526 39.0011Z" fill="white"/>
<path d="M26.8257 30.7469L28.6829 32.6041L30.54 30.7469L28.6829 28.8897L26.8257 30.7469Z" fill="white"/>
<path d="M28.8894 32.8105L30.7466 34.6677L32.6037 32.8105L30.7466 30.9533L28.8894 32.8105Z" fill="white"/>
<path d="M30.9526 34.874L32.8098 36.7312L34.667 34.874L32.8098 33.0169L30.9526 34.874Z" fill="white"/>
<path d="M33.0173 36.9376L34.8745 38.7947L36.7317 36.9376L34.8745 35.0804L33.0173 36.9376Z" fill="white"/>
<path d="M30.9526 26.62L32.8098 28.4772L34.667 26.62L32.8098 24.7628L30.9526 26.62Z" fill="white"/>
<path d="M28.8894 24.5565L30.7466 26.4136L32.6037 24.5565L30.7466 22.6993L28.8894 24.5565Z" fill="white"/>
<path d="M33.0173 28.6834L34.8745 30.5405L36.7317 28.6834L34.8745 26.8262L33.0173 28.6834Z" fill="white"/>
<path d="M35.0806 30.7469L36.9377 32.6041L38.7949 30.7469L36.9377 28.8897L35.0806 30.7469Z" fill="white"/>
<path d="M37.1443 32.8105L39.0015 34.6677L40.8586 32.8105L39.0015 30.9533L37.1443 32.8105Z" fill="white"/>
<path d="M28.8894 28.6835L30.7466 30.5407L32.6037 28.6835L30.7466 26.8264L28.8894 28.6835Z" fill="white"/>
<path d="M30.9526 30.7469L32.8098 32.6041L34.667 30.7469L32.8098 28.8897L30.9526 30.7469Z" fill="white"/>
<path d="M33.0173 32.8105L34.8745 34.6677L36.7317 32.8105L34.8745 30.9533L33.0173 32.8105Z" fill="white"/>
<path d="M35.0806 34.874L36.9377 36.7312L38.7949 34.874L36.9377 33.0169L35.0806 34.874Z" fill="white"/>
<path d="M33.0173 24.5565L34.8745 26.4136L36.7317 24.5565L34.8745 22.6993L33.0173 24.5565Z" fill="white"/>
<path d="M35.0806 26.62L36.9377 28.4772L38.7949 26.62L36.9377 24.7628L35.0806 26.62Z" fill="white"/>
<path d="M37.1443 28.6834L39.0015 30.5405L40.8586 28.6834L39.0015 26.8262L37.1443 28.6834Z" fill="white"/>
<path d="M39.2075 30.7469L41.0647 32.6041L42.9219 30.7469L41.0647 28.8897L39.2075 30.7469Z" fill="white"/>
<path d="M35.0806 22.4929L36.9377 24.35L38.7949 22.4929L36.9377 20.6357L35.0806 22.4929Z" fill="white"/>
<path d="M37.1443 24.5565L39.0015 26.4136L40.8586 24.5565L39.0015 22.6993L37.1443 24.5565Z" fill="white"/>
<path d="M39.2075 26.62L41.0647 28.4772L42.9219 26.62L41.0647 24.7628L39.2075 26.62Z" fill="white"/>
<path d="M41.2708 28.6834L43.1279 30.5405L44.9851 28.6834L43.1279 26.8262L41.2708 28.6834Z" fill="white"/>
<path d="M37.1443 20.4293L39.0015 22.2865L40.8586 20.4293L39.0015 18.5722L37.1443 20.4293Z" fill="white"/>
<path d="M39.2075 22.4929L41.0647 24.35L42.9219 22.4929L41.0647 20.6357L39.2075 22.4929Z" fill="white"/>
<path d="M41.2708 24.5565L43.1279 26.4136L44.9851 24.5565L43.1279 22.6993L41.2708 24.5565Z" fill="white"/>
<path d="M43.3347 26.62L45.1919 28.4772L47.0491 26.62L45.1919 24.7628L43.3347 26.62Z" fill="white"/>
<path d="M39.2075 18.3658L41.0647 20.223L42.9219 18.3658L41.0647 16.5086L39.2075 18.3658Z" fill="white"/>
<path d="M41.2708 20.4295L43.1279 22.2867L44.9851 20.4295L43.1279 18.5724L41.2708 20.4295Z" fill="white"/>
<path d="M43.3347 22.4929L45.1919 24.35L47.0491 22.4929L45.1919 20.6357L43.3347 22.4929Z" fill="white"/>
<path d="M45.398 24.5565L47.2551 26.4136L49.1123 24.5565L47.2551 22.6993L45.398 24.5565Z" fill="white"/>
<path d="M30.9526 10.112L32.8098 11.9691L34.667 10.112L32.8098 8.25478L30.9526 10.112Z" fill="white"/>
<path d="M33.0173 12.1753L34.8745 14.0325L36.7317 12.1753L34.8745 10.3181L33.0173 12.1753Z" fill="white"/>
<path d="M35.0806 14.239L36.9377 16.0962L38.7949 14.239L36.9377 12.3819L35.0806 14.239Z" fill="white"/>
<path d="M37.1443 16.3024L39.0015 18.1596L40.8586 16.3024L39.0015 14.4453L37.1443 16.3024Z" fill="white"/>
<path d="M28.8894 12.1753L30.7466 14.0325L32.6037 12.1753L30.7466 10.3181L28.8894 12.1753Z" fill="white"/>
<path d="M30.9526 14.239L32.8098 16.0962L34.667 14.239L32.8098 12.3819L30.9526 14.239Z" fill="white"/>
<path d="M33.0173 16.3023L34.8745 18.1594L36.7317 16.3023L34.8745 14.4451L33.0173 16.3023Z" fill="white"/>
<path d="M35.0806 18.366L36.9377 20.2231L38.7949 18.366L36.9377 16.5088L35.0806 18.366Z" fill="white"/>
<path d="M24.7625 16.3024L26.6196 18.1596L28.4768 16.3024L26.6196 14.4453L24.7625 16.3024Z" fill="white"/>
<path d="M22.905 22.2866L24.7622 24.1438L26.6194 22.2866L24.7622 20.4295L22.905 22.2866Z" fill="black"/>
<path d="M22.905 26.4138L24.7622 28.2709L26.6194 26.4138L24.7622 24.5566L22.905 26.4138Z" fill="black"/>
<path d="M20.8413 24.3502L22.6985 26.2073L24.5557 24.3502L22.6985 22.493L20.8413 24.3502Z" fill="black"/>
<path d="M16.7149 24.3502L18.572 26.2073L20.4292 24.3502L18.572 22.493L16.7149 24.3502Z" fill="black"/>
<path d="M24.9683 24.3502L26.8254 26.2073L28.6826 24.3502L26.8254 22.493L24.9683 24.3502Z" fill="black"/>
<path d="M28.8894 8.04841L30.7466 9.90558L32.6037 8.04841L30.7466 6.19125L28.8894 8.04841Z" fill="white"/>
<path d="M26.8257 10.112L28.6829 11.9691L30.54 10.112L28.6829 8.25478L26.8257 10.112Z" fill="white"/>
<path d="M24.7625 12.1753L26.6196 14.0325L28.4768 12.1753L26.6196 10.3181L24.7625 12.1753Z" fill="white"/>
<path d="M22.6992 14.239L24.5564 16.0962L26.4136 14.239L24.5564 12.3819L22.6992 14.239Z" fill="white"/>
<path d="M20.6353 12.1753L22.4924 14.0325L24.3496 12.1753L22.4924 10.3181L20.6353 12.1753Z" fill="white"/>
<path d="M18.572 10.112L20.4292 11.9691L22.2864 10.112L20.4292 8.25478L18.572 10.112Z" fill="white"/>
<path d="M22.6992 10.112L24.5564 11.9691L26.4136 10.112L24.5564 8.25478L22.6992 10.112Z" fill="white"/>
<path d="M26.8257 18.366L28.6829 20.2231L30.54 18.366L28.6829 16.5088L26.8257 18.366Z" fill="white"/>
<path d="M28.8894 20.4293L30.7466 22.2865L32.6037 20.4293L30.7466 18.5722L28.8894 20.4293Z" fill="white"/>
<path d="M30.9526 22.4929L32.8098 24.35L34.667 22.4929L32.8098 20.6357L30.9526 22.4929Z" fill="white"/>
<path d="M26.8257 14.239L28.6829 16.0962L30.54 14.239L28.6829 12.3819L26.8257 14.239Z" fill="white"/>
<path d="M28.8894 16.3024L30.7466 18.1596L32.6037 16.3024L30.7466 14.4453L28.8894 16.3024Z" fill="white"/>
<path d="M30.9526 18.3658L32.8098 20.223L34.667 18.3658L32.8098 16.5086L30.9526 18.3658Z" fill="white"/>
<path d="M33.0173 20.4295L34.8745 22.2867L36.7317 20.4295L34.8745 18.5724L33.0173 20.4295Z" fill="white"/>
<path d="M22.6992 39.0011L24.5564 40.8583L26.4136 39.0011L24.5564 37.1439L22.6992 39.0011Z" fill="white"/>
<path d="M24.7625 41.0646L26.6196 42.9218L28.4768 41.0646L26.6196 39.2075L24.7625 41.0646Z" fill="white"/>
<path d="M24.7625 8.04841L26.6196 9.90558L28.4768 8.04841L26.6196 6.19125L24.7625 8.04841Z" fill="white"/>
<path d="M20.6353 8.04841L22.4924 9.90558L24.3496 8.04841L22.4924 6.19125L20.6353 8.04841Z" fill="white"/>
<path d="M16.5083 8.04841L18.3655 9.90558L20.2226 8.04841L18.3655 6.19125L16.5083 8.04841Z" fill="white"/>
<path d="M20.6353 41.0646L22.4924 42.9218L24.3496 41.0646L22.4924 39.2075L20.6353 41.0646Z" fill="white"/>
<path d="M16.5083 41.0646L18.3655 42.9218L20.2226 41.0646L18.3655 39.2075L16.5083 41.0646Z" fill="white"/>
</svg>
