<svg width="20" height="20" viewBox="0 0 20 20" fill="none" xmlns="http://www.w3.org/2000/svg">
<path d="M17.9327 14.1683C17.9323 15.3079 17.5513 16.4133 16.8527 17.3013C16.1541 18.1894 15.1798 18.8069 14.0911 19.0516L13.5711 17.4566C14.0473 17.3764 14.5002 17.1892 14.8971 16.9085C15.294 16.6278 15.6251 16.2606 15.8664 15.8333H13.8572C13.4249 15.8333 13.0102 15.6577 12.7045 15.3451C12.3988 15.0326 12.227 14.6087 12.227 14.1666V10.8333C12.227 10.3913 12.3988 9.96734 12.7045 9.65478C13.0102 9.34222 13.4249 9.16663 13.8572 9.16663H16.2519C16.053 7.55571 15.286 6.07435 14.0948 5.00052C12.9035 3.92669 11.3699 3.33419 9.78176 3.33419C8.1936 3.33419 6.66002 3.92669 5.46877 5.00052C4.27752 6.07435 3.51048 7.55571 3.31158 9.16663H5.70631C6.13866 9.16663 6.5533 9.34222 6.85902 9.65478C7.16474 9.96734 7.33649 10.3913 7.33649 10.8333V14.1666C7.33649 14.6087 7.16474 15.0326 6.85902 15.3451C6.5533 15.6577 6.13866 15.8333 5.70631 15.8333H3.26104C2.82869 15.8333 2.41405 15.6577 2.10833 15.3451C1.80261 15.0326 1.63086 14.6087 1.63086 14.1666V9.99996C1.63086 5.39746 5.28002 1.66663 9.78176 1.66663C14.2835 1.66663 17.9327 5.39746 17.9327 9.99996V14.1683ZM16.3025 14.1666V10.8333H13.8572V14.1666H16.3025ZM3.26104 10.8333V14.1666H5.70631V10.8333H3.26104Z" fill="black"/>
</svg>
