<svg width="300" height="60" viewBox="0 0 300 60" fill="none" xmlns="http://www.w3.org/2000/svg">
<path d="M279.392 57.449H278.067V56.1374H279.392V57.449Z" fill="#FF0000"/>
<path d="M279.392 55.9917H278.067V54.6801H279.392V55.9917Z" fill="#FF0000"/>
<path d="M280.864 55.9917H279.539V54.6801H280.864V55.9917Z" fill="#FF0000"/>
<path d="M280.864 54.5344H279.539V53.2228H280.864V54.5344Z" fill="#FF0000"/>
<path d="M279.392 54.5344H278.067V53.2228H279.392V54.5344Z" fill="#FF0000"/>
<path d="M283.808 50.1625H282.483V48.851H283.808V50.1625Z" fill="#FF0000"/>
<path d="M283.808 48.7053H282.483V47.3937H283.808V48.7053Z" fill="#FF0000"/>
<path d="M283.808 51.6198H282.483V50.3083H283.808V51.6198Z" fill="#FF0000"/>
<path d="M282.336 50.1625H281.011V48.851H282.336V50.1625Z" fill="#FF0000"/>
<path d="M279.392 53.0771H278.067V51.7656H279.392V53.0771Z" fill="#FF0000"/>
<path d="M279.392 51.6198H278.067V50.3083H279.392V51.6198Z" fill="#FF0000"/>
<path d="M282.336 48.7053H281.011V47.3937H282.336V48.7053Z" fill="#FF0000"/>
<path d="M283.808 47.248H282.483V45.9364H283.808V47.248Z" fill="#FF0000"/>
<path d="M283.808 53.0771H282.483V51.7656H283.808V53.0771Z" fill="#FF0000"/>
<path d="M282.336 54.5344H281.011V53.2228H282.336V54.5344Z" fill="#FF0000"/>
<path d="M282.336 53.0771H281.011V51.7656H282.336V53.0771Z" fill="black"/>
<path d="M280.864 53.0771H279.539V51.7656H280.864V53.0771Z" fill="black"/>
<path d="M280.864 51.6198H279.539V50.3083H280.864V51.6198Z" fill="black"/>
<path d="M285.28 55.9917H283.955V54.6801H285.28V55.9917Z" fill="black"/>
<path d="M286.752 57.449H285.427V56.1374H286.752V57.449Z" fill="black"/>
<path d="M283.808 57.449H282.483V56.1374H283.808V57.449Z" fill="black"/>
<path d="M285.28 58.9062H283.955V57.5947H285.28V58.9062Z" fill="black"/>
<path d="M282.336 51.6198H281.011V50.3083H282.336V51.6198Z" fill="black"/>
<path d="M280.864 50.1625H279.539V48.851H280.864V50.1625Z" fill="#FF0000"/>
<path d="M291.168 57.449H289.843V56.1374H291.168V57.449Z" fill="#FF0000"/>
<path d="M291.168 55.9917H289.843V54.6801H291.168V55.9917Z" fill="#FF0000"/>
<path d="M289.696 55.9917H288.371V54.6801H289.696V55.9917Z" fill="#FF0000"/>
<path d="M289.696 54.5344H288.371V53.2228H289.696V54.5344Z" fill="#FF0000"/>
<path d="M291.168 54.5344H289.843V53.2228H291.168V54.5344Z" fill="#FF0000"/>
<path d="M286.752 50.1625H285.427V48.851H286.752V50.1625Z" fill="#FF0000"/>
<path d="M286.752 48.7053H285.427V47.3937H286.752V48.7053Z" fill="#FF0000"/>
<path d="M286.752 51.6198H285.427V50.3083H286.752V51.6198Z" fill="#FF0000"/>
<path d="M288.224 50.1625H286.899V48.851H288.224V50.1625Z" fill="#FF0000"/>
<path d="M291.168 53.0771H289.843V51.7656H291.168V53.0771Z" fill="#FF0000"/>
<path d="M291.168 51.6198H289.843V50.3083H291.168V51.6198Z" fill="#FF0000"/>
<path d="M288.224 48.7053H286.899V47.3937H288.224V48.7053Z" fill="#FF0000"/>
<path d="M286.752 47.248H285.427V45.9364H286.752V47.248Z" fill="#FF0000"/>
<path d="M286.752 53.0771H285.427V51.7656H286.752V53.0771Z" fill="#FF0000"/>
<path d="M288.224 54.5344H286.899V53.2228H288.224V54.5344Z" fill="#FF0000"/>
<path d="M288.224 53.0771H286.899V51.7656H288.224V53.0771Z" fill="black"/>
<path d="M289.696 53.0771H288.371V51.7656H289.696V53.0771Z" fill="black"/>
<path d="M289.696 51.6198H288.371V50.3083H289.696V51.6198Z" fill="black"/>
<path d="M288.224 51.6198H286.899V50.3083H288.224V51.6198Z" fill="black"/>
<path d="M289.696 50.1625H288.371V48.851H289.696V50.1625Z" fill="#FF0000"/>
<path d="M282.336 41.4188H281.011V40.1073H282.336V41.4188Z" fill="#FF0000"/>
<path d="M279.392 38.5042H278.067V37.1927H279.392V38.5042Z" fill="#FF0000"/>
<path d="M277.92 37.0469H276.595V35.7354H277.92V37.0469Z" fill="#FF0000"/>
<path d="M280.864 39.9615H279.539V38.6499H280.864V39.9615Z" fill="#FF0000"/>
<path d="M276.448 35.5897H275.123V34.2781H276.448V35.5897Z" fill="#FF0000"/>
<path d="M273.504 32.6751H272.179V31.3636H273.504V32.6751Z" fill="#FF0000"/>
<path d="M272.032 31.2178H270.707V29.9063H272.032V31.2178Z" fill="#FF0000"/>
<path d="M274.976 34.1323H273.651V32.8208H274.976V34.1323Z" fill="#FF0000"/>
<path d="M288.224 45.7907H286.899V44.4792H288.224V45.7907Z" fill="#FF0000"/>
<path d="M289.696 45.7907H288.371V44.4792H289.696V45.7907Z" fill="#FF0000"/>
<path d="M289.696 47.248H288.371V45.9364H289.696V47.248Z" fill="#FF0000"/>
<path d="M291.168 47.248H289.843V45.9364H291.168V47.248Z" fill="#FF0000"/>
<path d="M291.168 45.7907H289.843V44.4792H291.168V45.7907Z" fill="#FF0000"/>
<path d="M295.584 50.1625H294.259V48.851H295.584V50.1625Z" fill="#FF0000"/>
<path d="M297.056 50.1625H295.731V48.851H297.056V50.1625Z" fill="#FF0000"/>
<path d="M294.112 50.1625H292.787V48.851H294.112V50.1625Z" fill="#FF0000"/>
<path d="M295.584 48.7053H294.259V47.3937H295.584V48.7053Z" fill="#FF0000"/>
<path d="M292.64 45.7907H291.315V44.4792H292.64V45.7907Z" fill="#FF0000"/>
<path d="M294.112 45.7907H292.787V44.4792H294.112V45.7907Z" fill="#FF0000"/>
<path d="M297.056 48.7053H295.731V47.3937H297.056V48.7053Z" fill="#FF0000"/>
<path d="M298.528 50.1625H297.203V48.851H298.528V50.1625Z" fill="#FF0000"/>
<path d="M292.64 50.1625H291.315V48.851H292.64V50.1625Z" fill="#FF0000"/>
<path d="M291.168 48.7053H289.843V47.3937H291.168V48.7053Z" fill="#FF0000"/>
<path d="M292.64 48.7053H291.315V47.3937H292.64V48.7053Z" fill="black"/>
<path d="M292.64 47.248H291.315V45.9364H292.64V47.248Z" fill="black"/>
<path d="M294.112 47.248H292.787V45.9364H294.112V47.248Z" fill="black"/>
<path d="M294.112 48.7053H292.787V47.3937H294.112V48.7053Z" fill="black"/>
<path d="M295.584 47.248H294.259V45.9364H295.584V47.248Z" fill="#FF0000"/>
<path d="M282.336 45.7907H281.011V44.4792H282.336V45.7907Z" fill="#FF0000"/>
<path d="M280.864 45.7907H279.539V44.4792H280.864V45.7907Z" fill="#FF0000"/>
<path d="M280.864 47.248H279.539V45.9364H280.864V47.248Z" fill="#FF0000"/>
<path d="M279.392 47.248H278.067V45.9364H279.392V47.248Z" fill="#FF0000"/>
<path d="M279.392 45.7907H278.067V44.4792H279.392V45.7907Z" fill="#FF0000"/>
<path d="M274.976 50.1625H273.651V48.851H274.976V50.1625Z" fill="#FF0000"/>
<path d="M273.504 50.1625H272.179V48.851H273.504V50.1625Z" fill="#FF0000"/>
<path d="M276.448 50.1625H275.123V48.851H276.448V50.1625Z" fill="#FF0000"/>
<path d="M274.976 48.7053H273.651V47.3937H274.976V48.7053Z" fill="#FF0000"/>
<path d="M277.92 45.7907H276.595V44.4792H277.92V45.7907Z" fill="#FF0000"/>
<path d="M276.448 45.7907H275.123V44.4792H276.448V45.7907Z" fill="#FF0000"/>
<path d="M273.504 48.7053H272.179V47.3937H273.504V48.7053Z" fill="#FF0000"/>
<path d="M272.032 50.1625H270.707V48.851H272.032V50.1625Z" fill="#FF0000"/>
<path d="M277.92 50.1625H276.595V48.851H277.92V50.1625Z" fill="#FF0000"/>
<path d="M279.392 48.7053H278.067V47.3937H279.392V48.7053Z" fill="#FF0000"/>
<path d="M277.92 48.7053H276.595V47.3937H277.92V48.7053Z" fill="black"/>
<path d="M277.92 47.248H276.595V45.9364H277.92V47.248Z" fill="black"/>
<path d="M276.448 47.248H275.123V45.9364H276.448V47.248Z" fill="black"/>
<path d="M276.448 48.7053H275.123V47.3937H276.448V48.7053Z" fill="black"/>
<path d="M274.976 47.248H273.651V45.9364H274.976V47.248Z" fill="#FF0000"/>
<path d="M295.584 53.0771H294.259V51.7656H295.584V53.0771Z" fill="black"/>
<path d="M297.056 54.5344H295.731V53.2228H297.056V54.5344Z" fill="black"/>
<path d="M294.112 54.5344H292.787V53.2228H294.112V54.5344Z" fill="black"/>
<path d="M295.584 55.9917H294.259V54.6801H295.584V55.9917Z" fill="black"/>
<path d="M274.976 53.0771H273.651V51.7656H274.976V53.0771Z" fill="black"/>
<path d="M276.448 54.5344H275.123V53.2228H276.448V54.5344Z" fill="black"/>
<path d="M273.504 54.5344H272.179V53.2228H273.504V54.5344Z" fill="black"/>
<path d="M274.976 55.9917H273.651V54.6801H274.976V55.9917Z" fill="black"/>
<path d="M291.168 31.2178H289.843V29.9063H291.168V31.2178Z" fill="#FF0000"/>
<path d="M291.168 32.6751H289.843V31.3636H291.168V32.6751Z" fill="#FF0000"/>
<path d="M289.696 32.6751H288.371V31.3636H289.696V32.6751Z" fill="#FF0000"/>
<path d="M289.696 34.1323H288.371V32.8208H289.696V34.1323Z" fill="#FF0000"/>
<path d="M291.168 34.1323H289.843V32.8208H291.168V34.1323Z" fill="#FF0000"/>
<path d="M286.752 38.5042H285.427V37.1927H286.752V38.5042Z" fill="#FF0000"/>
<path d="M286.752 39.9615H285.427V38.6499H286.752V39.9615Z" fill="#FF0000"/>
<path d="M286.752 37.0469H285.427V35.7354H286.752V37.0469Z" fill="#FF0000"/>
<path d="M288.224 38.5042H286.899V37.1927H288.224V38.5042Z" fill="#FF0000"/>
<path d="M291.168 35.5897H289.843V34.2781H291.168V35.5897Z" fill="#FF0000"/>
<path d="M291.168 37.0469H289.843V35.7354H291.168V37.0469Z" fill="#FF0000"/>
<path d="M288.224 39.9615H286.899V38.6499H288.224V39.9615Z" fill="#FF0000"/>
<path d="M286.752 41.4188H285.427V40.1073H286.752V41.4188Z" fill="#FF0000"/>
<path d="M286.752 35.5897H285.427V34.2781H286.752V35.5897Z" fill="#FF0000"/>
<path d="M288.224 34.1323H286.899V32.8208H288.224V34.1323Z" fill="#FF0000"/>
<path d="M288.224 35.5897H286.899V34.2781H288.224V35.5897Z" fill="black"/>
<path d="M289.696 35.5897H288.371V34.2781H289.696V35.5897Z" fill="black"/>
<path d="M289.696 37.0469H288.371V35.7354H289.696V37.0469Z" fill="black"/>
<path d="M288.224 37.0469H286.899V35.7354H288.224V37.0469Z" fill="black"/>
<path d="M289.696 38.5042H288.371V37.1927H289.696V38.5042Z" fill="#FF0000"/>
<path d="M288.224 42.8761H286.899V41.5645H288.224V42.8761Z" fill="#FF0000"/>
<path d="M289.696 42.8761H288.371V41.5645H289.696V42.8761Z" fill="#FF0000"/>
<path d="M289.696 41.4188H288.371V40.1073H289.696V41.4188Z" fill="#FF0000"/>
<path d="M291.168 41.4188H289.843V40.1073H291.168V41.4188Z" fill="#FF0000"/>
<path d="M291.168 42.8761H289.843V41.5645H291.168V42.8761Z" fill="#FF0000"/>
<path d="M295.584 38.5042H294.259V37.1927H295.584V38.5042Z" fill="#FF0000"/>
<path d="M297.056 38.5042H295.731V37.1927H297.056V38.5042Z" fill="#FF0000"/>
<path d="M294.112 38.5042H292.787V37.1927H294.112V38.5042Z" fill="#FF0000"/>
<path d="M295.584 39.9615H294.259V38.6499H295.584V39.9615Z" fill="#FF0000"/>
<path d="M292.64 42.8761H291.315V41.5645H292.64V42.8761Z" fill="#FF0000"/>
<path d="M294.112 42.8761H292.787V41.5645H294.112V42.8761Z" fill="#FF0000"/>
<path d="M297.056 39.9615H295.731V38.6499H297.056V39.9615Z" fill="#FF0000"/>
<path d="M298.528 38.5042H297.203V37.1927H298.528V38.5042Z" fill="#FF0000"/>
<path d="M292.64 38.5042H291.315V37.1927H292.64V38.5042Z" fill="#FF0000"/>
<path d="M291.168 39.9615H289.843V38.6499H291.168V39.9615Z" fill="#FF0000"/>
<path d="M292.64 39.9615H291.315V38.6499H292.64V39.9615Z" fill="black"/>
<path d="M292.64 41.4188H291.315V40.1073H292.64V41.4188Z" fill="black"/>
<path d="M294.112 41.4188H292.787V40.1073H294.112V41.4188Z" fill="black"/>
<path d="M294.112 39.9615H292.787V38.6499H294.112V39.9615Z" fill="black"/>
<path d="M295.584 41.4188H294.259V40.1073H295.584V41.4188Z" fill="#FF0000"/>
<path d="M295.584 35.5897H294.259V34.2781H295.584V35.5897Z" fill="black"/>
<path d="M297.056 34.1323H295.731V32.8208H297.056V34.1323Z" fill="black"/>
<path d="M294.112 34.1323H292.787V32.8208H294.112V34.1323Z" fill="black"/>
<path d="M295.584 32.6751H294.259V31.3636H295.584V32.6751Z" fill="black"/>
<path d="M298.528 45.7907H297.203V44.4792H298.528V45.7907Z" fill="black"/>
<path d="M300 44.3334H298.675V43.0218H300V44.3334Z" fill="black"/>
<path d="M297.056 44.3334H295.731V43.0218H297.056V44.3334Z" fill="black"/>
<path d="M298.528 42.8761H297.203V41.5645H298.528V42.8761Z" fill="black"/>
<path d="M283.808 44.3334H282.483V43.0218H283.808V44.3334Z" fill="black"/>
<path d="M283.808 42.8761H282.483V41.5645H283.808V42.8761Z" fill="black"/>
<path d="M285.28 42.8761H283.955V41.5645H285.28V42.8761Z" fill="black"/>
<path d="M285.28 44.3334H283.955V43.0218H285.28V44.3334Z" fill="black"/>
<path d="M279.392 2.45728H278.067V3.76883H279.392V2.45728Z" fill="#FF0000"/>
<path d="M279.392 3.91455H278.067V5.22611H279.392V3.91455Z" fill="#FF0000"/>
<path d="M280.864 3.91455H279.539V5.22611H280.864V3.91455Z" fill="#FF0000"/>
<path d="M280.864 5.37189H279.539V6.68344H280.864V5.37189Z" fill="#FF0000"/>
<path d="M279.392 5.37189H278.067V6.68344H279.392V5.37189Z" fill="#FF0000"/>
<path d="M283.808 9.74371H282.483V11.0553H283.808V9.74371Z" fill="#FF0000"/>
<path d="M283.808 11.201H282.483V12.5125H283.808V11.201Z" fill="#FF0000"/>
<path d="M283.808 8.28644H282.483V9.598H283.808V8.28644Z" fill="#FF0000"/>
<path d="M282.336 9.74371H281.011V11.0553H282.336V9.74371Z" fill="#FF0000"/>
<path d="M279.392 6.8291H278.067V8.14066H279.392V6.8291Z" fill="#FF0000"/>
<path d="M279.392 8.28644H278.067V9.598H279.392V8.28644Z" fill="#FF0000"/>
<path d="M282.336 11.201H281.011V12.5125H282.336V11.201Z" fill="#FF0000"/>
<path d="M283.808 12.6583H282.483V13.9698H283.808V12.6583Z" fill="#FF0000"/>
<path d="M283.808 6.8291H282.483V8.14066H283.808V6.8291Z" fill="#FF0000"/>
<path d="M282.336 5.37189H281.011V6.68344H282.336V5.37189Z" fill="#FF0000"/>
<path d="M282.336 6.8291H281.011V8.14066H282.336V6.8291Z" fill="black"/>
<path d="M280.864 6.8291H279.539V8.14066H280.864V6.8291Z" fill="black"/>
<path d="M280.864 8.28644H279.539V9.598H280.864V8.28644Z" fill="black"/>
<path d="M285.28 3.91455H283.955V5.22611H285.28V3.91455Z" fill="black"/>
<path d="M286.752 2.45728H285.427V3.76883H286.752V2.45728Z" fill="black"/>
<path d="M283.808 2.45728H282.483V3.76883H283.808V2.45728Z" fill="black"/>
<path d="M285.28 1H283.955V2.31156H285.28V1Z" fill="black"/>
<path d="M282.336 8.28644H281.011V9.598H282.336V8.28644Z" fill="black"/>
<path d="M280.864 9.74371H279.539V11.0553H280.864V9.74371Z" fill="#FF0000"/>
<path d="M291.168 2.45728H289.843V3.76883H291.168V2.45728Z" fill="#FF0000"/>
<path d="M291.168 3.91455H289.843V5.22611H291.168V3.91455Z" fill="#FF0000"/>
<path d="M289.696 3.91455H288.371V5.22611H289.696V3.91455Z" fill="#FF0000"/>
<path d="M289.696 5.37189H288.371V6.68344H289.696V5.37189Z" fill="#FF0000"/>
<path d="M291.168 5.37189H289.843V6.68344H291.168V5.37189Z" fill="#FF0000"/>
<path d="M286.752 9.74371H285.427V11.0553H286.752V9.74371Z" fill="#FF0000"/>
<path d="M286.752 11.201H285.427V12.5125H286.752V11.201Z" fill="#FF0000"/>
<path d="M286.752 8.28644H285.427V9.598H286.752V8.28644Z" fill="#FF0000"/>
<path d="M288.224 9.74371H286.899V11.0553H288.224V9.74371Z" fill="#FF0000"/>
<path d="M291.168 6.8291H289.843V8.14066H291.168V6.8291Z" fill="#FF0000"/>
<path d="M291.168 8.28644H289.843V9.598H291.168V8.28644Z" fill="#FF0000"/>
<path d="M288.224 11.201H286.899V12.5125H288.224V11.201Z" fill="#FF0000"/>
<path d="M286.752 12.6583H285.427V13.9698H286.752V12.6583Z" fill="#FF0000"/>
<path d="M286.752 6.8291H285.427V8.14066H286.752V6.8291Z" fill="#FF0000"/>
<path d="M288.224 5.37189H286.899V6.68344H288.224V5.37189Z" fill="#FF0000"/>
<path d="M288.224 6.8291H286.899V8.14066H288.224V6.8291Z" fill="black"/>
<path d="M289.696 6.8291H288.371V8.14066H289.696V6.8291Z" fill="black"/>
<path d="M289.696 8.28644H288.371V9.598H289.696V8.28644Z" fill="black"/>
<path d="M288.224 8.28644H286.899V9.598H288.224V8.28644Z" fill="black"/>
<path d="M289.696 9.74371H288.371V11.0553H289.696V9.74371Z" fill="#FF0000"/>
<path d="M282.336 18.4874H281.011V19.799H282.336V18.4874Z" fill="#FF0000"/>
<path d="M279.392 21.402H278.067V22.7136H279.392V21.402Z" fill="#FF0000"/>
<path d="M277.92 22.8593H276.595V24.1709H277.92V22.8593Z" fill="#FF0000"/>
<path d="M280.864 19.9448H279.539V21.2563H280.864V19.9448Z" fill="#FF0000"/>
<path d="M276.448 24.3166H275.123V25.6281H276.448V24.3166Z" fill="#FF0000"/>
<path d="M273.504 27.2311H272.179V28.5427H273.504V27.2311Z" fill="#FF0000"/>
<path d="M272.032 28.6884H270.707V30H272.032V28.6884Z" fill="#FF0000"/>
<path d="M274.976 25.7739H273.651V27.0855H274.976V25.7739Z" fill="#FF0000"/>
<path d="M288.224 14.1155H286.899V15.4271H288.224V14.1155Z" fill="#FF0000"/>
<path d="M289.696 14.1155H288.371V15.4271H289.696V14.1155Z" fill="#FF0000"/>
<path d="M289.696 12.6583H288.371V13.9698H289.696V12.6583Z" fill="#FF0000"/>
<path d="M291.168 12.6583H289.843V13.9698H291.168V12.6583Z" fill="#FF0000"/>
<path d="M291.168 14.1155H289.843V15.4271H291.168V14.1155Z" fill="#FF0000"/>
<path d="M295.584 9.74371H294.259V11.0553H295.584V9.74371Z" fill="#FF0000"/>
<path d="M297.056 9.74371H295.731V11.0553H297.056V9.74371Z" fill="#FF0000"/>
<path d="M294.112 9.74371H292.787V11.0553H294.112V9.74371Z" fill="#FF0000"/>
<path d="M295.584 11.201H294.259V12.5125H295.584V11.201Z" fill="#FF0000"/>
<path d="M292.64 14.1155H291.315V15.4271H292.64V14.1155Z" fill="#FF0000"/>
<path d="M294.112 14.1155H292.787V15.4271H294.112V14.1155Z" fill="#FF0000"/>
<path d="M297.056 11.201H295.731V12.5125H297.056V11.201Z" fill="#FF0000"/>
<path d="M298.528 9.74371H297.203V11.0553H298.528V9.74371Z" fill="#FF0000"/>
<path d="M292.64 9.74371H291.315V11.0553H292.64V9.74371Z" fill="#FF0000"/>
<path d="M291.168 11.201H289.843V12.5125H291.168V11.201Z" fill="#FF0000"/>
<path d="M292.64 11.201H291.315V12.5125H292.64V11.201Z" fill="black"/>
<path d="M292.64 12.6583H291.315V13.9698H292.64V12.6583Z" fill="black"/>
<path d="M294.112 12.6583H292.787V13.9698H294.112V12.6583Z" fill="black"/>
<path d="M294.112 11.201H292.787V12.5125H294.112V11.201Z" fill="black"/>
<path d="M295.584 12.6583H294.259V13.9698H295.584V12.6583Z" fill="#FF0000"/>
<path d="M282.336 14.1155H281.011V15.4271H282.336V14.1155Z" fill="#FF0000"/>
<path d="M280.864 14.1155H279.539V15.4271H280.864V14.1155Z" fill="#FF0000"/>
<path d="M280.864 12.6583H279.539V13.9698H280.864V12.6583Z" fill="#FF0000"/>
<path d="M279.392 12.6583H278.067V13.9698H279.392V12.6583Z" fill="#FF0000"/>
<path d="M279.392 14.1155H278.067V15.4271H279.392V14.1155Z" fill="#FF0000"/>
<path d="M274.976 9.74371H273.651V11.0553H274.976V9.74371Z" fill="#FF0000"/>
<path d="M273.504 9.74371H272.179V11.0553H273.504V9.74371Z" fill="#FF0000"/>
<path d="M276.448 9.74371H275.123V11.0553H276.448V9.74371Z" fill="#FF0000"/>
<path d="M274.976 11.201H273.651V12.5125H274.976V11.201Z" fill="#FF0000"/>
<path d="M277.92 14.1155H276.595V15.4271H277.92V14.1155Z" fill="#FF0000"/>
<path d="M276.448 14.1155H275.123V15.4271H276.448V14.1155Z" fill="#FF0000"/>
<path d="M273.504 11.201H272.179V12.5125H273.504V11.201Z" fill="#FF0000"/>
<path d="M272.032 9.74371H270.707V11.0553H272.032V9.74371Z" fill="#FF0000"/>
<path d="M277.92 9.74371H276.595V11.0553H277.92V9.74371Z" fill="#FF0000"/>
<path d="M279.392 11.201H278.067V12.5125H279.392V11.201Z" fill="#FF0000"/>
<path d="M277.92 11.201H276.595V12.5125H277.92V11.201Z" fill="black"/>
<path d="M277.92 12.6583H276.595V13.9698H277.92V12.6583Z" fill="black"/>
<path d="M276.448 12.6583H275.123V13.9698H276.448V12.6583Z" fill="black"/>
<path d="M276.448 11.201H275.123V12.5125H276.448V11.201Z" fill="black"/>
<path d="M274.976 12.6583H273.651V13.9698H274.976V12.6583Z" fill="#FF0000"/>
<path d="M295.584 6.8291H294.259V8.14066H295.584V6.8291Z" fill="black"/>
<path d="M297.056 5.37189H295.731V6.68344H297.056V5.37189Z" fill="black"/>
<path d="M294.112 5.37189H292.787V6.68344H294.112V5.37189Z" fill="black"/>
<path d="M295.584 3.91455H294.259V5.22611H295.584V3.91455Z" fill="black"/>
<path d="M274.976 6.8291H273.651V8.14066H274.976V6.8291Z" fill="black"/>
<path d="M276.448 5.37189H275.123V6.68344H276.448V5.37189Z" fill="black"/>
<path d="M273.504 5.37189H272.179V6.68344H273.504V5.37189Z" fill="black"/>
<path d="M274.976 3.91455H273.651V5.22611H274.976V3.91455Z" fill="black"/>
<path d="M291.168 28.6884H289.843V30H291.168V28.6884Z" fill="#FF0000"/>
<path d="M291.168 27.2311H289.843V28.5427H291.168V27.2311Z" fill="#FF0000"/>
<path d="M289.696 27.2311H288.371V28.5427H289.696V27.2311Z" fill="#FF0000"/>
<path d="M289.696 25.7739H288.371V27.0855H289.696V25.7739Z" fill="#FF0000"/>
<path d="M291.168 25.7739H289.843V27.0855H291.168V25.7739Z" fill="#FF0000"/>
<path d="M286.752 21.402H285.427V22.7136H286.752V21.402Z" fill="#FF0000"/>
<path d="M286.752 19.9448H285.427V21.2563H286.752V19.9448Z" fill="#FF0000"/>
<path d="M286.752 22.8593H285.427V24.1709H286.752V22.8593Z" fill="#FF0000"/>
<path d="M288.224 21.402H286.899V22.7136H288.224V21.402Z" fill="#FF0000"/>
<path d="M291.168 24.3166H289.843V25.6281H291.168V24.3166Z" fill="#FF0000"/>
<path d="M291.168 22.8593H289.843V24.1709H291.168V22.8593Z" fill="#FF0000"/>
<path d="M288.224 19.9448H286.899V21.2563H288.224V19.9448Z" fill="#FF0000"/>
<path d="M286.752 18.4874H285.427V19.799H286.752V18.4874Z" fill="#FF0000"/>
<path d="M286.752 24.3166H285.427V25.6281H286.752V24.3166Z" fill="#FF0000"/>
<path d="M288.224 25.7739H286.899V27.0855H288.224V25.7739Z" fill="#FF0000"/>
<path d="M288.224 24.3166H286.899V25.6281H288.224V24.3166Z" fill="black"/>
<path d="M289.696 24.3166H288.371V25.6281H289.696V24.3166Z" fill="black"/>
<path d="M289.696 22.8593H288.371V24.1709H289.696V22.8593Z" fill="black"/>
<path d="M288.224 22.8593H286.899V24.1709H288.224V22.8593Z" fill="black"/>
<path d="M289.696 21.402H288.371V22.7136H289.696V21.402Z" fill="#FF0000"/>
<path d="M288.224 17.0302H286.899V18.3417H288.224V17.0302Z" fill="#FF0000"/>
<path d="M289.696 17.0302H288.371V18.3417H289.696V17.0302Z" fill="#FF0000"/>
<path d="M289.696 18.4874H288.371V19.799H289.696V18.4874Z" fill="#FF0000"/>
<path d="M291.168 18.4874H289.843V19.799H291.168V18.4874Z" fill="#FF0000"/>
<path d="M291.168 17.0302H289.843V18.3417H291.168V17.0302Z" fill="#FF0000"/>
<path d="M295.584 21.402H294.259V22.7136H295.584V21.402Z" fill="#FF0000"/>
<path d="M297.056 21.402H295.731V22.7136H297.056V21.402Z" fill="#FF0000"/>
<path d="M294.112 21.402H292.787V22.7136H294.112V21.402Z" fill="#FF0000"/>
<path d="M295.584 19.9448H294.259V21.2563H295.584V19.9448Z" fill="#FF0000"/>
<path d="M292.64 17.0302H291.315V18.3417H292.64V17.0302Z" fill="#FF0000"/>
<path d="M294.112 17.0302H292.787V18.3417H294.112V17.0302Z" fill="#FF0000"/>
<path d="M297.056 19.9448H295.731V21.2563H297.056V19.9448Z" fill="#FF0000"/>
<path d="M298.528 21.402H297.203V22.7136H298.528V21.402Z" fill="#FF0000"/>
<path d="M292.64 21.402H291.315V22.7136H292.64V21.402Z" fill="#FF0000"/>
<path d="M291.168 19.9448H289.843V21.2563H291.168V19.9448Z" fill="#FF0000"/>
<path d="M292.64 19.9448H291.315V21.2563H292.64V19.9448Z" fill="black"/>
<path d="M292.64 18.4874H291.315V19.799H292.64V18.4874Z" fill="black"/>
<path d="M294.112 18.4874H292.787V19.799H294.112V18.4874Z" fill="black"/>
<path d="M294.112 19.9448H292.787V21.2563H294.112V19.9448Z" fill="black"/>
<path d="M295.584 18.4874H294.259V19.799H295.584V18.4874Z" fill="#FF0000"/>
<path d="M295.584 24.3166H294.259V25.6281H295.584V24.3166Z" fill="black"/>
<path d="M297.056 25.7739H295.731V27.0855H297.056V25.7739Z" fill="black"/>
<path d="M294.112 25.7739H292.787V27.0855H294.112V25.7739Z" fill="black"/>
<path d="M295.584 27.2311H294.259V28.5427H295.584V27.2311Z" fill="black"/>
<path d="M298.528 14.1155H297.203V15.4271H298.528V14.1155Z" fill="black"/>
<path d="M300 15.5729H298.675V16.8844H300V15.5729Z" fill="black"/>
<path d="M297.056 15.5729H295.731V16.8844H297.056V15.5729Z" fill="black"/>
<path d="M298.528 17.0302H297.203V18.3417H298.528V17.0302Z" fill="black"/>
<path d="M283.808 15.5729H282.483V16.8844H283.808V15.5729Z" fill="black"/>
<path d="M283.808 17.0302H282.483V18.3417H283.808V17.0302Z" fill="black"/>
<path d="M285.28 17.0302H283.955V18.3417H285.28V17.0302Z" fill="black"/>
<path d="M285.28 15.5729H283.955V16.8844H285.28V15.5729Z" fill="black"/>
<path d="M20.6081 57.449H21.9329V56.1374H20.6081V57.449Z" fill="#FF0000"/>
<path d="M20.6081 55.9917H21.9329V54.6801H20.6081V55.9917Z" fill="#FF0000"/>
<path d="M19.136 55.9917H20.4608V54.6801H19.136V55.9917Z" fill="#FF0000"/>
<path d="M19.136 54.5344H20.4608V53.2228H19.136V54.5344Z" fill="#FF0000"/>
<path d="M20.6081 54.5344H21.9329V53.2228H20.6081V54.5344Z" fill="#FF0000"/>
<path d="M16.1922 50.1625H17.517V48.851H16.1922V50.1625Z" fill="#FF0000"/>
<path d="M16.1922 48.7053H17.517V47.3937H16.1922V48.7053Z" fill="#FF0000"/>
<path d="M16.1922 51.6198H17.517V50.3083H16.1922V51.6198Z" fill="#FF0000"/>
<path d="M17.6641 50.1625H18.9889V48.851H17.6641V50.1625Z" fill="#FF0000"/>
<path d="M20.6081 53.0771H21.9329V51.7656H20.6081V53.0771Z" fill="#FF0000"/>
<path d="M20.6081 51.6198H21.9329V50.3083H20.6081V51.6198Z" fill="#FF0000"/>
<path d="M17.6641 48.7053H18.9889V47.3937H17.6641V48.7053Z" fill="#FF0000"/>
<path d="M16.1922 47.248H17.517V45.9364H16.1922V47.248Z" fill="#FF0000"/>
<path d="M16.1922 53.0771H17.517V51.7656H16.1922V53.0771Z" fill="#FF0000"/>
<path d="M17.6641 54.5344H18.9889V53.2228H17.6641V54.5344Z" fill="#FF0000"/>
<path d="M17.6641 53.0771H18.9889V51.7656H17.6641V53.0771Z" fill="black"/>
<path d="M19.136 53.0771H20.4608V51.7656H19.136V53.0771Z" fill="black"/>
<path d="M19.136 51.6198H20.4608V50.3083H19.136V51.6198Z" fill="black"/>
<path d="M14.7201 55.9917H16.0449V54.6801H14.7201V55.9917Z" fill="black"/>
<path d="M13.2481 57.449H14.5729V56.1374H13.2481V57.449Z" fill="black"/>
<path d="M16.1922 57.449H17.517V56.1374H16.1922V57.449Z" fill="black"/>
<path d="M14.7201 58.9062H16.0449V57.5947H14.7201V58.9062Z" fill="black"/>
<path d="M17.6641 51.6198H18.9889V50.3083H17.6641V51.6198Z" fill="black"/>
<path d="M19.136 50.1625H20.4608V48.851H19.136V50.1625Z" fill="#FF0000"/>
<path d="M8.83212 57.449H10.1569V56.1374H8.83212V57.449Z" fill="#FF0000"/>
<path d="M8.83212 55.9917H10.1569V54.6801H8.83212V55.9917Z" fill="#FF0000"/>
<path d="M10.304 55.9917H11.6288V54.6801H10.304V55.9917Z" fill="#FF0000"/>
<path d="M10.304 54.5344H11.6288V53.2228H10.304V54.5344Z" fill="#FF0000"/>
<path d="M8.83212 54.5344H10.1569V53.2228H8.83212V54.5344Z" fill="#FF0000"/>
<path d="M13.2481 50.1625H14.5729V48.851H13.2481V50.1625Z" fill="#FF0000"/>
<path d="M13.2481 48.7053H14.5729V47.3937H13.2481V48.7053Z" fill="#FF0000"/>
<path d="M13.2481 51.6198H14.5729V50.3083H13.2481V51.6198Z" fill="#FF0000"/>
<path d="M11.776 50.1625H13.1008V48.851H11.776V50.1625Z" fill="#FF0000"/>
<path d="M8.83212 53.0771H10.1569V51.7656H8.83212V53.0771Z" fill="#FF0000"/>
<path d="M8.83212 51.6198H10.1569V50.3083H8.83212V51.6198Z" fill="#FF0000"/>
<path d="M11.776 48.7053H13.1008V47.3937H11.776V48.7053Z" fill="#FF0000"/>
<path d="M13.2481 47.248H14.5729V45.9364H13.2481V47.248Z" fill="#FF0000"/>
<path d="M13.2481 53.0771H14.5729V51.7656H13.2481V53.0771Z" fill="#FF0000"/>
<path d="M11.776 54.5344H13.1008V53.2228H11.776V54.5344Z" fill="#FF0000"/>
<path d="M11.776 53.0771H13.1008V51.7656H11.776V53.0771Z" fill="black"/>
<path d="M10.304 53.0771H11.6288V51.7656H10.304V53.0771Z" fill="black"/>
<path d="M10.304 51.6198H11.6288V50.3083H10.304V51.6198Z" fill="black"/>
<path d="M11.776 51.6198H13.1008V50.3083H11.776V51.6198Z" fill="black"/>
<path d="M10.304 50.1625H11.6288V48.851H10.304V50.1625Z" fill="#FF0000"/>
<path d="M17.6641 41.4188H18.9889V40.1073H17.6641V41.4188Z" fill="#FF0000"/>
<path d="M20.6081 38.5042H21.9329V37.1927H20.6081V38.5042Z" fill="#FF0000"/>
<path d="M22.0801 37.0469H23.4049V35.7354H22.0801V37.0469Z" fill="#FF0000"/>
<path d="M19.136 39.9615H20.4608V38.6499H19.136V39.9615Z" fill="#FF0000"/>
<path d="M23.5521 35.5897H24.877V34.2781H23.5521V35.5897Z" fill="#FF0000"/>
<path d="M26.4961 32.6751H27.8209V31.3636H26.4961V32.6751Z" fill="#FF0000"/>
<path d="M27.9682 31.2178H29.293V29.9063H27.9682V31.2178Z" fill="#FF0000"/>
<path d="M25.0241 34.1323H26.3489V32.8208H25.0241V34.1323Z" fill="#FF0000"/>
<path d="M11.776 45.7907H13.1008V44.4792H11.776V45.7907Z" fill="#FF0000"/>
<path d="M10.304 45.7907H11.6288V44.4792H10.304V45.7907Z" fill="#FF0000"/>
<path d="M10.304 47.248H11.6288V45.9364H10.304V47.248Z" fill="#FF0000"/>
<path d="M8.83212 47.248H10.1569V45.9364H8.83212V47.248Z" fill="#FF0000"/>
<path d="M8.83212 45.7907H10.1569V44.4792H8.83212V45.7907Z" fill="#FF0000"/>
<path d="M4.4161 50.1625H5.74091V48.851H4.4161V50.1625Z" fill="#FF0000"/>
<path d="M2.94393 50.1625H4.26874V48.851H2.94393V50.1625Z" fill="#FF0000"/>
<path d="M5.88802 50.1625H7.21283V48.851H5.88802V50.1625Z" fill="#FF0000"/>
<path d="M4.4161 48.7053H5.74091V47.3937H4.4161V48.7053Z" fill="#FF0000"/>
<path d="M7.35995 45.7907H8.68475V44.4792H7.35995V45.7907Z" fill="#FF0000"/>
<path d="M5.88802 45.7907H7.21283V44.4792H5.88802V45.7907Z" fill="#FF0000"/>
<path d="M2.94393 48.7053H4.26874V47.3937H2.94393V48.7053Z" fill="#FF0000"/>
<path d="M1.47207 50.1625H2.79688V48.851H1.47207V50.1625Z" fill="#FF0000"/>
<path d="M7.35995 50.1625H8.68475V48.851H7.35995V50.1625Z" fill="#FF0000"/>
<path d="M8.83212 48.7053H10.1569V47.3937H8.83212V48.7053Z" fill="#FF0000"/>
<path d="M7.35995 48.7053H8.68475V47.3937H7.35995V48.7053Z" fill="black"/>
<path d="M7.35995 47.248H8.68475V45.9364H7.35995V47.248Z" fill="black"/>
<path d="M5.88802 47.248H7.21283V45.9364H5.88802V47.248Z" fill="black"/>
<path d="M5.88802 48.7053H7.21283V47.3937H5.88802V48.7053Z" fill="black"/>
<path d="M4.4161 47.248H5.74091V45.9364H4.4161V47.248Z" fill="#FF0000"/>
<path d="M17.6641 45.7907H18.9889V44.4792H17.6641V45.7907Z" fill="#FF0000"/>
<path d="M19.136 45.7907H20.4608V44.4792H19.136V45.7907Z" fill="#FF0000"/>
<path d="M19.136 47.248H20.4608V45.9364H19.136V47.248Z" fill="#FF0000"/>
<path d="M20.6081 47.248H21.9329V45.9364H20.6081V47.248Z" fill="#FF0000"/>
<path d="M20.6081 45.7907H21.9329V44.4792H20.6081V45.7907Z" fill="#FF0000"/>
<path d="M25.0241 50.1625H26.3489V48.851H25.0241V50.1625Z" fill="#FF0000"/>
<path d="M26.4961 50.1625H27.8209V48.851H26.4961V50.1625Z" fill="#FF0000"/>
<path d="M23.5521 50.1625H24.877V48.851H23.5521V50.1625Z" fill="#FF0000"/>
<path d="M25.0241 48.7053H26.3489V47.3937H25.0241V48.7053Z" fill="#FF0000"/>
<path d="M22.0801 45.7907H23.4049V44.4792H22.0801V45.7907Z" fill="#FF0000"/>
<path d="M23.5521 45.7907H24.877V44.4792H23.5521V45.7907Z" fill="#FF0000"/>
<path d="M26.4961 48.7053H27.8209V47.3937H26.4961V48.7053Z" fill="#FF0000"/>
<path d="M27.9682 50.1625H29.293V48.851H27.9682V50.1625Z" fill="#FF0000"/>
<path d="M22.0801 50.1625H23.4049V48.851H22.0801V50.1625Z" fill="#FF0000"/>
<path d="M20.6081 48.7053H21.9329V47.3937H20.6081V48.7053Z" fill="#FF0000"/>
<path d="M22.0801 48.7053H23.4049V47.3937H22.0801V48.7053Z" fill="black"/>
<path d="M22.0801 47.248H23.4049V45.9364H22.0801V47.248Z" fill="black"/>
<path d="M23.5521 47.248H24.877V45.9364H23.5521V47.248Z" fill="black"/>
<path d="M23.5521 48.7053H24.877V47.3937H23.5521V48.7053Z" fill="black"/>
<path d="M25.0241 47.248H26.3489V45.9364H25.0241V47.248Z" fill="#FF0000"/>
<path d="M4.4161 53.0771H5.74091V51.7656H4.4161V53.0771Z" fill="black"/>
<path d="M2.94393 54.5344H4.26874V53.2228H2.94393V54.5344Z" fill="black"/>
<path d="M5.88802 54.5344H7.21283V53.2228H5.88802V54.5344Z" fill="black"/>
<path d="M4.4161 55.9917H5.74091V54.6801H4.4161V55.9917Z" fill="black"/>
<path d="M25.0241 53.0771H26.3489V51.7656H25.0241V53.0771Z" fill="black"/>
<path d="M23.5521 54.5344H24.877V53.2228H23.5521V54.5344Z" fill="black"/>
<path d="M26.4961 54.5344H27.8209V53.2228H26.4961V54.5344Z" fill="black"/>
<path d="M25.0241 55.9917H26.3489V54.6801H25.0241V55.9917Z" fill="black"/>
<path d="M8.83212 31.2178H10.1569V29.9063H8.83212V31.2178Z" fill="#FF0000"/>
<path d="M8.83212 32.6751H10.1569V31.3636H8.83212V32.6751Z" fill="#FF0000"/>
<path d="M10.304 32.6751H11.6288V31.3636H10.304V32.6751Z" fill="#FF0000"/>
<path d="M10.304 34.1323H11.6288V32.8208H10.304V34.1323Z" fill="#FF0000"/>
<path d="M8.83212 34.1323H10.1569V32.8208H8.83212V34.1323Z" fill="#FF0000"/>
<path d="M13.2481 38.5042H14.5729V37.1927H13.2481V38.5042Z" fill="#FF0000"/>
<path d="M13.2481 39.9615H14.5729V38.6499H13.2481V39.9615Z" fill="#FF0000"/>
<path d="M13.2481 37.0469H14.5729V35.7354H13.2481V37.0469Z" fill="#FF0000"/>
<path d="M11.776 38.5042H13.1008V37.1927H11.776V38.5042Z" fill="#FF0000"/>
<path d="M8.83212 35.5897H10.1569V34.2781H8.83212V35.5897Z" fill="#FF0000"/>
<path d="M8.83212 37.0469H10.1569V35.7354H8.83212V37.0469Z" fill="#FF0000"/>
<path d="M11.776 39.9615H13.1008V38.6499H11.776V39.9615Z" fill="#FF0000"/>
<path d="M13.2481 41.4188H14.5729V40.1073H13.2481V41.4188Z" fill="#FF0000"/>
<path d="M13.2481 35.5897H14.5729V34.2781H13.2481V35.5897Z" fill="#FF0000"/>
<path d="M11.776 34.1323H13.1008V32.8208H11.776V34.1323Z" fill="#FF0000"/>
<path d="M11.776 35.5897H13.1008V34.2781H11.776V35.5897Z" fill="black"/>
<path d="M10.304 35.5897H11.6288V34.2781H10.304V35.5897Z" fill="black"/>
<path d="M10.304 37.0469H11.6288V35.7354H10.304V37.0469Z" fill="black"/>
<path d="M11.776 37.0469H13.1008V35.7354H11.776V37.0469Z" fill="black"/>
<path d="M10.304 38.5042H11.6288V37.1927H10.304V38.5042Z" fill="#FF0000"/>
<path d="M11.776 42.8761H13.1008V41.5645H11.776V42.8761Z" fill="#FF0000"/>
<path d="M10.304 42.8761H11.6288V41.5645H10.304V42.8761Z" fill="#FF0000"/>
<path d="M10.304 41.4188H11.6288V40.1073H10.304V41.4188Z" fill="#FF0000"/>
<path d="M8.83212 41.4188H10.1569V40.1073H8.83212V41.4188Z" fill="#FF0000"/>
<path d="M8.83212 42.8761H10.1569V41.5645H8.83212V42.8761Z" fill="#FF0000"/>
<path d="M4.4161 38.5042H5.74091V37.1927H4.4161V38.5042Z" fill="#FF0000"/>
<path d="M2.94393 38.5042H4.26874V37.1927H2.94393V38.5042Z" fill="#FF0000"/>
<path d="M5.88802 38.5042H7.21283V37.1927H5.88802V38.5042Z" fill="#FF0000"/>
<path d="M4.4161 39.9615H5.74091V38.6499H4.4161V39.9615Z" fill="#FF0000"/>
<path d="M7.35995 42.8761H8.68475V41.5645H7.35995V42.8761Z" fill="#FF0000"/>
<path d="M5.88802 42.8761H7.21283V41.5645H5.88802V42.8761Z" fill="#FF0000"/>
<path d="M2.94393 39.9615H4.26874V38.6499H2.94393V39.9615Z" fill="#FF0000"/>
<path d="M1.47207 38.5042H2.79688V37.1927H1.47207V38.5042Z" fill="#FF0000"/>
<path d="M7.35995 38.5042H8.68475V37.1927H7.35995V38.5042Z" fill="#FF0000"/>
<path d="M8.83212 39.9615H10.1569V38.6499H8.83212V39.9615Z" fill="#FF0000"/>
<path d="M7.35995 39.9615H8.68475V38.6499H7.35995V39.9615Z" fill="black"/>
<path d="M7.35995 41.4188H8.68475V40.1073H7.35995V41.4188Z" fill="black"/>
<path d="M5.88802 41.4188H7.21283V40.1073H5.88802V41.4188Z" fill="black"/>
<path d="M5.88802 39.9615H7.21283V38.6499H5.88802V39.9615Z" fill="black"/>
<path d="M4.4161 41.4188H5.74091V40.1073H4.4161V41.4188Z" fill="#FF0000"/>
<path d="M4.4161 35.5897H5.74091V34.2781H4.4161V35.5897Z" fill="black"/>
<path d="M2.94393 34.1323H4.26874V32.8208H2.94393V34.1323Z" fill="black"/>
<path d="M5.88802 34.1323H7.21283V32.8208H5.88802V34.1323Z" fill="black"/>
<path d="M4.4161 32.6751H5.74091V31.3636H4.4161V32.6751Z" fill="black"/>
<path d="M1.47207 45.7907H2.79688V44.4792H1.47207V45.7907Z" fill="black"/>
<path d="M-7.15256e-06 44.3334H1.3248V43.0218H-7.15256e-06V44.3334Z" fill="black"/>
<path d="M2.94393 44.3334H4.26874V43.0218H2.94393V44.3334Z" fill="black"/>
<path d="M1.47207 42.8761H2.79688V41.5645H1.47207V42.8761Z" fill="black"/>
<path d="M16.1922 44.3334H17.517V43.0218H16.1922V44.3334Z" fill="black"/>
<path d="M16.1922 42.8761H17.517V41.5645H16.1922V42.8761Z" fill="black"/>
<path d="M14.7201 42.8761H16.0449V41.5645H14.7201V42.8761Z" fill="black"/>
<path d="M14.7201 44.3334H16.0449V43.0218H14.7201V44.3334Z" fill="black"/>
<path d="M20.6081 2.45728H21.9329V3.76883H20.6081V2.45728Z" fill="#FF0000"/>
<path d="M20.6081 3.91455H21.9329V5.22611H20.6081V3.91455Z" fill="#FF0000"/>
<path d="M19.136 3.91455H20.4608V5.22611H19.136V3.91455Z" fill="#FF0000"/>
<path d="M19.136 5.37189H20.4608V6.68344H19.136V5.37189Z" fill="#FF0000"/>
<path d="M20.6081 5.37189H21.9329V6.68344H20.6081V5.37189Z" fill="#FF0000"/>
<path d="M16.1922 9.74371H17.517V11.0553H16.1922V9.74371Z" fill="#FF0000"/>
<path d="M16.1922 11.201H17.517V12.5125H16.1922V11.201Z" fill="#FF0000"/>
<path d="M16.1922 8.28644H17.517V9.598H16.1922V8.28644Z" fill="#FF0000"/>
<path d="M17.6641 9.74371H18.9889V11.0553H17.6641V9.74371Z" fill="#FF0000"/>
<path d="M20.6081 6.8291H21.9329V8.14066H20.6081V6.8291Z" fill="#FF0000"/>
<path d="M20.6081 8.28644H21.9329V9.598H20.6081V8.28644Z" fill="#FF0000"/>
<path d="M17.6641 11.201H18.9889V12.5125H17.6641V11.201Z" fill="#FF0000"/>
<path d="M16.1922 12.6583H17.517V13.9698H16.1922V12.6583Z" fill="#FF0000"/>
<path d="M16.1922 6.8291H17.517V8.14066H16.1922V6.8291Z" fill="#FF0000"/>
<path d="M17.6641 5.37189H18.9889V6.68344H17.6641V5.37189Z" fill="#FF0000"/>
<path d="M17.6641 6.8291H18.9889V8.14066H17.6641V6.8291Z" fill="black"/>
<path d="M19.136 6.8291H20.4608V8.14066H19.136V6.8291Z" fill="black"/>
<path d="M19.136 8.28644H20.4608V9.598H19.136V8.28644Z" fill="black"/>
<path d="M14.7201 3.91455H16.0449V5.22611H14.7201V3.91455Z" fill="black"/>
<path d="M13.2481 2.45728H14.5729V3.76883H13.2481V2.45728Z" fill="black"/>
<path d="M16.1922 2.45728H17.517V3.76883H16.1922V2.45728Z" fill="black"/>
<path d="M14.7201 1H16.0449V2.31156H14.7201V1Z" fill="black"/>
<path d="M17.6641 8.28644H18.9889V9.598H17.6641V8.28644Z" fill="black"/>
<path d="M19.136 9.74371H20.4608V11.0553H19.136V9.74371Z" fill="#FF0000"/>
<path d="M8.83212 2.45728H10.1569V3.76883H8.83212V2.45728Z" fill="#FF0000"/>
<path d="M8.83212 3.91455H10.1569V5.22611H8.83212V3.91455Z" fill="#FF0000"/>
<path d="M10.304 3.91455H11.6288V5.22611H10.304V3.91455Z" fill="#FF0000"/>
<path d="M10.304 5.37189H11.6288V6.68344H10.304V5.37189Z" fill="#FF0000"/>
<path d="M8.83212 5.37189H10.1569V6.68344H8.83212V5.37189Z" fill="#FF0000"/>
<path d="M13.2481 9.74371H14.5729V11.0553H13.2481V9.74371Z" fill="#FF0000"/>
<path d="M13.2481 11.201H14.5729V12.5125H13.2481V11.201Z" fill="#FF0000"/>
<path d="M13.2481 8.28644H14.5729V9.598H13.2481V8.28644Z" fill="#FF0000"/>
<path d="M11.776 9.74371H13.1008V11.0553H11.776V9.74371Z" fill="#FF0000"/>
<path d="M8.83212 6.8291H10.1569V8.14066H8.83212V6.8291Z" fill="#FF0000"/>
<path d="M8.83212 8.28644H10.1569V9.598H8.83212V8.28644Z" fill="#FF0000"/>
<path d="M11.776 11.201H13.1008V12.5125H11.776V11.201Z" fill="#FF0000"/>
<path d="M13.2481 12.6583H14.5729V13.9698H13.2481V12.6583Z" fill="#FF0000"/>
<path d="M13.2481 6.8291H14.5729V8.14066H13.2481V6.8291Z" fill="#FF0000"/>
<path d="M11.776 5.37189H13.1008V6.68344H11.776V5.37189Z" fill="#FF0000"/>
<path d="M11.776 6.8291H13.1008V8.14066H11.776V6.8291Z" fill="black"/>
<path d="M10.304 6.8291H11.6288V8.14066H10.304V6.8291Z" fill="black"/>
<path d="M10.304 8.28644H11.6288V9.598H10.304V8.28644Z" fill="black"/>
<path d="M11.776 8.28644H13.1008V9.598H11.776V8.28644Z" fill="black"/>
<path d="M10.304 9.74371H11.6288V11.0553H10.304V9.74371Z" fill="#FF0000"/>
<path d="M17.6641 18.4874H18.9889V19.799H17.6641V18.4874Z" fill="#FF0000"/>
<path d="M20.6081 21.402H21.9329V22.7136H20.6081V21.402Z" fill="#FF0000"/>
<path d="M22.0801 22.8593H23.4049V24.1709H22.0801V22.8593Z" fill="#FF0000"/>
<path d="M19.136 19.9448H20.4608V21.2563H19.136V19.9448Z" fill="#FF0000"/>
<path d="M23.5521 24.3166H24.877V25.6281H23.5521V24.3166Z" fill="#FF0000"/>
<path d="M26.4961 27.2311H27.8209V28.5427H26.4961V27.2311Z" fill="#FF0000"/>
<path d="M27.9682 28.6884H29.293V30H27.9682V28.6884Z" fill="#FF0000"/>
<path d="M25.0241 25.7739H26.3489V27.0855H25.0241V25.7739Z" fill="#FF0000"/>
<path d="M11.776 14.1155H13.1008V15.4271H11.776V14.1155Z" fill="#FF0000"/>
<path d="M10.304 14.1155H11.6288V15.4271H10.304V14.1155Z" fill="#FF0000"/>
<path d="M10.304 12.6583H11.6288V13.9698H10.304V12.6583Z" fill="#FF0000"/>
<path d="M8.83212 12.6583H10.1569V13.9698H8.83212V12.6583Z" fill="#FF0000"/>
<path d="M8.83212 14.1155H10.1569V15.4271H8.83212V14.1155Z" fill="#FF0000"/>
<path d="M4.4161 9.74371H5.74091V11.0553H4.4161V9.74371Z" fill="#FF0000"/>
<path d="M2.94393 9.74371H4.26874V11.0553H2.94393V9.74371Z" fill="#FF0000"/>
<path d="M5.88802 9.74371H7.21283V11.0553H5.88802V9.74371Z" fill="#FF0000"/>
<path d="M4.4161 11.201H5.74091V12.5125H4.4161V11.201Z" fill="#FF0000"/>
<path d="M7.35995 14.1155H8.68475V15.4271H7.35995V14.1155Z" fill="#FF0000"/>
<path d="M5.88802 14.1155H7.21283V15.4271H5.88802V14.1155Z" fill="#FF0000"/>
<path d="M2.94393 11.201H4.26874V12.5125H2.94393V11.201Z" fill="#FF0000"/>
<path d="M1.47207 9.74371H2.79688V11.0553H1.47207V9.74371Z" fill="#FF0000"/>
<path d="M7.35995 9.74371H8.68475V11.0553H7.35995V9.74371Z" fill="#FF0000"/>
<path d="M8.83212 11.201H10.1569V12.5125H8.83212V11.201Z" fill="#FF0000"/>
<path d="M7.35995 11.201H8.68475V12.5125H7.35995V11.201Z" fill="black"/>
<path d="M7.35995 12.6583H8.68475V13.9698H7.35995V12.6583Z" fill="black"/>
<path d="M5.88802 12.6583H7.21283V13.9698H5.88802V12.6583Z" fill="black"/>
<path d="M5.88802 11.201H7.21283V12.5125H5.88802V11.201Z" fill="black"/>
<path d="M4.4161 12.6583H5.74091V13.9698H4.4161V12.6583Z" fill="#FF0000"/>
<path d="M17.6641 14.1155H18.9889V15.4271H17.6641V14.1155Z" fill="#FF0000"/>
<path d="M19.136 14.1155H20.4608V15.4271H19.136V14.1155Z" fill="#FF0000"/>
<path d="M19.136 12.6583H20.4608V13.9698H19.136V12.6583Z" fill="#FF0000"/>
<path d="M20.6081 12.6583H21.9329V13.9698H20.6081V12.6583Z" fill="#FF0000"/>
<path d="M20.6081 14.1155H21.9329V15.4271H20.6081V14.1155Z" fill="#FF0000"/>
<path d="M25.0241 9.74371H26.3489V11.0553H25.0241V9.74371Z" fill="#FF0000"/>
<path d="M26.4961 9.74371H27.8209V11.0553H26.4961V9.74371Z" fill="#FF0000"/>
<path d="M23.5521 9.74371H24.877V11.0553H23.5521V9.74371Z" fill="#FF0000"/>
<path d="M25.0241 11.201H26.3489V12.5125H25.0241V11.201Z" fill="#FF0000"/>
<path d="M22.0801 14.1155H23.4049V15.4271H22.0801V14.1155Z" fill="#FF0000"/>
<path d="M23.5521 14.1155H24.877V15.4271H23.5521V14.1155Z" fill="#FF0000"/>
<path d="M26.4961 11.201H27.8209V12.5125H26.4961V11.201Z" fill="#FF0000"/>
<path d="M27.9682 9.74371H29.293V11.0553H27.9682V9.74371Z" fill="#FF0000"/>
<path d="M22.0801 9.74371H23.4049V11.0553H22.0801V9.74371Z" fill="#FF0000"/>
<path d="M20.6081 11.201H21.9329V12.5125H20.6081V11.201Z" fill="#FF0000"/>
<path d="M22.0801 11.201H23.4049V12.5125H22.0801V11.201Z" fill="black"/>
<path d="M22.0801 12.6583H23.4049V13.9698H22.0801V12.6583Z" fill="black"/>
<path d="M23.5521 12.6583H24.877V13.9698H23.5521V12.6583Z" fill="black"/>
<path d="M23.5521 11.201H24.877V12.5125H23.5521V11.201Z" fill="black"/>
<path d="M25.0241 12.6583H26.3489V13.9698H25.0241V12.6583Z" fill="#FF0000"/>
<path d="M4.4161 6.8291H5.74091V8.14066H4.4161V6.8291Z" fill="black"/>
<path d="M2.94393 5.37189H4.26874V6.68344H2.94393V5.37189Z" fill="black"/>
<path d="M5.88802 5.37189H7.21283V6.68344H5.88802V5.37189Z" fill="black"/>
<path d="M4.4161 3.91455H5.74091V5.22611H4.4161V3.91455Z" fill="black"/>
<path d="M25.0241 6.8291H26.3489V8.14066H25.0241V6.8291Z" fill="black"/>
<path d="M23.5521 5.37189H24.877V6.68344H23.5521V5.37189Z" fill="black"/>
<path d="M26.4961 5.37189H27.8209V6.68344H26.4961V5.37189Z" fill="black"/>
<path d="M25.0241 3.91455H26.3489V5.22611H25.0241V3.91455Z" fill="black"/>
<path d="M8.83212 28.6884H10.1569V30H8.83212V28.6884Z" fill="#FF0000"/>
<path d="M8.83212 27.2311H10.1569V28.5427H8.83212V27.2311Z" fill="#FF0000"/>
<path d="M10.304 27.2311H11.6288V28.5427H10.304V27.2311Z" fill="#FF0000"/>
<path d="M10.304 25.7739H11.6288V27.0855H10.304V25.7739Z" fill="#FF0000"/>
<path d="M8.83212 25.7739H10.1569V27.0855H8.83212V25.7739Z" fill="#FF0000"/>
<path d="M13.2481 21.402H14.5729V22.7136H13.2481V21.402Z" fill="#FF0000"/>
<path d="M13.2481 19.9448H14.5729V21.2563H13.2481V19.9448Z" fill="#FF0000"/>
<path d="M13.2481 22.8593H14.5729V24.1709H13.2481V22.8593Z" fill="#FF0000"/>
<path d="M11.776 21.402H13.1008V22.7136H11.776V21.402Z" fill="#FF0000"/>
<path d="M8.83212 24.3166H10.1569V25.6281H8.83212V24.3166Z" fill="#FF0000"/>
<path d="M8.83212 22.8593H10.1569V24.1709H8.83212V22.8593Z" fill="#FF0000"/>
<path d="M11.776 19.9448H13.1008V21.2563H11.776V19.9448Z" fill="#FF0000"/>
<path d="M13.2481 18.4874H14.5729V19.799H13.2481V18.4874Z" fill="#FF0000"/>
<path d="M13.2481 24.3166H14.5729V25.6281H13.2481V24.3166Z" fill="#FF0000"/>
<path d="M11.776 25.7739H13.1008V27.0855H11.776V25.7739Z" fill="#FF0000"/>
<path d="M11.776 24.3166H13.1008V25.6281H11.776V24.3166Z" fill="black"/>
<path d="M10.304 24.3166H11.6288V25.6281H10.304V24.3166Z" fill="black"/>
<path d="M10.304 22.8593H11.6288V24.1709H10.304V22.8593Z" fill="black"/>
<path d="M11.776 22.8593H13.1008V24.1709H11.776V22.8593Z" fill="black"/>
<path d="M10.304 21.402H11.6288V22.7136H10.304V21.402Z" fill="#FF0000"/>
<path d="M11.776 17.0302H13.1008V18.3417H11.776V17.0302Z" fill="#FF0000"/>
<path d="M10.304 17.0302H11.6288V18.3417H10.304V17.0302Z" fill="#FF0000"/>
<path d="M10.304 18.4874H11.6288V19.799H10.304V18.4874Z" fill="#FF0000"/>
<path d="M8.83212 18.4874H10.1569V19.799H8.83212V18.4874Z" fill="#FF0000"/>
<path d="M8.83212 17.0302H10.1569V18.3417H8.83212V17.0302Z" fill="#FF0000"/>
<path d="M4.4161 21.402H5.74091V22.7136H4.4161V21.402Z" fill="#FF0000"/>
<path d="M2.94393 21.402H4.26874V22.7136H2.94393V21.402Z" fill="#FF0000"/>
<path d="M5.88802 21.402H7.21283V22.7136H5.88802V21.402Z" fill="#FF0000"/>
<path d="M4.4161 19.9448H5.74091V21.2563H4.4161V19.9448Z" fill="#FF0000"/>
<path d="M7.35995 17.0302H8.68475V18.3417H7.35995V17.0302Z" fill="#FF0000"/>
<path d="M5.88802 17.0302H7.21283V18.3417H5.88802V17.0302Z" fill="#FF0000"/>
<path d="M2.94393 19.9448H4.26874V21.2563H2.94393V19.9448Z" fill="#FF0000"/>
<path d="M1.47207 21.402H2.79688V22.7136H1.47207V21.402Z" fill="#FF0000"/>
<path d="M7.35995 21.402H8.68475V22.7136H7.35995V21.402Z" fill="#FF0000"/>
<path d="M8.83212 19.9448H10.1569V21.2563H8.83212V19.9448Z" fill="#FF0000"/>
<path d="M7.35995 19.9448H8.68475V21.2563H7.35995V19.9448Z" fill="black"/>
<path d="M7.35995 18.4874H8.68475V19.799H7.35995V18.4874Z" fill="black"/>
<path d="M5.88802 18.4874H7.21283V19.799H5.88802V18.4874Z" fill="black"/>
<path d="M5.88802 19.9448H7.21283V21.2563H5.88802V19.9448Z" fill="black"/>
<path d="M4.4161 18.4874H5.74091V19.799H4.4161V18.4874Z" fill="#FF0000"/>
<path d="M4.4161 24.3166H5.74091V25.6281H4.4161V24.3166Z" fill="black"/>
<path d="M2.94393 25.7739H4.26874V27.0855H2.94393V25.7739Z" fill="black"/>
<path d="M5.88802 25.7739H7.21283V27.0855H5.88802V25.7739Z" fill="black"/>
<path d="M4.4161 27.2311H5.74091V28.5427H4.4161V27.2311Z" fill="black"/>
<path d="M1.47207 14.1155H2.79688V15.4271H1.47207V14.1155Z" fill="black"/>
<path d="M-7.15256e-06 15.5729H1.3248V16.8844H-7.15256e-06V15.5729Z" fill="black"/>
<path d="M2.94393 15.5729H4.26874V16.8844H2.94393V15.5729Z" fill="black"/>
<path d="M1.47207 17.0302H2.79688V18.3417H1.47207V17.0302Z" fill="black"/>
<path d="M16.1922 15.5729H17.517V16.8844H16.1922V15.5729Z" fill="black"/>
<path d="M16.1922 17.0302H17.517V18.3417H16.1922V17.0302Z" fill="black"/>
<path d="M14.7201 17.0302H16.0449V18.3417H14.7201V17.0302Z" fill="black"/>
<path d="M14.7201 15.5729H16.0449V16.8844H14.7201V15.5729Z" fill="black"/>
<path d="M270.707 6.10352e-05L29.293 6.10352e-05V60.0001H270.707V6.10352e-05Z" fill="#393A3C"/>
<path d="M51.6316 30.08C51.6316 38.4 57.8716 44.64 67.3116 44.64C76.4316 44.64 80.2316 39.76 81.5916 35.32V44H82.2316V29.84H76.5516C76.5516 29.84 77.3916 44.08 67.3116 44.08C61.3116 44.08 57.7116 39.04 57.7116 30.08C57.7116 21.6 60.5116 16.16 67.3116 16.16C71.3916 16.16 77.2316 17.8 78.4316 22.64L79.0716 22.56C78.5516 19.4 74.8316 15.52 67.3116 15.52C57.8716 15.52 51.6316 21.68 51.6316 30.08ZM85.616 34.04C85.616 41.04 91.696 44.64 98.256 44.64C104.776 44.64 110.896 41.04 110.896 34.04C110.896 27 104.776 23.36 98.256 23.36C91.696 23.36 85.616 27 85.616 34.04ZM98.256 24.04C103.256 24.04 105.056 27.12 105.056 34.04C105.056 40.84 103.536 43.96 98.256 43.96C92.816 43.96 91.456 40.84 91.456 34.04C91.456 27.12 93.296 24.04 98.256 24.04ZM114.302 44H119.982C119.982 38.16 121.102 24.08 129.102 24.08C131.462 24.08 132.582 25.52 132.582 26.88C132.582 29.04 130.462 30.32 128.622 30.84L128.862 31.48C130.982 30.88 133.222 29.32 133.222 26.88C133.222 25.2 131.902 23.36 129.102 23.36C123.022 23.36 120.822 30.68 119.982 35.68V24H114.302V44ZM134.21 33.6C134.21 39 137.13 41.84 140.13 43.24L135.17 45.52C136.77 49.32 140.01 52.08 147.09 52.08C154.13 52.08 159.45 48.8 159.45 39.96V24H153.77V34.12C153.57 32.92 153.37 31.72 152.97 30.52C151.29 25.52 149.13 23.32 144.65 23.32C138.89 23.32 134.21 26.92 134.21 33.6ZM140.05 33.6C140.05 26.96 140.29 24.04 144.65 24.04C148.21 24.04 150.93 25.64 152.45 31.12C153.57 35.12 153.69 38.36 153.77 42.32C152.69 42.84 150.37 43.76 147.05 43.76C143.17 43.76 140.05 42.04 140.05 33.6ZM140.53 43.4C142.41 44.16 144.65 44.44 147.05 44.44C150.37 44.44 152.61 43.6 153.73 43.08C153.73 49.04 152.25 51.4 147.09 51.4C142.97 51.4 140.81 46.52 140.53 43.4ZM162.843 34.04C162.843 41.04 168.923 44.64 175.483 44.64C182.003 44.64 188.123 41.04 188.123 34.04C188.123 27 182.003 23.36 175.483 23.36C168.923 23.36 162.843 27 162.843 34.04ZM175.483 24.04C180.483 24.04 182.283 27.12 182.283 34.04C182.283 40.84 180.763 43.96 175.483 43.96C170.043 43.96 168.683 40.84 168.683 34.04C168.683 27.12 170.523 24.04 175.483 24.04ZM190.507 37.68C190.507 43.08 194.267 44.6 200.947 44.6C207.147 44.6 210.547 43 210.547 38.16C210.547 34.96 208.707 33.16 205.587 32.32L209.427 32C209.427 26.92 207.347 23.36 199.707 23.36C194.827 23.36 191.347 25.2 191.347 29C191.347 32.6 193.307 34.52 199.387 35.6C206.107 36.84 208.187 37.4 208.187 39.6C208.187 42.72 206.667 43.96 200.947 43.96C196.547 43.96 195.587 41.76 195.587 36.84L190.507 37.68ZM199.707 24C204.587 24 204.587 27 204.587 32.04C204.587 32 201.547 31.44 199.707 31.12C194.667 30.16 193.347 29.52 193.347 27.52C193.347 25 196.187 24 199.707 24ZM214.302 44H219.982C219.982 38.16 221.102 24.08 229.102 24.08C231.502 24.08 232.502 25.48 232.502 29.84V44H238.222V34.8C238.222 27.12 235.702 23.36 229.102 23.36C222.982 23.36 220.822 30.68 219.982 35.68V14.28H214.302V44ZM242.712 44H248.392V24H242.712V44ZM245.512 19.96C247.312 19.96 248.792 18.52 248.792 16.68C248.792 14.88 247.312 13.44 245.512 13.44C243.712 13.44 242.232 14.88 242.232 16.68C242.232 18.52 243.712 19.96 245.512 19.96Z" fill="#D2D6D9"/>
</svg>
