<svg width="20" height="20" viewBox="0 0 20 20" fill="none" xmlns="http://www.w3.org/2000/svg">
<path d="M10.0008 1.65429C12.3498 -0.627558 15.9797 -0.551821 18.2427 1.90098C20.5046 4.35486 20.5826 8.2629 18.4787 10.812L9.99882 20L1.52098 10.812C-0.582983 8.2629 -0.503984 4.34837 1.75697 1.90098C4.02193 -0.548575 7.64486 -0.630804 10.0008 1.65429ZM16.8267 3.42979C15.3267 1.80469 12.9068 1.73869 11.3368 3.26425L10.0018 4.56044L8.66584 3.26533C7.09087 1.73761 4.67592 1.80469 3.17195 3.43195C1.68197 5.04407 1.60698 7.62455 2.97995 9.32972L9.99982 16.937L17.0197 9.3308C18.3937 7.62455 18.3187 5.04732 16.8267 3.42979Z" fill="black"/>
</svg>
