<svg width="20" height="20" viewBox="0 0 20 20" fill="none" xmlns="http://www.w3.org/2000/svg">
<path d="M0.5 7.71132L0.5 7.71096C0.49994 7.62781 0.519613 7.54495 0.558484 7.46851C0.597398 7.39198 0.654943 7.32316 0.728204 7.26839C0.728216 7.26838 0.728229 7.26837 0.728241 7.26836L9.61709 0.625461L9.61713 0.625433C9.72438 0.545267 9.85908 0.5 10 0.5C10.1409 0.5 10.2756 0.545267 10.3829 0.625433L10.3829 0.625461L19.2718 7.26836C19.2718 7.26837 19.2718 7.26838 19.2718 7.26839C19.3451 7.32316 19.4026 7.39198 19.4415 7.46851C19.4804 7.54495 19.5001 7.62781 19.5 7.71096V7.71132V18.9323C19.5 19.0763 19.4407 19.2186 19.3281 19.3268C19.2149 19.4355 19.0573 19.5 18.8889 19.5H1.11111C0.94274 19.5 0.785083 19.4355 0.671869 19.3268C0.559334 19.2186 0.5 19.0763 0.5 18.9323L0.5 7.71132ZM17.7778 18.3647H18.2778V17.8647V8.23234V7.9818L18.0771 7.83182L10.2993 2.01952L10 1.79585L9.70069 2.01952L1.92292 7.83182L1.72222 7.9818V8.23234V17.8647V18.3647H2.22222H17.7778Z" fill="black" stroke="black"/>
</svg>
