<svg width="262" height="262" viewBox="0 0 262 262" fill="none" xmlns="http://www.w3.org/2000/svg">
<g style="mix-blend-mode:hard-light" opacity="0.7">
<path d="M77.6777 13.1655H65.8285V25.0148H77.6777V13.1655Z" fill="white"/>
<path d="M77.6777 26.3318H65.8285V38.181H77.6777V26.3318Z" fill="white"/>
<path d="M90.8433 26.3318H78.994V38.181H90.8433V26.3318Z" fill="white"/>
<path d="M90.8433 39.498H78.994V51.3473H90.8433V39.498Z" fill="white"/>
<path d="M77.6777 39.498H65.8285V51.3473H77.6777V39.498Z" fill="white"/>
<path d="M117.175 78.9954H105.326V90.8446H117.175V78.9954Z" fill="white"/>
<path d="M117.175 92.1609H105.326V104.01H117.175V92.1609Z" fill="white"/>
<path d="M117.175 65.8298H105.326V77.6791H117.175V65.8298Z" fill="white"/>
<path d="M104.01 78.9954H92.1603V90.8446H104.01V78.9954Z" fill="white"/>
<path d="M77.6777 52.663H65.8285V64.5122H77.6777V52.663Z" fill="white"/>
<path d="M77.6777 65.8298H65.8285V77.6791H77.6777V65.8298Z" fill="white"/>
<path d="M104.01 92.1609H92.1603V104.01H104.01V92.1609Z" fill="white"/>
<path d="M117.175 105.327H105.326V117.176H117.175V105.327Z" fill="white"/>
<path d="M117.175 52.663H105.326V64.5122H117.175V52.663Z" fill="white"/>
<path d="M104.01 39.498H92.1603V51.3473H104.01V39.498Z" fill="white"/>
<path d="M104.01 52.663H92.1603V64.5122H104.01V52.663Z" fill="black"/>
<path d="M90.8433 52.663H78.994V64.5122H90.8433V52.663Z" fill="black"/>
<path d="M90.8433 65.8298H78.994V77.6791H90.8433V65.8298Z" fill="black"/>
<path d="M130.341 26.3318H118.491V38.181H130.341V26.3318Z" fill="black"/>
<path d="M143.508 13.1655H131.658V25.0148H143.508V13.1655Z" fill="black"/>
<path d="M117.175 13.1655H105.326V25.0148H117.175V13.1655Z" fill="black"/>
<path d="M130.341 0H118.491V11.8492H130.341V0Z" fill="black"/>
<path d="M104.01 65.8298H92.1603V77.6791H104.01V65.8298Z" fill="black"/>
<path d="M90.8433 78.9954H78.994V90.8446H90.8433V78.9954Z" fill="white"/>
<path d="M183.005 13.1655H171.156V25.0148H183.005V13.1655Z" fill="white"/>
<path d="M183.005 26.3318H171.156V38.181H183.005V26.3318Z" fill="white"/>
<path d="M169.839 26.3318H157.989V38.181H169.839V26.3318Z" fill="white"/>
<path d="M169.839 39.498H157.989V51.3473H169.839V39.498Z" fill="white"/>
<path d="M183.005 39.498H171.156V51.3473H183.005V39.498Z" fill="white"/>
<path d="M143.508 78.9954H131.658V90.8446H143.508V78.9954Z" fill="white"/>
<path d="M143.508 92.1609H131.658V104.01H143.508V92.1609Z" fill="white"/>
<path d="M143.508 65.8298H131.658V77.6791H143.508V65.8298Z" fill="white"/>
<path d="M156.673 78.9954H144.824V90.8446H156.673V78.9954Z" fill="white"/>
<path d="M183.005 52.663H171.156V64.5122H183.005V52.663Z" fill="white"/>
<path d="M183.005 65.8298H171.156V77.6791H183.005V65.8298Z" fill="white"/>
<path d="M156.673 92.1609H144.824V104.01H156.673V92.1609Z" fill="white"/>
<path d="M143.508 105.327H131.658V117.176H143.508V105.327Z" fill="white"/>
<path d="M143.508 52.663H131.658V64.5122H143.508V52.663Z" fill="white"/>
<path d="M156.673 39.498H144.824V51.3473H156.673V39.498Z" fill="white"/>
<path d="M156.673 52.663H144.824V64.5122H156.673V52.663Z" fill="black"/>
<path d="M169.839 52.663H157.989V64.5122H169.839V52.663Z" fill="black"/>
<path d="M169.839 65.8298H157.989V77.6791H169.839V65.8298Z" fill="black"/>
<path d="M156.673 65.8298H144.824V77.6791H156.673V65.8298Z" fill="black"/>
<path d="M169.839 78.9954H157.989V90.8446H169.839V78.9954Z" fill="white"/>
<path d="M104.01 157.989H92.1603V169.839H104.01V157.989Z" fill="white"/>
<path d="M77.6777 184.322H65.8285V196.171H77.6777V184.322Z" fill="white"/>
<path d="M64.5122 197.487H52.663V209.337H64.5122V197.487Z" fill="white"/>
<path d="M90.8433 171.156H78.994V183.005H90.8433V171.156Z" fill="white"/>
<path d="M51.3465 210.653H39.4973V222.502H51.3465V210.653Z" fill="white"/>
<path d="M25.0148 236.985H13.1655V248.834H25.0148V236.985Z" fill="white"/>
<path d="M11.8492 250.15H0V262H11.8492V250.15Z" fill="white"/>
<path d="M38.1803 223.819H26.3311V235.668H38.1803V223.819Z" fill="white"/>
<path d="M156.673 118.493H144.824V130.342H156.673V118.493Z" fill="white"/>
<path d="M169.839 118.493H157.989V130.342H169.839V118.493Z" fill="white"/>
<path d="M169.839 105.327H157.989V117.176H169.839V105.327Z" fill="white"/>
<path d="M183.005 105.327H171.156V117.176H183.005V105.327Z" fill="white"/>
<path d="M183.005 118.493H171.156V130.342H183.005V118.493Z" fill="white"/>
<path d="M222.502 78.9954H210.652V90.8446H222.502V78.9954Z" fill="white"/>
<path d="M235.668 78.9954H223.819V90.8446H235.668V78.9954Z" fill="white"/>
<path d="M209.336 78.9954H197.487V90.8446H209.336V78.9954Z" fill="white"/>
<path d="M222.502 92.1609H210.652V104.01H222.502V92.1609Z" fill="white"/>
<path d="M196.17 118.493H184.321V130.342H196.17V118.493Z" fill="white"/>
<path d="M209.336 118.493H197.487V130.342H209.336V118.493Z" fill="white"/>
<path d="M235.668 92.1609H223.819V104.01H235.668V92.1609Z" fill="white"/>
<path d="M248.833 78.9954H236.984V90.8446H248.833V78.9954Z" fill="white"/>
<path d="M196.17 78.9954H184.321V90.8446H196.17V78.9954Z" fill="white"/>
<path d="M183.005 92.1609H171.156V104.01H183.005V92.1609Z" fill="white"/>
<path d="M196.17 92.1609H184.321V104.01H196.17V92.1609Z" fill="black"/>
<path d="M196.17 105.327H184.321V117.176H196.17V105.327Z" fill="black"/>
<path d="M209.336 105.327H197.487V117.176H209.336V105.327Z" fill="black"/>
<path d="M209.336 92.1609H197.487V104.01H209.336V92.1609Z" fill="black"/>
<path d="M222.502 105.327H210.652V117.176H222.502V105.327Z" fill="white"/>
<path d="M104.01 118.493H92.1603V130.342H104.01V118.493Z" fill="white"/>
<path d="M90.8433 118.493H78.994V130.342H90.8433V118.493Z" fill="white"/>
<path d="M90.8433 105.327H78.994V117.176H90.8433V105.327Z" fill="white"/>
<path d="M77.6777 105.327H65.8285V117.176H77.6777V105.327Z" fill="white"/>
<path d="M77.6777 118.493H65.8285V130.342H77.6777V118.493Z" fill="white"/>
<path d="M38.1803 78.9954H26.3311V90.8446H38.1803V78.9954Z" fill="white"/>
<path d="M25.0148 78.9954H13.1655V90.8446H25.0148V78.9954Z" fill="white"/>
<path d="M51.3465 78.9954H39.4973V90.8446H51.3465V78.9954Z" fill="white"/>
<path d="M38.1803 92.1609H26.3311V104.01H38.1803V92.1609Z" fill="white"/>
<path d="M64.5122 118.493H52.663V130.342H64.5122V118.493Z" fill="white"/>
<path d="M51.3465 118.493H39.4973V130.342H51.3465V118.493Z" fill="white"/>
<path d="M25.0148 92.1609H13.1655V104.01H25.0148V92.1609Z" fill="white"/>
<path d="M11.8492 78.9954H0V90.8446H11.8492V78.9954Z" fill="white"/>
<path d="M64.5122 78.9954H52.663V90.8446H64.5122V78.9954Z" fill="white"/>
<path d="M77.6777 92.1609H65.8285V104.01H77.6777V92.1609Z" fill="white"/>
<path d="M64.5122 92.1609H52.663V104.01H64.5122V92.1609Z" fill="black"/>
<path d="M64.5122 105.327H52.663V117.176H64.5122V105.327Z" fill="black"/>
<path d="M51.3465 105.327H39.4973V117.176H51.3465V105.327Z" fill="black"/>
<path d="M51.3465 92.1609H39.4973V104.01H51.3465V92.1609Z" fill="black"/>
<path d="M38.1803 105.327H26.3311V117.176H38.1803V105.327Z" fill="white"/>
<path d="M222.502 52.663H210.652V64.5122H222.502V52.663Z" fill="black"/>
<path d="M235.668 39.498H223.819V51.3473H235.668V39.498Z" fill="black"/>
<path d="M209.336 39.498H197.487V51.3473H209.336V39.498Z" fill="black"/>
<path d="M222.502 26.3318H210.652V38.181H222.502V26.3318Z" fill="black"/>
<path d="M38.1803 52.663H26.3311V64.5122H38.1803V52.663Z" fill="black"/>
<path d="M51.3465 39.498H39.4973V51.3473H51.3465V39.498Z" fill="black"/>
<path d="M25.0148 39.498H13.1655V51.3473H25.0148V39.498Z" fill="black"/>
<path d="M38.1803 26.3318H26.3311V38.181H38.1803V26.3318Z" fill="black"/>
<path d="M183.005 250.15H171.156V262H183.005V250.15Z" fill="white"/>
<path d="M183.005 236.985H171.156V248.834H183.005V236.985Z" fill="white"/>
<path d="M169.839 236.985H157.989V248.834H169.839V236.985Z" fill="white"/>
<path d="M169.839 223.819H157.989V235.668H169.839V223.819Z" fill="white"/>
<path d="M183.005 223.819H171.156V235.668H183.005V223.819Z" fill="white"/>
<path d="M143.508 184.322H131.658V196.171H143.508V184.322Z" fill="white"/>
<path d="M143.508 171.156H131.658V183.005H143.508V171.156Z" fill="white"/>
<path d="M143.508 197.487H131.658V209.337H143.508V197.487Z" fill="white"/>
<path d="M156.673 184.322H144.824V196.171H156.673V184.322Z" fill="white"/>
<path d="M183.005 210.653H171.156V222.502H183.005V210.653Z" fill="white"/>
<path d="M183.005 197.487H171.156V209.337H183.005V197.487Z" fill="white"/>
<path d="M156.673 171.156H144.824V183.005H156.673V171.156Z" fill="white"/>
<path d="M143.508 157.989H131.658V169.839H143.508V157.989Z" fill="white"/>
<path d="M143.508 210.653H131.658V222.502H143.508V210.653Z" fill="white"/>
<path d="M156.673 223.819H144.824V235.668H156.673V223.819Z" fill="white"/>
<path d="M156.673 210.653H144.824V222.502H156.673V210.653Z" fill="black"/>
<path d="M169.839 210.653H157.989V222.502H169.839V210.653Z" fill="black"/>
<path d="M169.839 197.487H157.989V209.337H169.839V197.487Z" fill="black"/>
<path d="M156.673 197.487H144.824V209.337H156.673V197.487Z" fill="black"/>
<path d="M169.839 184.322H157.989V196.171H169.839V184.322Z" fill="white"/>
<path d="M156.673 144.824H144.824V156.673H156.673V144.824Z" fill="white"/>
<path d="M169.839 144.824H157.989V156.673H169.839V144.824Z" fill="white"/>
<path d="M169.839 157.989H157.989V169.839H169.839V157.989Z" fill="white"/>
<path d="M183.005 157.989H171.156V169.839H183.005V157.989Z" fill="white"/>
<path d="M183.005 144.824H171.156V156.673H183.005V144.824Z" fill="white"/>
<path d="M222.502 184.322H210.652V196.171H222.502V184.322Z" fill="white"/>
<path d="M235.668 184.322H223.819V196.171H235.668V184.322Z" fill="white"/>
<path d="M209.336 184.322H197.487V196.171H209.336V184.322Z" fill="white"/>
<path d="M222.502 171.156H210.652V183.005H222.502V171.156Z" fill="white"/>
<path d="M196.17 144.824H184.321V156.673H196.17V144.824Z" fill="white"/>
<path d="M209.336 144.824H197.487V156.673H209.336V144.824Z" fill="white"/>
<path d="M235.668 171.156H223.819V183.005H235.668V171.156Z" fill="white"/>
<path d="M248.833 184.322H236.984V196.171H248.833V184.322Z" fill="white"/>
<path d="M196.17 184.322H184.321V196.171H196.17V184.322Z" fill="white"/>
<path d="M183.005 171.156H171.156V183.005H183.005V171.156Z" fill="white"/>
<path d="M196.17 171.156H184.321V183.005H196.17V171.156Z" fill="black"/>
<path d="M196.17 157.989H184.321V169.839H196.17V157.989Z" fill="black"/>
<path d="M209.336 157.989H197.487V169.839H209.336V157.989Z" fill="black"/>
<path d="M209.336 171.156H197.487V183.005H209.336V171.156Z" fill="black"/>
<path d="M222.502 157.989H210.652V169.839H222.502V157.989Z" fill="white"/>
<path d="M222.502 210.653H210.652V222.502H222.502V210.653Z" fill="black"/>
<path d="M235.668 223.819H223.819V235.668H235.668V223.819Z" fill="black"/>
<path d="M209.336 223.819H197.487V235.668H209.336V223.819Z" fill="black"/>
<path d="M222.502 236.985H210.652V248.834H222.502V236.985Z" fill="black"/>
<path d="M248.833 118.493H236.984V130.342H248.833V118.493Z" fill="black"/>
<path d="M262 131.658H250.151V143.508H262V131.658Z" fill="black"/>
<path d="M235.668 131.658H223.819V143.508H235.668V131.658Z" fill="black"/>
<path d="M248.833 144.824H236.984V156.673H248.833V144.824Z" fill="black"/>
<path d="M117.175 131.658H105.326V143.508H117.175V131.658Z" fill="black"/>
<path d="M117.175 144.824H105.326V156.673H117.175V144.824Z" fill="black"/>
<path d="M130.341 144.824H118.491V156.673H130.341V144.824Z" fill="black"/>
<path d="M130.341 131.658H118.491V143.508H130.341V131.658Z" fill="black"/>
</g>
</svg>
