<svg width="162" height="162" viewBox="0 0 162 162" fill="none" xmlns="http://www.w3.org/2000/svg">
<path d="M100.599 128.466L94.4814 134.583L88.3641 128.466L94.4814 122.349L100.599 128.466Z" fill="#BC949B"/>
<path d="M93.8029 121.669L87.6855 127.786L81.5682 121.669L87.6855 115.552L93.8029 121.669Z" fill="#BC949B"/>
<path d="M87.0043 114.872L80.887 120.989L74.7696 114.872L80.887 108.755L87.0043 114.872Z" fill="#BC949B"/>
<path d="M80.2083 121.669L74.0909 127.786L67.9736 121.669L74.0909 115.552L80.2083 121.669Z" fill="#BC949B"/>
<path d="M73.4122 128.466L67.2948 134.583L61.1774 128.466L67.2948 122.349L73.4122 128.466Z" fill="#BC949B"/>
<path d="M66.6138 135.263L60.4965 141.381L54.3791 135.263L60.4965 129.146L66.6138 135.263Z" fill="#BC949B"/>
<path d="M80.2083 108.075L74.0909 114.192L67.9736 108.075L74.0909 101.957L80.2083 108.075Z" fill="#BC949B"/>
<path d="M73.4122 114.872L67.2948 120.989L61.1774 114.872L67.2948 108.755L73.4122 114.872Z" fill="#BC949B"/>
<path d="M66.6138 121.669L60.4965 127.786L54.3791 121.669L60.4965 115.552L66.6138 121.669Z" fill="#BC949B"/>
<path d="M59.8178 128.466L53.7004 134.583L47.5831 128.466L53.7004 122.349L59.8178 128.466Z" fill="#BC949B"/>
<path d="M73.4122 101.277L67.2948 107.395L61.1774 101.277L67.2948 95.1598L73.4122 101.277Z" fill="#BC949B"/>
<path d="M66.6138 108.075L60.4965 114.192L54.3791 108.075L60.4965 101.957L66.6138 108.075Z" fill="#BC949B"/>
<path d="M59.8178 114.872L53.7004 120.989L47.5831 114.872L53.7004 108.755L59.8178 114.872Z" fill="#BC949B"/>
<path d="M53.0178 121.669L46.9004 127.786L40.783 121.669L46.9004 115.552L53.0178 121.669Z" fill="#BC949B"/>
<path d="M59.8178 87.6834L53.7004 93.8008L47.5831 87.6834L53.7004 81.566L59.8178 87.6834Z" fill="#BC949B"/>
<path d="M66.6138 80.8865L60.4965 87.0039L54.3791 80.8865L60.4965 74.7692L66.6138 80.8865Z" fill="#BC949B"/>
<path d="M53.0178 94.48L46.9004 100.597L40.783 94.48L46.9004 88.3627L53.0178 94.48Z" fill="#BC949B"/>
<path d="M46.2214 101.277L40.104 107.395L33.9866 101.277L40.104 95.1598L46.2214 101.277Z" fill="#BC949B"/>
<path d="M39.4229 108.075L33.3055 114.192L27.1882 108.075L33.3055 101.957L39.4229 108.075Z" fill="#BC949B"/>
<path d="M66.6138 94.4808L60.4965 100.598L54.3791 94.4808L60.4965 88.3634L66.6138 94.4808Z" fill="#BC949B"/>
<path d="M59.8178 101.277L53.7004 107.395L47.5831 101.277L53.7004 95.1598L59.8178 101.277Z" fill="#BC949B"/>
<path d="M53.0178 108.075L46.9004 114.192L40.783 108.075L46.9004 101.957L53.0178 108.075Z" fill="#BC949B"/>
<path d="M46.2214 114.872L40.104 120.989L33.9866 114.872L40.104 108.754L46.2214 114.872Z" fill="#BC949B"/>
<path d="M53.0178 80.8865L46.9004 87.0039L40.783 80.8865L46.9004 74.7692L53.0178 80.8865Z" fill="#BC949B"/>
<path d="M46.2214 87.6834L40.104 93.8008L33.9866 87.6834L40.104 81.566L46.2214 87.6834Z" fill="#BC949B"/>
<path d="M39.4229 94.48L33.3055 100.597L27.1882 94.48L33.3055 88.3627L39.4229 94.48Z" fill="#BC949B"/>
<path d="M32.6273 101.277L26.5099 107.395L20.3925 101.277L26.5099 95.1598L32.6273 101.277Z" fill="#BC949B"/>
<path d="M46.2214 74.0889L40.104 80.2063L33.9866 74.0889L40.104 67.9716L46.2214 74.0889Z" fill="#BC949B"/>
<path d="M39.4229 80.8865L33.3055 87.0039L27.1882 80.8865L33.3055 74.7692L39.4229 80.8865Z" fill="#BC949B"/>
<path d="M32.6273 87.6834L26.5099 93.8008L20.3925 87.6834L26.5099 81.566L32.6273 87.6834Z" fill="#BC949B"/>
<path d="M25.8311 94.48L19.7137 100.597L13.5964 94.48L19.7137 88.3627L25.8311 94.48Z" fill="#BC949B"/>
<path d="M39.4229 67.292L33.3055 73.4094L27.1882 67.292L33.3055 61.1747L39.4229 67.292Z" fill="#BC949B"/>
<path d="M32.6273 74.0889L26.5099 80.2063L20.3925 74.0889L26.5099 67.9716L32.6273 74.0889Z" fill="#BC949B"/>
<path d="M25.8311 80.8865L19.7137 87.0039L13.5964 80.8865L19.7137 74.7692L25.8311 80.8865Z" fill="#BC949B"/>
<path d="M19.0324 87.6834L12.915 93.8008L6.79766 87.6834L12.915 81.566L19.0324 87.6834Z" fill="#BC949B"/>
<path d="M32.6273 60.4947L26.5099 66.6121L20.3925 60.4947L26.5099 54.3773L32.6273 60.4947Z" fill="#BC949B"/>
<path d="M25.8311 67.2925L19.7137 73.4099L13.5964 67.2925L19.7137 61.1752L25.8311 67.2925Z" fill="#BC949B"/>
<path d="M19.0324 74.0889L12.915 80.2063L6.79766 74.0889L12.915 67.9716L19.0324 74.0889Z" fill="#BC949B"/>
<path d="M12.2368 80.8865L6.11938 87.0039L0.00201055 80.8865L6.11938 74.7692L12.2368 80.8865Z" fill="#BC949B"/>
<path d="M59.8178 33.3072L53.7004 39.4246L47.5831 33.3072L53.7004 27.1898L59.8178 33.3072Z" fill="#BC949B"/>
<path d="M53.0178 40.1038L46.9004 46.2212L40.783 40.1038L46.9004 33.9864L53.0178 40.1038Z" fill="#BC949B"/>
<path d="M46.2214 46.9014L40.104 53.0188L33.9866 46.9014L40.104 40.7841L46.2214 46.9014Z" fill="#BC949B"/>
<path d="M39.4229 53.6983L33.3055 59.8157L27.1882 53.6983L33.3055 47.5809L39.4229 53.6983Z" fill="#BC949B"/>
<path d="M66.6138 40.1038L60.4965 46.2212L54.3791 40.1038L60.4965 33.9864L66.6138 40.1038Z" fill="#BC949B"/>
<path d="M59.8178 46.9014L53.7004 53.0188L47.5831 46.9014L53.7004 40.7841L59.8178 46.9014Z" fill="#BC949B"/>
<path d="M53.0178 53.6976L46.9004 59.8149L40.783 53.6976L46.9004 47.5802L53.0178 53.6976Z" fill="#BC949B"/>
<path d="M46.2214 60.4954L40.104 66.6128L33.9866 60.4954L40.104 54.378L46.2214 60.4954Z" fill="#BC949B"/>
<path d="M80.2083 53.6983L74.0909 59.8157L67.9736 53.6983L74.0909 47.5809L80.2083 53.6983Z" fill="#BC949B"/>
<path d="M86.3261 73.4097L80.2087 79.5271L74.0914 73.4097L80.2087 67.2924L86.3261 73.4097Z" fill="#A59490"/>
<path d="M86.3261 87.0042L80.2087 93.1216L74.0914 87.0042L80.2087 80.8868L86.3261 87.0042Z" fill="#A59490"/>
<path d="M93.1246 80.2068L87.0072 86.3242L80.8898 80.2068L87.0072 74.0895L93.1246 80.2068Z" fill="#A59490"/>
<path d="M106.717 80.2068L100.599 86.3242L94.4819 80.2068L100.599 74.0895L106.717 80.2068Z" fill="white"/>
<path d="M79.53 80.2068L73.4126 86.3242L67.2952 80.2068L73.4126 74.0895L79.53 80.2068Z" fill="#A59490"/>
<path d="M66.6138 26.5101L60.4965 32.6274L54.3791 26.5101L60.4965 20.3927L66.6138 26.5101Z" fill="#BC949B"/>
<path d="M73.4122 33.3072L67.2948 39.4246L61.1774 33.3072L67.2948 27.1898L73.4122 33.3072Z" fill="#BC949B"/>
<path d="M80.2083 40.1038L74.0909 46.2212L67.9736 40.1038L74.0909 33.9864L80.2083 40.1038Z" fill="#BC949B"/>
<path d="M87.0043 46.9014L80.887 53.0188L74.7696 46.9014L80.887 40.7841L87.0043 46.9014Z" fill="#BC949B"/>
<path d="M93.8029 40.1038L87.6855 46.2212L81.5682 40.1038L87.6855 33.9864L93.8029 40.1038Z" fill="#BC949B"/>
<path d="M100.599 33.3072L94.4814 39.4246L88.3641 33.3072L94.4814 27.1898L100.599 33.3072Z" fill="#BC949B"/>
<path d="M87.0043 33.3072L80.887 39.4246L74.7696 33.3072L80.887 27.1898L87.0043 33.3072Z" fill="#BC949B"/>
<path d="M73.4122 60.4954L67.2948 66.6128L61.1774 60.4954L67.2948 54.378L73.4122 60.4954Z" fill="#BC949B"/>
<path d="M66.6138 67.292L60.4965 73.4094L54.3791 67.292L60.4965 61.1747L66.6138 67.292Z" fill="#BC949B"/>
<path d="M59.8178 74.0889L53.7004 80.2063L47.5831 74.0889L53.7004 67.9716L59.8178 74.0889Z" fill="#BC949B"/>
<path d="M73.4122 46.9014L67.2948 53.0188L61.1774 46.9014L67.2948 40.7841L73.4122 46.9014Z" fill="#BC949B"/>
<path d="M66.6138 53.6983L60.4965 59.8157L54.3791 53.6983L60.4965 47.5809L66.6138 53.6983Z" fill="#BC949B"/>
<path d="M59.8178 60.4947L53.7004 66.6121L47.5831 60.4947L53.7004 54.3773L59.8178 60.4947Z" fill="#BC949B"/>
<path d="M53.0178 67.2925L46.9004 73.4099L40.783 67.2925L46.9004 61.1752L53.0178 67.2925Z" fill="#BC949B"/>
<path d="M87.0043 128.466L80.887 134.583L74.7696 128.466L80.887 122.349L87.0043 128.466Z" fill="#BC949B"/>
<path d="M80.2083 135.263L74.0909 141.381L67.9736 135.263L74.0909 129.146L80.2083 135.263Z" fill="#BC949B"/>
<path d="M80.2083 26.5101L74.0909 32.6274L67.9736 26.5101L74.0909 20.3927L80.2083 26.5101Z" fill="#BC949B"/>
<path d="M93.8029 26.5101L87.6855 32.6274L81.5682 26.5101L87.6855 20.3927L93.8029 26.5101Z" fill="#BC949B"/>
<path d="M107.397 26.5101L101.28 32.6274L95.1625 26.5101L101.28 20.3927L107.397 26.5101Z" fill="#BC949B"/>
<path d="M93.8029 135.263L87.6855 141.381L81.5682 135.263L87.6855 129.146L93.8029 135.263Z" fill="#BC949B"/>
<path d="M107.397 135.263L101.28 141.381L95.1625 135.263L101.28 129.146L107.397 135.263Z" fill="#BC949B"/>
</svg>
