<svg width="161" height="161" viewBox="0 0 161 161" fill="none" xmlns="http://www.w3.org/2000/svg">
<path d="M119.311 5.21329H114.625V9.89845H119.311V5.21329Z" fill="#A60321"/>
<path d="M119.311 10.4181H114.625V15.1033H119.311V10.4181Z" fill="#A60321"/>
<path d="M119.311 15.6314H114.625V20.3166H119.311V15.6314Z" fill="#A60321"/>
<path d="M114.105 15.6314H109.42V20.3166H114.105V15.6314Z" fill="#A60321"/>
<path d="M108.892 15.6314H104.207V20.3166H108.892V15.6314Z" fill="#A60321"/>
<path d="M103.679 15.6314H98.9937V20.3166H103.679V15.6314Z" fill="#A60321"/>
<path d="M119.311 20.8447H114.625V25.5299H119.311V20.8447Z" fill="#A60321"/>
<path d="M114.105 20.8447H109.42V25.5299H114.105V20.8447Z" fill="#A60321"/>
<path d="M108.892 20.8447H104.207V25.5299H108.892V20.8447Z" fill="#A60321"/>
<path d="M103.679 20.8447H98.9937V25.5299H103.679V20.8447Z" fill="#A60321"/>
<path d="M119.311 26.0495H114.625V30.7347H119.311V26.0495Z" fill="#A60321"/>
<path d="M114.105 26.0495H109.42V30.7347H114.105V26.0495Z" fill="#A60321"/>
<path d="M108.892 26.0495H104.207V30.7347H108.892V26.0495Z" fill="#A60321"/>
<path d="M103.679 26.0495H98.9937V30.7347H103.679V26.0495Z" fill="#A60321"/>
<path d="M119.311 36.4761H114.625V41.1613H119.311V36.4761Z" fill="#A60321"/>
<path d="M124.524 36.4761H119.839V41.1613H124.524V36.4761Z" fill="#A60321"/>
<path d="M114.105 36.4761H109.42V41.1613H114.105V36.4761Z" fill="#A60321"/>
<path d="M108.892 36.4761H104.207V41.1613H108.892V36.4761Z" fill="#A60321"/>
<path d="M103.679 36.4761H98.9937V41.1613H103.679V36.4761Z" fill="#A60321"/>
<path d="M119.311 31.2628H114.625V35.948H119.311V31.2628Z" fill="#A60321"/>
<path d="M114.105 31.2628H109.42V35.948H114.105V31.2628Z" fill="#A60321"/>
<path d="M108.892 31.2628H104.207V35.948H108.892V31.2628Z" fill="#A60321"/>
<path d="M103.679 31.2628H98.9937V35.948H103.679V31.2628Z" fill="#A60321"/>
<path d="M119.311 41.681H114.625V46.3661H119.311V41.681Z" fill="#A60321"/>
<path d="M114.105 41.681H109.42V46.3661H114.105V41.681Z" fill="#A60321"/>
<path d="M108.892 41.681H104.207V46.3661H108.892V41.681Z" fill="#A60321"/>
<path d="M103.679 41.681H98.9937V46.3661H103.679V41.681Z" fill="#A60321"/>
<path d="M119.311 46.8943H114.625V51.5794H119.311V46.8943Z" fill="#A60321"/>
<path d="M114.105 46.8943H109.42V51.5794H114.105V46.8943Z" fill="#A60321"/>
<path d="M108.892 46.8943H104.207V51.5794H108.892V46.8943Z" fill="#A60321"/>
<path d="M103.679 46.8943H98.9937V51.5794H103.679V46.8943Z" fill="#A60321"/>
<path d="M119.311 52.1075H114.625V56.7927H119.311V52.1075Z" fill="#A60321"/>
<path d="M114.105 52.1075H109.42V56.7927H114.105V52.1075Z" fill="#A60321"/>
<path d="M108.892 52.1075H104.207V56.7927H108.892V52.1075Z" fill="#A60321"/>
<path d="M103.679 52.1075H98.9937V56.7927H103.679V52.1075Z" fill="#A60321"/>
<path d="M119.311 57.3124H114.625V61.9975H119.311V57.3124Z" fill="#A60321"/>
<path d="M114.105 57.3124H109.42V61.9975H114.105V57.3124Z" fill="#A60321"/>
<path d="M108.892 57.3124H104.207V61.9975H108.892V57.3124Z" fill="#A60321"/>
<path d="M103.679 57.3124H98.9937V61.9975H103.679V57.3124Z" fill="#A60321"/>
<path d="M140.155 57.3124H135.47V61.9975H140.155V57.3124Z" fill="#A60321"/>
<path d="M134.942 57.3124H130.257V61.9975H134.942V57.3124Z" fill="#A60321"/>
<path d="M129.737 57.3124H125.052V61.9975H129.737V57.3124Z" fill="#A60321"/>
<path d="M124.524 57.3124H119.839V61.9975H124.524V57.3124Z" fill="#A60321"/>
<path d="M140.155 52.1075H135.47V56.7927H140.155V52.1075Z" fill="#A60321"/>
<path d="M134.942 52.1075H130.257V56.7927H134.942V52.1075Z" fill="#A60321"/>
<path d="M129.737 52.1075H125.052V56.7927H129.737V52.1075Z" fill="#A60321"/>
<path d="M124.524 52.1075H119.839V56.7927H124.524V52.1075Z" fill="#A60321"/>
<path d="M140.155 41.681H135.47V46.3661H140.155V41.681Z" fill="#A60321"/>
<path d="M134.942 31.7824H130.257V36.4676H134.942V31.7824Z" fill="black"/>
<path d="M129.737 26.5691H125.052V31.2543H129.737V26.5691Z" fill="black"/>
<path d="M134.942 26.5691H130.257V31.2543H134.942V26.5691Z" fill="black"/>
<path d="M140.155 21.3644H135.47V26.0496H140.155V21.3644Z" fill="black"/>
<path d="M129.737 31.7824H125.052V36.4676H129.737V31.7824Z" fill="black"/>
<path d="M145.369 57.3124H140.684V61.9975H145.369V57.3124Z" fill="#A60321"/>
<path d="M145.369 52.1075H140.684V56.7927H145.369V52.1075Z" fill="#A60321"/>
<path d="M145.369 46.8943H140.684V51.5794H145.369V46.8943Z" fill="#A60321"/>
<path d="M145.369 41.681H140.684V46.3661H145.369V41.681Z" fill="#A60321"/>
<path d="M150.574 41.681H145.889V46.3661H150.574V41.681Z" fill="#A60321"/>
<path d="M155.787 41.681H151.102V46.3661H155.787V41.681Z" fill="#A60321"/>
<path d="M150.574 46.8943H145.889V51.5794H150.574V46.8943Z" fill="#A60321"/>
<path d="M134.942 41.681H130.257V46.3661H134.942V41.681Z" fill="#A60321"/>
<path d="M129.737 41.681H125.052V46.3661H129.737V41.681Z" fill="#A60321"/>
<path d="M124.524 41.681H119.839V46.3661H124.524V41.681Z" fill="#A60321"/>
<path d="M140.155 46.8943H135.47V51.5794H140.155V46.8943Z" fill="#A60321"/>
<path d="M134.942 46.8943H130.257V51.5794H134.942V46.8943Z" fill="#A60321"/>
<path d="M129.737 46.8943H125.052V51.5794H129.737V46.8943Z" fill="#A60321"/>
<path d="M124.524 46.8943H119.839V51.5794H124.524V46.8943Z" fill="#A60321"/>
<path d="M114.105 10.4181H109.42V15.1033H114.105V10.4181Z" fill="#A60321"/>
<path d="M108.892 10.4181H104.207V15.1033H108.892V10.4181Z" fill="#A60321"/>
<path d="M150.574 52.1075H145.889V56.7927H150.574V52.1075Z" fill="#A60321"/>
<path d="M155.787 46.8943H151.102V51.5794H155.787V46.8943Z" fill="#A60321"/>
<path d="M161 41.681H156.314V46.3661H161V41.681Z" fill="#A60321"/>
<path d="M114.105 5.21329H109.42V9.89845H114.105V5.21329Z" fill="#A60321"/>
<path d="M119.311 0H114.625V4.68517H119.311V0Z" fill="#A60321"/>
<path d="M129.737 72.9439H125.052V77.629H129.737V72.9439Z" fill="#FF0000"/>
<path d="M134.942 72.9439H130.257V77.629H134.942V72.9439Z" fill="#FF0000"/>
<path d="M129.737 78.1572H125.052V82.8423H129.737V78.1572Z" fill="#FF0000"/>
<path d="M134.942 78.1572H130.257V82.8423H134.942V78.1572Z" fill="#FF0000"/>
<path d="M145.369 78.1572H140.684V82.8423H145.369V78.1572Z" fill="#FF0000"/>
<path d="M145.369 72.9439H140.684V77.629H145.369V72.9439Z" fill="black"/>
<path d="M145.369 83.362H140.684V88.0471H145.369V83.362Z" fill="black"/>
<path d="M124.524 83.362H119.839V88.0471H124.524V83.362Z" fill="black"/>
<path d="M124.524 72.9439H119.839V77.629H124.524V72.9439Z" fill="black"/>
<path d="M114.105 72.9439H109.42V77.629H114.105V72.9439Z" fill="black"/>
<path d="M114.105 78.1572H109.42V82.8423H114.105V78.1572Z" fill="black"/>
<path d="M114.105 83.362H109.42V88.0471H114.105V83.362Z" fill="black"/>
<path d="M155.787 72.9439H151.102V77.629H155.787V72.9439Z" fill="black"/>
<path d="M155.787 78.1572H151.102V82.8423H155.787V78.1572Z" fill="black"/>
<path d="M161 78.1572H156.314V82.8423H161V78.1572Z" fill="black"/>
<path d="M155.787 83.362H151.102V88.0471H155.787V83.362Z" fill="black"/>
<path d="M108.892 78.1572H104.207V82.8423H108.892V78.1572Z" fill="black"/>
<path d="M124.524 78.1572H119.839V82.8423H124.524V78.1572Z" fill="#FF0000"/>
<path d="M129.737 83.362H125.052V88.0471H129.737V83.362Z" fill="#FF0000"/>
<path d="M134.942 83.362H130.257V88.0471H134.942V83.362Z" fill="#FF0000"/>
<path d="M140.155 72.9439H135.47V77.629H140.155V72.9439Z" fill="#FF0000"/>
<path d="M140.155 78.1572H135.47V82.8423H140.155V78.1572Z" fill="#FF0000"/>
<path d="M129.737 67.7306H125.052V72.4157H129.737V67.7306Z" fill="black"/>
<path d="M134.942 67.7306H130.257V72.4157H134.942V67.7306Z" fill="black"/>
<path d="M145.369 67.7306H140.684V72.4157H145.369V67.7306Z" fill="black"/>
<path d="M124.524 67.7306H119.839V72.4157H124.524V67.7306Z" fill="black"/>
<path d="M140.155 67.7306H135.47V72.4157H140.155V67.7306Z" fill="black"/>
<path d="M129.737 62.5257H125.052V67.2109H129.737V62.5257Z" fill="black"/>
<path d="M134.942 62.5257H130.257V67.2109H134.942V62.5257Z" fill="black"/>
<path d="M145.369 62.5257H140.684V67.2109H145.369V62.5257Z" fill="black"/>
<path d="M124.524 62.5257H119.839V67.2109H124.524V62.5257Z" fill="black"/>
<path d="M140.155 62.5257H135.47V67.2109H140.155V62.5257Z" fill="black"/>
<path d="M129.737 93.7886H125.052V98.4738H129.737V93.7886Z" fill="black"/>
<path d="M134.942 93.7886H130.257V98.4738H134.942V93.7886Z" fill="black"/>
<path d="M145.369 93.7886H140.684V98.4738H145.369V93.7886Z" fill="black"/>
<path d="M124.524 93.7886H119.839V98.4738H124.524V93.7886Z" fill="black"/>
<path d="M140.155 93.7886H135.47V98.4738H140.155V93.7886Z" fill="black"/>
<path d="M129.737 88.5753H125.052V93.2605H129.737V88.5753Z" fill="black"/>
<path d="M119.311 72.9439H114.625V77.629H119.311V72.9439Z" fill="black"/>
<path d="M119.311 78.1572H114.625V82.8423H119.311V78.1572Z" fill="black"/>
<path d="M119.311 83.362H114.625V88.0471H119.311V83.362Z" fill="black"/>
<path d="M119.311 67.7306H114.625V72.4157H119.311V67.7306Z" fill="black"/>
<path d="M119.311 88.5753H114.625V93.2605H119.311V88.5753Z" fill="black"/>
<path d="M150.572 72.9439H145.887V77.629H150.572V72.9439Z" fill="black"/>
<path d="M150.572 78.1572H145.887V82.8423H150.572V78.1572Z" fill="black"/>
<path d="M150.572 83.362H145.887V88.0471H150.572V83.362Z" fill="black"/>
<path d="M150.572 67.7306H145.887V72.4157H150.572V67.7306Z" fill="black"/>
<path d="M150.572 88.5753H145.887V93.2605H150.572V88.5753Z" fill="black"/>
<path d="M134.942 88.5753H130.257V93.2605H134.942V88.5753Z" fill="black"/>
<path d="M145.369 88.5753H140.684V93.2605H145.369V88.5753Z" fill="black"/>
<path d="M124.524 88.5753H119.839V93.2605H124.524V88.5753Z" fill="black"/>
<path d="M140.155 88.5753H135.47V93.2605H140.155V88.5753Z" fill="black"/>
<path d="M140.155 83.362H135.47V88.0471H140.155V83.362Z" fill="#FF0000"/>
<path d="M82.8419 62.5257H78.1567V67.2109H82.8419V62.5257Z" fill="#FF0000"/>
<path d="M82.8419 67.7306H78.1567V72.4157H82.8419V67.7306Z" fill="#FF0000"/>
<path d="M93.2604 67.7306H88.5752V72.4157H93.2604V67.7306Z" fill="#FF0000"/>
<path d="M88.0475 72.9439H83.3623V77.629H88.0475V72.9439Z" fill="#FF0000"/>
<path d="M98.4737 62.5257H93.7886V67.2109H98.4737V62.5257Z" fill="#FF0000"/>
<path d="M98.4737 78.1572H93.7886V82.8423H98.4737V78.1572Z" fill="#FF0000"/>
<path d="M93.2604 78.1572H88.5752V82.8423H93.2604V78.1572Z" fill="#FF0000"/>
<path d="M82.8419 88.5753H78.1567V93.2605H82.8419V88.5753Z" fill="#FF0000"/>
<path d="M82.8419 93.7886H78.1567V98.4738H82.8419V93.7886Z" fill="#FF0000"/>
<path d="M93.2604 88.5753H88.5752V93.2605H93.2604V88.5753Z" fill="#FF0000"/>
<path d="M88.0475 83.362H83.3623V88.0471H88.0475V83.362Z" fill="#FF0000"/>
<path d="M98.4737 93.7886H93.7886V98.4738H98.4737V93.7886Z" fill="#FF0000"/>
<path d="M88.0563 26.0495H83.3711V30.7347H88.0563V26.0495Z" fill="#FF0000"/>
<path d="M88.0475 31.2628H83.3623V35.948H88.0475V31.2628Z" fill="#FF0000"/>
<path d="M82.8439 26.058H78.1587V30.7431H82.8439V26.058Z" fill="#FF0000"/>
<path d="M82.8439 31.2628H78.1587V35.948H82.8439V31.2628Z" fill="#FF0000"/>
<path d="M82.8439 41.6809H78.1587V46.3661H82.8439V41.6809Z" fill="#FF0000"/>
<path d="M88.0563 41.6809H83.3711V46.3661H88.0563V41.6809Z" fill="black"/>
<path d="M88.0475 20.8362H83.3623V25.5214H88.0475V20.8362Z" fill="black"/>
<path d="M88.0563 10.4181H83.3711V15.1033H88.0563V10.4181Z" fill="black"/>
<path d="M82.8439 10.4266H78.1587V15.1117H82.8439V10.4266Z" fill="black"/>
<path d="M88.0475 52.0991H83.3623V56.7842H88.0475V52.0991Z" fill="black"/>
<path d="M82.8341 52.1075H78.1489V56.7927H82.8341V52.1075Z" fill="black"/>
<path d="M82.8439 57.3123H78.1587V61.9975H82.8439V57.3123Z" fill="black"/>
<path d="M82.8341 5.21329H78.1489V9.89845H82.8341V5.21329Z" fill="black"/>
<path d="M82.8341 20.8447H78.1489V25.5299H82.8341V20.8447Z" fill="#FF0000"/>
<path d="M88.0475 36.4676H83.3623V41.1528H88.0475V36.4676Z" fill="#FF0000"/>
<path d="M82.8341 36.4761H78.1489V41.1613H82.8341V36.4761Z" fill="#FF0000"/>
<path d="M93.2604 26.0495H88.5752V30.7347H93.2604V26.0495Z" fill="black"/>
<path d="M93.2604 31.2628H88.5752V35.948H93.2604V31.2628Z" fill="black"/>
<path d="M93.2604 41.6809H88.5752V46.3661H93.2604V41.6809Z" fill="black"/>
<path d="M93.2604 20.8447H88.5752V25.5299H93.2604V20.8447Z" fill="black"/>
<path d="M93.2604 36.4761H88.5752V41.1613H93.2604V36.4761Z" fill="black"/>
<path d="M98.4737 26.058H93.7886V30.7431H98.4737V26.058Z" fill="black"/>
<path d="M98.4737 31.2628H93.7886V35.948H98.4737V31.2628Z" fill="black"/>
<path d="M98.4737 41.6809H93.7886V46.3661H98.4737V41.6809Z" fill="black"/>
<path d="M98.4659 20.8447H93.7808V25.5299H98.4659V20.8447Z" fill="black"/>
<path d="M98.4659 36.4761H93.7808V41.1613H98.4659V36.4761Z" fill="black"/>
<path d="M88.0475 15.6314H83.3623V20.3166H88.0475V15.6314Z" fill="black"/>
<path d="M82.8439 15.6314H78.1587V20.3166H82.8439V15.6314Z" fill="black"/>
<path d="M93.2604 15.6314H88.5752V20.3166H93.2604V15.6314Z" fill="black"/>
<path d="M88.0475 46.8858H83.3623V51.5709H88.0475V46.8858Z" fill="black"/>
<path d="M82.8439 46.8942H78.1587V51.5794H82.8439V46.8942Z" fill="black"/>
<path d="M93.2604 46.8942H88.5752V51.5794H93.2604V46.8942Z" fill="black"/>
<path d="M119.311 151.101H114.625V155.786H119.311V151.101Z" fill="#A60321"/>
<path d="M119.311 145.888H114.625V150.573H119.311V145.888Z" fill="#A60321"/>
<path d="M119.311 140.683H114.625V145.368H119.311V140.683Z" fill="#A60321"/>
<path d="M114.105 140.683H109.42V145.368H114.105V140.683Z" fill="#A60321"/>
<path d="M108.892 140.683H104.207V145.368H108.892V140.683Z" fill="#A60321"/>
<path d="M103.679 140.683H98.9937V145.368H103.679V140.683Z" fill="#A60321"/>
<path d="M119.311 135.469H114.625V140.155H119.311V135.469Z" fill="#A60321"/>
<path d="M114.105 135.469H109.42V140.155H114.105V135.469Z" fill="#A60321"/>
<path d="M108.892 135.469H104.207V140.155H108.892V135.469Z" fill="#A60321"/>
<path d="M103.679 135.469H98.9937V140.155H103.679V135.469Z" fill="#A60321"/>
<path d="M119.311 130.256H114.625V134.941H119.311V130.256Z" fill="#A60321"/>
<path d="M114.105 130.256H109.42V134.941H114.105V130.256Z" fill="#A60321"/>
<path d="M108.892 130.256H104.207V134.941H108.892V130.256Z" fill="#A60321"/>
<path d="M103.679 130.256H98.9937V134.941H103.679V130.256Z" fill="#A60321"/>
<path d="M119.311 119.838H114.625V124.523H119.311V119.838Z" fill="#A60321"/>
<path d="M124.524 119.838H119.839V124.523H124.524V119.838Z" fill="#A60321"/>
<path d="M114.105 119.838H109.42V124.523H114.105V119.838Z" fill="#A60321"/>
<path d="M108.892 119.838H104.207V124.523H108.892V119.838Z" fill="#A60321"/>
<path d="M103.679 119.838H98.9937V124.523H103.679V119.838Z" fill="#A60321"/>
<path d="M119.311 125.051H114.625V129.736H119.311V125.051Z" fill="#A60321"/>
<path d="M114.105 125.051H109.42V129.736H114.105V125.051Z" fill="#A60321"/>
<path d="M108.892 125.051H104.207V129.736H108.892V125.051Z" fill="#A60321"/>
<path d="M103.679 125.051H98.9937V129.736H103.679V125.051Z" fill="#A60321"/>
<path d="M119.311 114.625H114.625V119.31H119.311V114.625Z" fill="#A60321"/>
<path d="M114.105 114.625H109.42V119.31H114.105V114.625Z" fill="#A60321"/>
<path d="M108.892 114.625H104.207V119.31H108.892V114.625Z" fill="#A60321"/>
<path d="M103.679 114.625H98.9937V119.31H103.679V114.625Z" fill="#A60321"/>
<path d="M119.311 109.42H114.625V114.105H119.311V109.42Z" fill="#A60321"/>
<path d="M114.105 109.42H109.42V114.105H114.105V109.42Z" fill="#A60321"/>
<path d="M108.892 109.42H104.207V114.105H108.892V109.42Z" fill="#A60321"/>
<path d="M103.679 109.42H98.9937V114.105H103.679V109.42Z" fill="#A60321"/>
<path d="M119.311 104.207H114.625V108.892H119.311V104.207Z" fill="#A60321"/>
<path d="M114.105 104.207H109.42V108.892H114.105V104.207Z" fill="#A60321"/>
<path d="M108.892 104.207H104.207V108.892H108.892V104.207Z" fill="#A60321"/>
<path d="M103.679 104.207H98.9937V108.892H103.679V104.207Z" fill="#A60321"/>
<path d="M119.311 98.9933H114.625V103.678H119.311V98.9933Z" fill="#A60321"/>
<path d="M114.105 98.9933H109.42V103.678H114.105V98.9933Z" fill="#A60321"/>
<path d="M108.892 98.9933H104.207V103.678H108.892V98.9933Z" fill="#A60321"/>
<path d="M103.679 98.9933H98.9937V103.678H103.679V98.9933Z" fill="#A60321"/>
<path d="M140.155 98.9933H135.47V103.678H140.155V98.9933Z" fill="#A60321"/>
<path d="M134.942 98.9933H130.257V103.678H134.942V98.9933Z" fill="#A60321"/>
<path d="M129.737 98.9933H125.052V103.678H129.737V98.9933Z" fill="#A60321"/>
<path d="M124.524 98.9933H119.839V103.678H124.524V98.9933Z" fill="#A60321"/>
<path d="M140.155 104.207H135.47V108.892H140.155V104.207Z" fill="#A60321"/>
<path d="M134.942 104.207H130.257V108.892H134.942V104.207Z" fill="#A60321"/>
<path d="M129.737 104.207H125.052V108.892H129.737V104.207Z" fill="#A60321"/>
<path d="M124.524 104.207H119.839V108.892H124.524V104.207Z" fill="#A60321"/>
<path d="M140.155 114.625H135.47V119.31H140.155V114.625Z" fill="#A60321"/>
<path d="M134.942 124.523H130.257V129.208H134.942V124.523Z" fill="black"/>
<path d="M129.737 129.737H125.052V134.422H129.737V129.737Z" fill="black"/>
<path d="M134.942 129.737H130.257V134.422H134.942V129.737Z" fill="black"/>
<path d="M140.155 134.95H135.47V139.635H140.155V134.95Z" fill="black"/>
<path d="M129.737 124.523H125.052V129.208H129.737V124.523Z" fill="black"/>
<path d="M145.369 98.9933H140.684V103.678H145.369V98.9933Z" fill="#A60321"/>
<path d="M145.369 104.207H140.684V108.892H145.369V104.207Z" fill="#A60321"/>
<path d="M145.369 109.42H140.684V114.105H145.369V109.42Z" fill="#A60321"/>
<path d="M145.369 114.625H140.684V119.31H145.369V114.625Z" fill="#A60321"/>
<path d="M150.574 114.625H145.889V119.31H150.574V114.625Z" fill="#A60321"/>
<path d="M155.787 114.625H151.102V119.31H155.787V114.625Z" fill="#A60321"/>
<path d="M150.574 109.42H145.889V114.105H150.574V109.42Z" fill="#A60321"/>
<path d="M134.942 114.625H130.257V119.31H134.942V114.625Z" fill="#A60321"/>
<path d="M129.737 114.625H125.052V119.31H129.737V114.625Z" fill="#A60321"/>
<path d="M124.524 114.625H119.839V119.31H124.524V114.625Z" fill="#A60321"/>
<path d="M140.155 109.42H135.47V114.105H140.155V109.42Z" fill="#A60321"/>
<path d="M134.942 109.42H130.257V114.105H134.942V109.42Z" fill="#A60321"/>
<path d="M129.737 109.42H125.052V114.105H129.737V109.42Z" fill="#A60321"/>
<path d="M124.524 109.42H119.839V114.105H124.524V109.42Z" fill="#A60321"/>
<path d="M114.105 145.888H109.42V150.573H114.105V145.888Z" fill="#A60321"/>
<path d="M108.892 145.888H104.207V150.573H108.892V145.888Z" fill="#A60321"/>
<path d="M150.574 104.207H145.889V108.892H150.574V104.207Z" fill="#A60321"/>
<path d="M155.787 109.42H151.102V114.105H155.787V109.42Z" fill="#A60321"/>
<path d="M161 114.625H156.314V119.31H161V114.625Z" fill="#A60321"/>
<path d="M114.105 151.101H109.42V155.786H114.105V151.101Z" fill="#A60321"/>
<path d="M119.311 156.314H114.625V160.999H119.311V156.314Z" fill="#A60321"/>
<path d="M88.0475 130.265H83.3623V134.95H88.0475V130.265Z" fill="#FF0000"/>
<path d="M88.0475 125.06H83.3623V129.745H88.0475V125.06Z" fill="#FF0000"/>
<path d="M82.8341 130.265H78.1489V134.95H82.8341V130.265Z" fill="#FF0000"/>
<path d="M82.8439 125.051H78.1587V129.736H82.8439V125.051Z" fill="#FF0000"/>
<path d="M82.8341 114.633H78.1489V119.318H82.8341V114.633Z" fill="#FF0000"/>
<path d="M88.0475 114.633H83.3623V119.318H88.0475V114.633Z" fill="black"/>
<path d="M88.0475 135.478H83.3623V140.163H88.0475V135.478Z" fill="black"/>
<path d="M88.0475 145.896H83.3623V150.581H88.0475V145.896Z" fill="black"/>
<path d="M82.8341 145.887H78.1489V150.573H82.8341V145.887Z" fill="black"/>
<path d="M88.0475 104.215H83.3623V108.9H88.0475V104.215Z" fill="black"/>
<path d="M82.8341 104.207H78.1489V108.892H82.8341V104.207Z" fill="black"/>
<path d="M82.8341 99.0018H78.1489V103.687H82.8341V99.0018Z" fill="black"/>
<path d="M82.8341 151.101H78.1489V155.786H82.8341V151.101Z" fill="black"/>
<path d="M82.8341 135.469H78.1489V140.155H82.8341V135.469Z" fill="#FF0000"/>
<path d="M88.0475 119.847H83.3623V124.532H88.0475V119.847Z" fill="#FF0000"/>
<path d="M82.8341 119.838H78.1489V124.523H82.8341V119.838Z" fill="#FF0000"/>
<path d="M93.253 130.265H88.5679V134.95H93.253V130.265Z" fill="black"/>
<path d="M93.2604 125.051H88.5752V129.736H93.2604V125.051Z" fill="black"/>
<path d="M93.253 114.633H88.5679V119.318H93.253V114.633Z" fill="black"/>
<path d="M93.2604 135.469H88.5752V140.155H93.2604V135.469Z" fill="black"/>
<path d="M93.2604 119.847H88.5752V124.532H93.2604V119.847Z" fill="black"/>
<path d="M98.4659 130.256H93.7808V134.941H98.4659V130.256Z" fill="black"/>
<path d="M98.4737 125.051H93.7886V129.736H98.4737V125.051Z" fill="black"/>
<path d="M98.4659 114.633H93.7808V119.318H98.4659V114.633Z" fill="black"/>
<path d="M98.4659 135.469H93.7808V140.155H98.4659V135.469Z" fill="black"/>
<path d="M98.4659 119.838H93.7808V124.523H98.4659V119.838Z" fill="black"/>
<path d="M88.0475 140.683H83.3623V145.368H88.0475V140.683Z" fill="black"/>
<path d="M82.8439 140.683H78.1587V145.368H82.8439V140.683Z" fill="black"/>
<path d="M93.2604 140.683H88.5752V145.368H93.2604V140.683Z" fill="black"/>
<path d="M88.0475 109.428H83.3623V114.114H88.0475V109.428Z" fill="black"/>
<path d="M82.8439 109.42H78.1587V114.105H82.8439V109.42Z" fill="black"/>
<path d="M93.2604 109.42H88.5752V114.105H93.2604V109.42Z" fill="black"/>
<path d="M46.3658 5.21329H41.6807V9.89845H46.3658V5.21329Z" fill="#A60321"/>
<path d="M46.3658 10.4266H41.6807V15.1118H46.3658V10.4266Z" fill="#A60321"/>
<path d="M46.3658 15.6314H41.6807V20.3166H46.3658V15.6314Z" fill="#A60321"/>
<path d="M51.5802 15.6314H46.895V20.3166H51.5802V15.6314Z" fill="#A60321"/>
<path d="M56.7843 15.6314H52.0991V20.3166H56.7843V15.6314Z" fill="#A60321"/>
<path d="M61.9972 15.6314H57.312V20.3166H61.9972V15.6314Z" fill="#A60321"/>
<path d="M46.3658 20.8447H41.6807V25.5299H46.3658V20.8447Z" fill="#A60321"/>
<path d="M51.5802 20.8447H46.895V25.5299H51.5802V20.8447Z" fill="#A60321"/>
<path d="M56.7843 20.8447H52.0991V25.5299H56.7843V20.8447Z" fill="#A60321"/>
<path d="M61.9972 20.8447H57.312V25.5299H61.9972V20.8447Z" fill="#A60321"/>
<path d="M46.3658 26.0581H41.6807V30.7433H46.3658V26.0581Z" fill="#A60321"/>
<path d="M51.5802 26.0581H46.895V30.7433H51.5802V26.0581Z" fill="#A60321"/>
<path d="M56.7843 26.0581H52.0991V30.7433H56.7843V26.0581Z" fill="#A60321"/>
<path d="M61.9972 26.0581H57.312V30.7433H61.9972V26.0581Z" fill="#A60321"/>
<path d="M46.3658 36.4761H41.6807V41.1613H46.3658V36.4761Z" fill="#A60321"/>
<path d="M41.152 36.4761H36.4668V41.1613H41.152V36.4761Z" fill="#A60321"/>
<path d="M51.5802 36.4761H46.895V41.1613H51.5802V36.4761Z" fill="#A60321"/>
<path d="M56.7843 36.4761H52.0991V41.1613H56.7843V36.4761Z" fill="#A60321"/>
<path d="M61.9972 36.4761H57.312V41.1613H61.9972V36.4761Z" fill="#A60321"/>
<path d="M46.3658 31.2628H41.6807V35.948H46.3658V31.2628Z" fill="#A60321"/>
<path d="M51.5802 31.2628H46.895V35.948H51.5802V31.2628Z" fill="#A60321"/>
<path d="M56.7843 31.2628H52.0991V35.948H56.7843V31.2628Z" fill="#A60321"/>
<path d="M61.9972 31.2628H57.312V35.948H61.9972V31.2628Z" fill="#A60321"/>
<path d="M46.3658 41.6894H41.6807V46.3746H46.3658V41.6894Z" fill="#A60321"/>
<path d="M51.5802 41.6894H46.895V46.3746H51.5802V41.6894Z" fill="#A60321"/>
<path d="M56.7843 41.6894H52.0991V46.3746H56.7843V41.6894Z" fill="#A60321"/>
<path d="M61.9972 41.6894H57.312V46.3746H61.9972V41.6894Z" fill="#A60321"/>
<path d="M46.3658 46.8943H41.6807V51.5794H46.3658V46.8943Z" fill="#A60321"/>
<path d="M51.5802 46.8943H46.895V51.5794H51.5802V46.8943Z" fill="#A60321"/>
<path d="M56.7843 46.8943H52.0991V51.5794H56.7843V46.8943Z" fill="#A60321"/>
<path d="M61.9972 46.8943H57.312V51.5794H61.9972V46.8943Z" fill="#A60321"/>
<path d="M46.3658 52.0991H41.6807V56.7843H46.3658V52.0991Z" fill="#A60321"/>
<path d="M51.5802 52.0991H46.895V56.7843H51.5802V52.0991Z" fill="#A60321"/>
<path d="M56.7843 52.0991H52.0991V56.7843H56.7843V52.0991Z" fill="#A60321"/>
<path d="M61.9972 52.0991H57.312V56.7843H61.9972V52.0991Z" fill="#A60321"/>
<path d="M46.3658 57.3208H41.6807V62.006H46.3658V57.3208Z" fill="#A60321"/>
<path d="M51.5802 57.3208H46.895V62.006H51.5802V57.3208Z" fill="#A60321"/>
<path d="M56.7843 57.3208H52.0991V62.006H56.7843V57.3208Z" fill="#A60321"/>
<path d="M61.9972 57.3208H57.312V62.006H61.9972V57.3208Z" fill="#A60321"/>
<path d="M25.5211 57.3208H20.8359V62.006H25.5211V57.3208Z" fill="#A60321"/>
<path d="M30.7433 57.3208H26.0581V62.006H30.7433V57.3208Z" fill="#A60321"/>
<path d="M35.9488 57.3208H31.2637V62.006H35.9488V57.3208Z" fill="#A60321"/>
<path d="M41.152 57.3208H36.4668V62.006H41.152V57.3208Z" fill="#A60321"/>
<path d="M25.5211 52.0991H20.8359V56.7843H25.5211V52.0991Z" fill="#A60321"/>
<path d="M30.7433 52.0991H26.0581V56.7843H30.7433V52.0991Z" fill="#A60321"/>
<path d="M35.9488 52.0991H31.2637V56.7843H35.9488V52.0991Z" fill="#A60321"/>
<path d="M41.152 52.0991H36.4668V56.7843H41.152V52.0991Z" fill="#A60321"/>
<path d="M25.5211 41.6894H20.8359V46.3746H25.5211V41.6894Z" fill="#A60321"/>
<path d="M30.7433 31.791H26.0581V36.4762H30.7433V31.791Z" fill="black"/>
<path d="M35.9488 26.5777H31.2637V31.2629H35.9488V26.5777Z" fill="black"/>
<path d="M30.7433 26.5777H26.0581V31.2629H30.7433V26.5777Z" fill="black"/>
<path d="M25.5211 21.3644H20.8359V26.0496H25.5211V21.3644Z" fill="black"/>
<path d="M35.9488 31.791H31.2637V36.4762H35.9488V31.791Z" fill="black"/>
<path d="M20.317 57.3208H15.6318V62.006H20.317V57.3208Z" fill="#A60321"/>
<path d="M20.317 52.0991H15.6318V56.7843H20.317V52.0991Z" fill="#A60321"/>
<path d="M20.317 46.8943H15.6318V51.5794H20.317V46.8943Z" fill="#A60321"/>
<path d="M20.317 41.6894H15.6318V46.3746H20.317V41.6894Z" fill="#A60321"/>
<path d="M15.1119 41.6894H10.4268V46.3746H15.1119V41.6894Z" fill="#A60321"/>
<path d="M9.89073 41.6894H5.20557V46.3746H9.89073V41.6894Z" fill="#A60321"/>
<path d="M15.1119 46.8943H10.4268V51.5794H15.1119V46.8943Z" fill="#A60321"/>
<path d="M30.7433 41.6894H26.0581V46.3746H30.7433V41.6894Z" fill="#A60321"/>
<path d="M35.9488 41.6894H31.2637V46.3746H35.9488V41.6894Z" fill="#A60321"/>
<path d="M41.152 41.6894H36.4668V46.3746H41.152V41.6894Z" fill="#A60321"/>
<path d="M25.5211 46.8943H20.8359V51.5794H25.5211V46.8943Z" fill="#A60321"/>
<path d="M30.7433 46.8943H26.0581V51.5794H30.7433V46.8943Z" fill="#A60321"/>
<path d="M35.9488 46.8943H31.2637V51.5794H35.9488V46.8943Z" fill="#A60321"/>
<path d="M41.152 46.8943H36.4668V51.5794H41.152V46.8943Z" fill="#A60321"/>
<path d="M51.5802 10.4266H46.895V15.1118H51.5802V10.4266Z" fill="#A60321"/>
<path d="M56.7843 10.4266H52.0991V15.1118H56.7843V10.4266Z" fill="#A60321"/>
<path d="M15.1119 52.0991H10.4268V56.7843H15.1119V52.0991Z" fill="#A60321"/>
<path d="M9.89073 46.8943H5.20557V51.5794H9.89073V46.8943Z" fill="#A60321"/>
<path d="M4.68517 41.6894H0V46.3746H4.68517V41.6894Z" fill="#A60321"/>
<path d="M51.5802 5.21329H46.895V9.89845H51.5802V5.21329Z" fill="#A60321"/>
<path d="M46.3658 0H41.6807V4.68517H46.3658V0Z" fill="#A60321"/>
<path d="M41.1539 72.9523H36.4688V77.6375H41.1539V72.9523Z" fill="#FF0000"/>
<path d="M35.9488 72.9523H31.2637V77.6375H35.9488V72.9523Z" fill="#FF0000"/>
<path d="M41.1539 78.1572H36.4688V82.8423H41.1539V78.1572Z" fill="#FF0000"/>
<path d="M35.9488 78.1572H31.2637V82.8423H35.9488V78.1572Z" fill="#FF0000"/>
<path d="M25.5221 78.1572H20.8369V82.8423H25.5221V78.1572Z" fill="#FF0000"/>
<path d="M25.5221 72.9523H20.8369V77.6375H25.5221V72.9523Z" fill="black"/>
<path d="M25.5221 83.3705H20.8369V88.0556H25.5221V83.3705Z" fill="black"/>
<path d="M46.3673 83.3705H41.6821V88.0556H46.3673V83.3705Z" fill="black"/>
<path d="M46.3673 72.9523H41.6821V77.6375H46.3673V72.9523Z" fill="black"/>
<path d="M56.7858 72.9523H52.1006V77.6375H56.7858V72.9523Z" fill="black"/>
<path d="M56.7858 78.1572H52.1006V82.8423H56.7858V78.1572Z" fill="black"/>
<path d="M56.7858 83.3705H52.1006V88.0556H56.7858V83.3705Z" fill="black"/>
<path d="M15.1129 72.9523H10.4277V77.6375H15.1129V72.9523Z" fill="black"/>
<path d="M15.1129 78.1572H10.4277V82.8423H15.1129V78.1572Z" fill="black"/>
<path d="M9.89073 78.1572H5.20557V82.8423H9.89073V78.1572Z" fill="black"/>
<path d="M15.1129 83.3705H10.4277V88.0556H15.1129V83.3705Z" fill="black"/>
<path d="M61.9986 78.1572H57.3135V82.8423H61.9986V78.1572Z" fill="black"/>
<path d="M46.3673 78.1572H41.6821V82.8423H46.3673V78.1572Z" fill="#FF0000"/>
<path d="M41.1539 83.3705H36.4688V88.0556H41.1539V83.3705Z" fill="#FF0000"/>
<path d="M35.9488 83.3705H31.2637V88.0556H35.9488V83.3705Z" fill="#FF0000"/>
<path d="M30.7447 72.9523H26.0596V77.6375H30.7447V72.9523Z" fill="#FF0000"/>
<path d="M30.7447 78.1572H26.0596V82.8423H30.7447V78.1572Z" fill="#FF0000"/>
<path d="M41.1539 67.739H36.4688V72.4242H41.1539V67.739Z" fill="black"/>
<path d="M35.9488 67.739H31.2637V72.4242H35.9488V67.739Z" fill="black"/>
<path d="M25.5221 67.739H20.8369V72.4242H25.5221V67.739Z" fill="black"/>
<path d="M46.3673 67.739H41.6821V72.4242H46.3673V67.739Z" fill="black"/>
<path d="M30.7447 67.739H26.0596V72.4242H30.7447V67.739Z" fill="black"/>
<path d="M41.1539 62.5257H36.4688V67.2109H41.1539V62.5257Z" fill="black"/>
<path d="M35.9488 62.5257H31.2637V67.2109H35.9488V62.5257Z" fill="black"/>
<path d="M25.5221 62.5257H20.8369V67.2109H25.5221V62.5257Z" fill="black"/>
<path d="M46.3673 62.5257H41.6821V67.2109H46.3673V62.5257Z" fill="black"/>
<path d="M30.7447 62.5257H26.0596V67.2109H30.7447V62.5257Z" fill="black"/>
<path d="M41.1539 93.7886H36.4688V98.4738H41.1539V93.7886Z" fill="black"/>
<path d="M35.9488 93.7886H31.2637V98.4738H35.9488V93.7886Z" fill="black"/>
<path d="M25.5221 93.7886H20.8369V98.4738H25.5221V93.7886Z" fill="black"/>
<path d="M46.3673 93.7886H41.6821V98.4738H46.3673V93.7886Z" fill="black"/>
<path d="M30.7447 93.7886H26.0596V98.4738H30.7447V93.7886Z" fill="black"/>
<path d="M41.1539 88.5837H36.4688V93.2689H41.1539V88.5837Z" fill="black"/>
<path d="M51.5802 72.9523H46.895V77.6375H51.5802V72.9523Z" fill="black"/>
<path d="M51.5802 78.1572H46.895V82.8423H51.5802V78.1572Z" fill="black"/>
<path d="M51.5802 83.3705H46.895V88.0556H51.5802V83.3705Z" fill="black"/>
<path d="M51.5802 67.739H46.895V72.4242H51.5802V67.739Z" fill="black"/>
<path d="M51.5802 88.5837H46.895V93.2689H51.5802V88.5837Z" fill="black"/>
<path d="M20.317 72.9523H15.6318V77.6375H20.317V72.9523Z" fill="black"/>
<path d="M20.317 78.1572H15.6318V82.8423H20.317V78.1572Z" fill="black"/>
<path d="M20.317 83.3705H15.6318V88.0556H20.317V83.3705Z" fill="black"/>
<path d="M20.317 67.739H15.6318V72.4242H20.317V67.739Z" fill="black"/>
<path d="M20.317 88.5837H15.6318V93.2689H20.317V88.5837Z" fill="black"/>
<path d="M35.9488 88.5837H31.2637V93.2689H35.9488V88.5837Z" fill="black"/>
<path d="M25.5221 88.5837H20.8369V93.2689H25.5221V88.5837Z" fill="black"/>
<path d="M46.3673 88.5837H41.6821V93.2689H46.3673V88.5837Z" fill="black"/>
<path d="M30.7447 88.5837H26.0596V93.2689H30.7447V88.5837Z" fill="black"/>
<path d="M30.7447 83.3705H26.0596V88.0556H30.7447V83.3705Z" fill="#FF0000"/>
<path d="M82.8419 62.5257H78.1567V67.2109H82.8419V62.5257Z" fill="#FF0000"/>
<path d="M82.8419 67.739H78.1567V72.4242H82.8419V67.739Z" fill="#FF0000"/>
<path d="M72.4234 67.739H67.7383V72.4242H72.4234V67.739Z" fill="#FF0000"/>
<path d="M77.6285 72.9523H72.9434V77.6375H77.6285V72.9523Z" fill="#FF0000"/>
<path d="M67.2101 62.5257H62.5249V67.2109H67.2101V62.5257Z" fill="#FF0000"/>
<path d="M67.2101 78.1572H62.5249V82.8423H67.2101V78.1572Z" fill="#FF0000"/>
<path d="M72.4234 78.1572H67.7383V82.8423H72.4234V78.1572Z" fill="#FF0000"/>
<path d="M82.8419 88.5837H78.1567V93.2689H82.8419V88.5837Z" fill="#FF0000"/>
<path d="M82.8419 93.7886H78.1567V98.4738H82.8419V93.7886Z" fill="#FF0000"/>
<path d="M72.4234 88.5837H67.7383V93.2689H72.4234V88.5837Z" fill="#FF0000"/>
<path d="M77.6285 83.3705H72.9434V88.0556H77.6285V83.3705Z" fill="#FF0000"/>
<path d="M67.2101 93.7886H62.5249V98.4738H67.2101V93.7886Z" fill="#FF0000"/>
<path d="M77.6285 26.0495H72.9434V30.7347H77.6285V26.0495Z" fill="#FF0000"/>
<path d="M77.6285 31.2628H72.9434V35.948H77.6285V31.2628Z" fill="#FF0000"/>
<path d="M82.8419 26.058H78.1567V30.7431H82.8419V26.058Z" fill="#FF0000"/>
<path d="M82.8419 31.2628H78.1567V35.948H82.8419V31.2628Z" fill="#FF0000"/>
<path d="M82.8419 41.6809H78.1567V46.3661H82.8419V41.6809Z" fill="#FF0000"/>
<path d="M77.6285 41.6809H72.9434V46.3661H77.6285V41.6809Z" fill="black"/>
<path d="M77.6285 20.8447H72.9434V25.5299H77.6285V20.8447Z" fill="black"/>
<path d="M77.6285 10.4181H72.9434V15.1033H77.6285V10.4181Z" fill="black"/>
<path d="M82.8419 10.4266H78.1567V15.1117H82.8419V10.4266Z" fill="black"/>
<path d="M77.6285 52.0991H72.9434V56.7842H77.6285V52.0991Z" fill="black"/>
<path d="M82.8341 52.1075H78.1489V56.7927H82.8341V52.1075Z" fill="black"/>
<path d="M82.8419 57.3123H78.1567V61.9975H82.8419V57.3123Z" fill="black"/>
<path d="M82.8341 5.21325H78.1489V9.89842H82.8341V5.21325Z" fill="black"/>
<path d="M82.8341 20.8447H78.1489V25.5299H82.8341V20.8447Z" fill="#FF0000"/>
<path d="M77.6285 36.4676H72.9434V41.1528H77.6285V36.4676Z" fill="#FF0000"/>
<path d="M82.8341 36.4761H78.1489V41.1613H82.8341V36.4761Z" fill="#FF0000"/>
<path d="M72.4254 26.0495H67.7402V30.7347H72.4254V26.0495Z" fill="black"/>
<path d="M72.4156 31.2544H67.7305V35.9395H72.4156V31.2544Z" fill="black"/>
<path d="M72.4254 41.6809H67.7402V46.3661H72.4254V41.6809Z" fill="black"/>
<path d="M72.4156 20.8362H67.7305V25.5214H72.4156V20.8362Z" fill="black"/>
<path d="M72.4156 36.4676H67.7305V41.1528H72.4156V36.4676Z" fill="black"/>
<path d="M67.2115 26.0495H62.5264V30.7347H67.2115V26.0495Z" fill="black"/>
<path d="M67.2115 31.2628H62.5264V35.948H67.2115V31.2628Z" fill="black"/>
<path d="M67.2115 41.6809H62.5264V46.3661H67.2115V41.6809Z" fill="black"/>
<path d="M67.2023 20.8447H62.5171V25.5299H67.2023V20.8447Z" fill="black"/>
<path d="M67.2023 36.4761H62.5171V41.1613H67.2023V36.4761Z" fill="black"/>
<path d="M77.6285 15.6314H72.9434V20.3166H77.6285V15.6314Z" fill="black"/>
<path d="M82.8419 15.6314H78.1567V20.3166H82.8419V15.6314Z" fill="black"/>
<path d="M72.4156 15.6314H67.7305V20.3166H72.4156V15.6314Z" fill="black"/>
<path d="M77.6285 46.8942H72.9434V51.5794H77.6285V46.8942Z" fill="black"/>
<path d="M82.8419 46.8942H78.1567V51.5794H82.8419V46.8942Z" fill="black"/>
<path d="M72.4156 46.8858H67.7305V51.5709H72.4156V46.8858Z" fill="black"/>
<path d="M46.3658 151.101H41.6807V155.786H46.3658V151.101Z" fill="#A60321"/>
<path d="M46.3658 145.896H41.6807V150.581H46.3658V145.896Z" fill="#A60321"/>
<path d="M46.3658 140.683H41.6807V145.368H46.3658V140.683Z" fill="#A60321"/>
<path d="M51.5802 140.683H46.895V145.368H51.5802V140.683Z" fill="#A60321"/>
<path d="M56.7843 140.683H52.0991V145.368H56.7843V140.683Z" fill="#A60321"/>
<path d="M61.9972 140.683H57.312V145.368H61.9972V140.683Z" fill="#A60321"/>
<path d="M46.3658 135.469H41.6807V140.155H46.3658V135.469Z" fill="#A60321"/>
<path d="M51.5802 135.469H46.895V140.155H51.5802V135.469Z" fill="#A60321"/>
<path d="M56.7843 135.469H52.0991V140.155H56.7843V135.469Z" fill="#A60321"/>
<path d="M61.9972 135.469H57.312V140.155H61.9972V135.469Z" fill="#A60321"/>
<path d="M46.3658 130.265H41.6807V134.95H46.3658V130.265Z" fill="#A60321"/>
<path d="M51.5802 130.265H46.895V134.95H51.5802V130.265Z" fill="#A60321"/>
<path d="M56.7843 130.265H52.0991V134.95H56.7843V130.265Z" fill="#A60321"/>
<path d="M61.9972 130.265H57.312V134.95H61.9972V130.265Z" fill="#A60321"/>
<path d="M46.3658 119.838H41.6807V124.523H46.3658V119.838Z" fill="#A60321"/>
<path d="M41.152 119.838H36.4668V124.523H41.152V119.838Z" fill="#A60321"/>
<path d="M51.5802 119.838H46.895V124.523H51.5802V119.838Z" fill="#A60321"/>
<path d="M56.7843 119.838H52.0991V124.523H56.7843V119.838Z" fill="#A60321"/>
<path d="M61.9972 119.838H57.312V124.523H61.9972V119.838Z" fill="#A60321"/>
<path d="M46.3658 125.051H41.6807V129.736H46.3658V125.051Z" fill="#A60321"/>
<path d="M51.5802 125.051H46.895V129.736H51.5802V125.051Z" fill="#A60321"/>
<path d="M56.7843 125.051H52.0991V129.736H56.7843V125.051Z" fill="#A60321"/>
<path d="M61.9972 125.051H57.312V129.736H61.9972V125.051Z" fill="#A60321"/>
<path d="M46.3658 114.633H41.6807V119.318H46.3658V114.633Z" fill="#A60321"/>
<path d="M51.5802 114.633H46.895V119.318H51.5802V114.633Z" fill="#A60321"/>
<path d="M56.7843 114.633H52.0991V119.318H56.7843V114.633Z" fill="#A60321"/>
<path d="M61.9972 114.633H57.312V119.318H61.9972V114.633Z" fill="#A60321"/>
<path d="M46.3658 109.42H41.6807V114.105H46.3658V109.42Z" fill="#A60321"/>
<path d="M51.5802 109.42H46.895V114.105H51.5802V109.42Z" fill="#A60321"/>
<path d="M56.7843 109.42H52.0991V114.105H56.7843V109.42Z" fill="#A60321"/>
<path d="M61.9972 109.42H57.312V114.105H61.9972V109.42Z" fill="#A60321"/>
<path d="M46.3658 104.215H41.6807V108.9H46.3658V104.215Z" fill="#A60321"/>
<path d="M51.5802 104.215H46.895V108.9H51.5802V104.215Z" fill="#A60321"/>
<path d="M56.7843 104.215H52.0991V108.9H56.7843V104.215Z" fill="#A60321"/>
<path d="M61.9972 104.215H57.312V108.9H61.9972V104.215Z" fill="#A60321"/>
<path d="M46.3658 99.0018H41.6807V103.687H46.3658V99.0018Z" fill="#A60321"/>
<path d="M51.5802 99.0018H46.895V103.687H51.5802V99.0018Z" fill="#A60321"/>
<path d="M56.7843 99.0018H52.0991V103.687H56.7843V99.0018Z" fill="#A60321"/>
<path d="M61.9972 99.0018H57.312V103.687H61.9972V99.0018Z" fill="#A60321"/>
<path d="M25.5211 99.0018H20.8359V103.687H25.5211V99.0018Z" fill="#A60321"/>
<path d="M30.7433 99.0018H26.0581V103.687H30.7433V99.0018Z" fill="#A60321"/>
<path d="M35.9488 99.0018H31.2637V103.687H35.9488V99.0018Z" fill="#A60321"/>
<path d="M41.152 99.0018H36.4668V103.687H41.152V99.0018Z" fill="#A60321"/>
<path d="M25.5211 104.215H20.8359V108.9H25.5211V104.215Z" fill="#A60321"/>
<path d="M30.7433 104.215H26.0581V108.9H30.7433V104.215Z" fill="#A60321"/>
<path d="M35.9488 104.215H31.2637V108.9H35.9488V104.215Z" fill="#A60321"/>
<path d="M41.152 104.215H36.4668V108.9H41.152V104.215Z" fill="#A60321"/>
<path d="M25.5211 114.633H20.8359V119.318H25.5211V114.633Z" fill="#A60321"/>
<path d="M30.7433 124.532H26.0581V129.217H30.7433V124.532Z" fill="black"/>
<path d="M35.9488 129.745H31.2637V134.43H35.9488V129.745Z" fill="black"/>
<path d="M30.7433 129.745H26.0581V134.43H30.7433V129.745Z" fill="black"/>
<path d="M25.5211 134.95H20.8359V139.635H25.5211V134.95Z" fill="black"/>
<path d="M35.9488 124.532H31.2637V129.217H35.9488V124.532Z" fill="black"/>
<path d="M20.317 99.0018H15.6318V103.687H20.317V99.0018Z" fill="#A60321"/>
<path d="M20.317 104.215H15.6318V108.9H20.317V104.215Z" fill="#A60321"/>
<path d="M20.317 109.42H15.6318V114.105H20.317V109.42Z" fill="#A60321"/>
<path d="M20.317 114.633H15.6318V119.318H20.317V114.633Z" fill="#A60321"/>
<path d="M15.1119 114.633H10.4268V119.318H15.1119V114.633Z" fill="#A60321"/>
<path d="M9.89073 114.633H5.20557V119.318H9.89073V114.633Z" fill="#A60321"/>
<path d="M15.1119 109.42H10.4268V114.105H15.1119V109.42Z" fill="#A60321"/>
<path d="M30.7433 114.633H26.0581V119.318H30.7433V114.633Z" fill="#A60321"/>
<path d="M35.9488 114.633H31.2637V119.318H35.9488V114.633Z" fill="#A60321"/>
<path d="M41.152 114.633H36.4668V119.318H41.152V114.633Z" fill="#A60321"/>
<path d="M25.5211 109.42H20.8359V114.105H25.5211V109.42Z" fill="#A60321"/>
<path d="M30.7433 109.42H26.0581V114.105H30.7433V109.42Z" fill="#A60321"/>
<path d="M35.9488 109.42H31.2637V114.105H35.9488V109.42Z" fill="#A60321"/>
<path d="M41.152 109.42H36.4668V114.105H41.152V109.42Z" fill="#A60321"/>
<path d="M51.5802 145.896H46.895V150.581H51.5802V145.896Z" fill="#A60321"/>
<path d="M56.7843 145.896H52.0991V150.581H56.7843V145.896Z" fill="#A60321"/>
<path d="M15.1119 104.215H10.4268V108.9H15.1119V104.215Z" fill="#A60321"/>
<path d="M9.89073 109.42H5.20557V114.105H9.89073V109.42Z" fill="#A60321"/>
<path d="M4.68517 114.633H0V119.318H4.68517V114.633Z" fill="#A60321"/>
<path d="M51.5802 151.101H46.895V155.786H51.5802V151.101Z" fill="#A60321"/>
<path d="M46.3658 156.314H41.6807V160.999H46.3658V156.314Z" fill="#A60321"/>
<path d="M77.6212 130.265H72.936V134.95H77.6212V130.265Z" fill="#FF0000"/>
<path d="M77.6285 125.051H72.9434V129.736H77.6285V125.051Z" fill="#FF0000"/>
<path d="M82.8341 130.265H78.1489V134.95H82.8341V130.265Z" fill="#FF0000"/>
<path d="M82.8419 125.051H78.1567V129.736H82.8419V125.051Z" fill="#FF0000"/>
<path d="M82.8341 114.633H78.1489V119.318H82.8341V114.633Z" fill="#FF0000"/>
<path d="M77.6212 114.633H72.936V119.318H77.6212V114.633Z" fill="black"/>
<path d="M77.6285 135.478H72.9434V140.163H77.6285V135.478Z" fill="black"/>
<path d="M77.6212 145.896H72.936V150.581H77.6212V145.896Z" fill="black"/>
<path d="M82.8341 145.887H78.1489V150.573H82.8341V145.887Z" fill="black"/>
<path d="M77.6285 104.215H72.9434V108.9H77.6285V104.215Z" fill="black"/>
<path d="M82.8341 104.207H78.1489V108.892H82.8341V104.207Z" fill="black"/>
<path d="M82.8341 99.0018H78.1489V103.687H82.8341V99.0018Z" fill="black"/>
<path d="M82.8341 151.101H78.1489V155.786H82.8341V151.101Z" fill="black"/>
<path d="M82.8341 135.469H78.1489V140.155H82.8341V135.469Z" fill="#FF0000"/>
<path d="M77.6285 119.847H72.9434V124.532H77.6285V119.847Z" fill="#FF0000"/>
<path d="M82.8341 119.838H78.1489V124.523H82.8341V119.838Z" fill="#FF0000"/>
<path d="M72.4156 130.265H67.7305V134.95H72.4156V130.265Z" fill="black"/>
<path d="M72.4156 125.06H67.7305V129.745H72.4156V125.06Z" fill="black"/>
<path d="M72.4156 114.633H67.7305V119.318H72.4156V114.633Z" fill="black"/>
<path d="M72.4156 135.478H67.7305V140.163H72.4156V135.478Z" fill="black"/>
<path d="M72.4156 119.847H67.7305V124.532H72.4156V119.847Z" fill="black"/>
<path d="M67.2023 130.265H62.5171V134.95H67.2023V130.265Z" fill="black"/>
<path d="M67.2115 125.051H62.5264V129.736H67.2115V125.051Z" fill="black"/>
<path d="M67.2023 114.633H62.5171V119.318H67.2023V114.633Z" fill="black"/>
<path d="M67.2023 135.469H62.5171V140.155H67.2023V135.469Z" fill="black"/>
<path d="M67.2023 119.838H62.5171V124.523H67.2023V119.838Z" fill="black"/>
<path d="M77.6285 140.683H72.9434V145.368H77.6285V140.683Z" fill="black"/>
<path d="M82.8419 140.683H78.1567V145.368H82.8419V140.683Z" fill="black"/>
<path d="M72.4156 140.691H67.7305V145.376H72.4156V140.691Z" fill="black"/>
<path d="M77.6285 109.42H72.9434V114.105H77.6285V109.42Z" fill="black"/>
<path d="M82.8419 109.42H78.1567V114.105H82.8419V109.42Z" fill="black"/>
<path d="M72.4156 109.428H67.7305V114.114H72.4156V109.428Z" fill="black"/>
</svg>
