<svg width="32" height="28" viewBox="0 0 32 28" fill="none" xmlns="http://www.w3.org/2000/svg">
<path d="M16 8.17229L15.99 8.16189L16 8.15149L16.01 8.16189L16 8.17229Z" fill="#FF0000" stroke="#FF0000"/>
<path d="M14.9797 7.11083L14.9697 7.10043L14.9797 7.09003L14.9897 7.10043L14.9797 7.11083Z" fill="#FF0000" stroke="#FF0000"/>
<path d="M17.0195 7.11083L17.0095 7.10043L17.0195 7.09003L17.0295 7.10043L17.0195 7.11083Z" fill="#FF0000" stroke="#FF0000"/>
<path d="M18.0393 6.0494L18.0293 6.039L18.0393 6.0286L18.0493 6.039L18.0393 6.0494Z" fill="#FF0000" stroke="#FF0000"/>
<path d="M19.0593 4.98793L19.0493 4.97753L19.0593 4.96714L19.0693 4.97753L19.0593 4.98793Z" fill="#FF0000" stroke="#FF0000"/>
<path d="M20.0791 3.92656L20.0691 3.91616L20.0791 3.90576L20.0891 3.91616L20.0791 3.92656Z" fill="#FF0000" stroke="#FF0000"/>
<path d="M21.0989 4.988L21.0889 4.9776L21.0989 4.9672L21.1089 4.9776L21.0989 4.988Z" fill="#FF0000" stroke="#FF0000"/>
<path d="M22.1189 3.92656L22.1089 3.91616L22.1189 3.90576L22.1289 3.91616L22.1189 3.92656Z" fill="#FF0000" stroke="#FF0000"/>
<path d="M23.1384 4.988L23.1284 4.9776L23.1384 4.9672L23.1484 4.9776L23.1384 4.988Z" fill="#FF0000" stroke="#FF0000"/>
<path d="M24.1584 3.92656L24.1485 3.91616L24.1584 3.90576L24.1684 3.91616L24.1584 3.92656Z" fill="#FF0000" stroke="#FF0000"/>
<path d="M25.178 4.98803L25.168 4.97763L25.178 4.96723L25.188 4.97763L25.178 4.98803Z" fill="#FF0000" stroke="#FF0000"/>
<path d="M26.198 6.04949L26.188 6.03909L26.198 6.02869L26.208 6.03909L26.198 6.04949Z" fill="#FF0000" stroke="#FF0000"/>
<path d="M27.2175 7.11089L27.2075 7.10049L27.2175 7.09009L27.2275 7.10049L27.2175 7.11089Z" fill="#FF0000" stroke="#FF0000"/>
<path d="M28.2373 8.17235L28.2273 8.16195L28.2373 8.15155L28.2473 8.16195L28.2373 8.17235Z" fill="#FF0000" stroke="#FF0000"/>
<path d="M27.2175 9.23378L27.2075 9.22338L27.2175 9.21298L27.2275 9.22338L27.2175 9.23378Z" fill="#FF0000" stroke="#FF0000"/>
<path d="M28.2373 10.2952L28.2273 10.2848L28.2373 10.2744L28.2473 10.2848L28.2373 10.2952Z" fill="#FF0000" stroke="#FF0000"/>
<path d="M27.2178 11.3567L27.2078 11.3463L27.2178 11.3359L27.2278 11.3463L27.2178 11.3567Z" fill="#FF0000" stroke="#FF0000"/>
<path d="M28.2375 12.4182L28.2276 12.4078L28.2375 12.3974L28.2475 12.4078L28.2375 12.4182Z" fill="#FF0000" stroke="#FF0000"/>
<path d="M27.218 13.4796L27.208 13.4692L27.218 13.4588L27.228 13.4692L27.218 13.4796Z" fill="#FF0000" stroke="#FF0000"/>
<path d="M28.2378 14.541L28.2278 14.5306L28.2378 14.5202L28.2478 14.5306L28.2378 14.541Z" fill="#FF0000" stroke="#FF0000"/>
<path d="M27.218 15.6024L27.208 15.592L27.218 15.5816L27.228 15.592L27.218 15.6024Z" fill="#FF0000" stroke="#FF0000"/>
<path d="M24.1584 18.7867L24.1485 18.7763L24.1584 18.7659L24.1684 18.7763L24.1584 18.7867Z" fill="#FF0000" stroke="#FF0000"/>
<path d="M21.0989 21.9712L21.0889 21.9608L21.0989 21.9504L21.1089 21.9608L21.0989 21.9712Z" fill="#FF0000" stroke="#FF0000"/>
<path d="M18.0393 25.1556L18.0293 25.1452L18.0393 25.1348L18.0493 25.1452L18.0393 25.1556Z" fill="#FF0000" stroke="#FF0000"/>
<path d="M26.1982 16.6639L26.1883 16.6535L26.1982 16.6431L26.2082 16.6535L26.1982 16.6639Z" fill="#FF0000" stroke="#FF0000"/>
<path d="M23.1384 19.8482L23.1284 19.8378L23.1384 19.8274L23.1484 19.8378L23.1384 19.8482Z" fill="#FF0000" stroke="#FF0000"/>
<path d="M20.0791 23.0326L20.0691 23.0222L20.0791 23.0118L20.0891 23.0222L20.0791 23.0326Z" fill="#FF0000" stroke="#FF0000"/>
<path d="M17.0195 26.217L17.0095 26.2066L17.0195 26.1962L17.0295 26.2066L17.0195 26.217Z" fill="#FF0000" stroke="#FF0000"/>
<path d="M25.1782 17.7254L25.1682 17.715L25.1782 17.7046L25.1882 17.715L25.1782 17.7254Z" fill="#FF0000" stroke="#FF0000"/>
<path d="M22.1189 20.9096L22.1089 20.8992L22.1189 20.8888L22.1289 20.8992L22.1189 20.9096Z" fill="#FF0000" stroke="#FF0000"/>
<path d="M19.0593 24.094L19.0493 24.0836L19.0593 24.0732L19.0693 24.0836L19.0593 24.094Z" fill="#FF0000" stroke="#FF0000"/>
<path d="M15.9998 27.2785L15.9898 27.2681L15.9998 27.2577L16.0097 27.2681L15.9998 27.2785Z" fill="#FF0000" stroke="#FF0000"/>
<path d="M16 8.1726L16.01 8.1622L16 8.1518L15.99 8.1622L16 8.1726Z" fill="#FF0000" stroke="#FF0000"/>
<path d="M17.02 7.11116L17.03 7.10076L17.02 7.09037L17.01 7.10076L17.02 7.11116Z" fill="#FF0000" stroke="#FF0000"/>
<path d="M14.9802 7.11116L14.9902 7.10076L14.9802 7.09037L14.9702 7.10076L14.9802 7.11116Z" fill="#FF0000" stroke="#FF0000"/>
<path d="M13.9607 6.0497L13.9707 6.0393L13.9607 6.0289L13.9507 6.0393L13.9607 6.0497Z" fill="#FF0000" stroke="#FF0000"/>
<path d="M12.9404 4.98827L12.9504 4.97787L12.9404 4.96747L12.9304 4.97787L12.9404 4.98827Z" fill="#FF0000" stroke="#FF0000"/>
<path d="M11.9209 3.92687L11.9309 3.91647L11.9209 3.90607L11.9109 3.91647L11.9209 3.92687Z" fill="#FF0000" stroke="#FF0000"/>
<path d="M10.9009 4.98833L10.9109 4.97793L10.9009 4.96753L10.8909 4.97793L10.9009 4.98833Z" fill="#FF0000" stroke="#FF0000"/>
<path d="M9.8811 3.92687L9.89109 3.91647L9.8811 3.90607L9.87111 3.91647L9.8811 3.92687Z" fill="#FF0000" stroke="#FF0000"/>
<path d="M8.86133 4.98833L8.87132 4.97793L8.86133 4.96753L8.85134 4.97793L8.86133 4.98833Z" fill="#FF0000" stroke="#FF0000"/>
<path d="M7.84155 3.92687L7.85154 3.91647L7.84155 3.90607L7.83156 3.91647L7.84155 3.92687Z" fill="#FF0000" stroke="#FF0000"/>
<path d="M6.82178 4.98836L6.83177 4.97796L6.82178 4.96756L6.81179 4.97796L6.82178 4.98836Z" fill="#FF0000" stroke="#FF0000"/>
<path d="M5.802 6.04979L5.81199 6.03939L5.802 6.02899L5.79201 6.03939L5.802 6.04979Z" fill="#FF0000" stroke="#FF0000"/>
<path d="M4.78223 7.11123L4.79222 7.10083L4.78223 7.09043L4.77224 7.10083L4.78223 7.11123Z" fill="#FF0000" stroke="#FF0000"/>
<path d="M3.7627 8.17269L3.77269 8.16229L3.7627 8.15189L3.7527 8.16229L3.7627 8.17269Z" fill="#FF0000" stroke="#FF0000"/>
<path d="M4.78223 9.23415L4.79222 9.22375L4.78223 9.21335L4.77224 9.22375L4.78223 9.23415Z" fill="#FF0000" stroke="#FF0000"/>
<path d="M3.7627 10.2956L3.77269 10.2852L3.7627 10.2748L3.7527 10.2852L3.7627 10.2956Z" fill="#FF0000" stroke="#FF0000"/>
<path d="M4.78198 11.357L4.79197 11.3466L4.78198 11.3362L4.77199 11.3466L4.78198 11.357Z" fill="#FF0000" stroke="#FF0000"/>
<path d="M3.76245 12.4185L3.77244 12.4081L3.76245 12.3977L3.75246 12.4081L3.76245 12.4185Z" fill="#FF0000" stroke="#FF0000"/>
<path d="M4.78174 13.4799L4.79173 13.4695L4.78174 13.4591L4.77175 13.4695L4.78174 13.4799Z" fill="#FF0000" stroke="#FF0000"/>
<path d="M3.76196 14.5413L3.77195 14.5309L3.76196 14.5205L3.75197 14.5309L3.76196 14.5413Z" fill="#FF0000" stroke="#FF0000"/>
<path d="M4.78174 15.6027L4.79173 15.5923L4.78174 15.5819L4.77175 15.5923L4.78174 15.6027Z" fill="#FF0000" stroke="#FF0000"/>
<path d="M7.84155 18.7871L7.85154 18.7767L7.84155 18.7663L7.83156 18.7767L7.84155 18.7871Z" fill="#FF0000" stroke="#FF0000"/>
<path d="M10.9009 21.9715L10.9109 21.9611L10.9009 21.9507L10.8909 21.9611L10.9009 21.9715Z" fill="#FF0000" stroke="#FF0000"/>
<path d="M13.9607 25.1559L13.9707 25.1455L13.9607 25.1351L13.9507 25.1455L13.9607 25.1559Z" fill="#FF0000" stroke="#FF0000"/>
<path d="M5.80151 16.6642L5.81151 16.6538L5.80151 16.6434L5.79152 16.6538L5.80151 16.6642Z" fill="#FF0000" stroke="#FF0000"/>
<path d="M8.86133 19.8485L8.87132 19.8381L8.86133 19.8277L8.85134 19.8381L8.86133 19.8485Z" fill="#FF0000" stroke="#FF0000"/>
<path d="M11.9209 23.0329L11.9309 23.0225L11.9209 23.0121L11.9109 23.0225L11.9209 23.0329Z" fill="#FF0000" stroke="#FF0000"/>
<path d="M14.9802 26.2173L14.9902 26.2069L14.9802 26.1965L14.9702 26.2069L14.9802 26.2173Z" fill="#FF0000" stroke="#FF0000"/>
<path d="M6.82153 17.7257L6.83152 17.7153L6.82153 17.7049L6.81154 17.7153L6.82153 17.7257Z" fill="#FF0000" stroke="#FF0000"/>
<path d="M9.8811 20.9099L9.89109 20.8995L9.8811 20.8891L9.87111 20.8995L9.8811 20.9099Z" fill="#FF0000" stroke="#FF0000"/>
<path d="M12.9404 24.0943L12.9504 24.0839L12.9404 24.0735L12.9304 24.0839L12.9404 24.0943Z" fill="#FF0000" stroke="#FF0000"/>
<path d="M16.0002 27.2788L16.0102 27.2684L16.0002 27.258L15.9903 27.2684L16.0002 27.2788Z" fill="#FF0000" stroke="#FF0000"/>
</svg>
