<svg width="20" height="20" viewBox="0 0 21 20" fill="none" xmlns="http://www.w3.org/2000/svg">
<path d="M3.39971 13.3333V3.33329H1.7002V1.66663H4.24947C4.47484 1.66663 4.69098 1.75442 4.85034 1.9107C5.0097 2.06698 5.09923 2.27895 5.09923 2.49996V12.5H15.6685L17.368 5.83329H6.79875V4.16663H18.4574C18.5866 4.16663 18.7141 4.19551 18.8301 4.25107C18.9462 4.30664 19.0479 4.38742 19.1273 4.48728C19.2068 4.58714 19.262 4.70346 19.2887 4.82738C19.3155 4.95131 19.3131 5.07958 19.2817 5.20246L17.1573 13.5358C17.1113 13.716 17.0052 13.876 16.8558 13.9902C16.7065 14.1045 16.5225 14.1666 16.333 14.1666H4.24947C4.0241 14.1666 3.80796 14.0788 3.6486 13.9225C3.48924 13.7663 3.39971 13.5543 3.39971 13.3333ZM5.09923 19.1666C4.64849 19.1666 4.21621 18.991 3.89749 18.6785C3.57877 18.3659 3.39971 17.942 3.39971 17.5C3.39971 17.0579 3.57877 16.634 3.89749 16.3214C4.21621 16.0089 4.64849 15.8333 5.09923 15.8333C5.54997 15.8333 5.98225 16.0089 6.30097 16.3214C6.61969 16.634 6.79875 17.0579 6.79875 17.5C6.79875 17.942 6.61969 18.3659 6.30097 18.6785C5.98225 18.991 5.54997 19.1666 5.09923 19.1666ZM15.2963 19.1666C14.8456 19.1666 14.4133 18.991 14.0946 18.6785C13.7759 18.3659 13.5968 17.942 13.5968 17.5C13.5968 17.0579 13.7759 16.634 14.0946 16.3214C14.4133 16.0089 14.8456 15.8333 15.2963 15.8333C15.7471 15.8333 16.1793 16.0089 16.4981 16.3214C16.8168 16.634 16.9958 17.0579 16.9958 17.5C16.9958 17.942 16.8168 18.3659 16.4981 18.6785C16.1793 18.991 15.7471 19.1666 15.2963 19.1666Z" fill="black"/>
</svg>
