<svg width="19" height="19" viewBox="0 0 19 19" fill="none" xmlns="http://www.w3.org/2000/svg">
<path d="M7.10014 15.1511L7.78931 15.8402L8.47847 15.1511L7.78931 14.4619L7.10014 15.1511Z" fill="#FF0000"/>
<path d="M7.86577 14.3853L8.55493 15.0745L9.24409 14.3853L8.55493 13.6962L7.86577 14.3853Z" fill="#FF0000"/>
<path d="M8.63164 13.6196L9.3208 14.3088L10.01 13.6196L9.3208 12.9305L8.63164 13.6196Z" fill="#FF0000"/>
<path d="M9.39726 14.3853L10.0864 15.0745L10.7756 14.3853L10.0864 13.6962L9.39726 14.3853Z" fill="#FF0000"/>
<path d="M10.1629 15.1511L10.8521 15.8402L11.5412 15.1511L10.8521 14.4619L10.1629 15.1511Z" fill="#FF0000"/>
<path d="M10.9288 15.9168L11.6179 16.606L12.3071 15.9168L11.6179 15.2277L10.9288 15.9168Z" fill="#FF0000"/>
<path d="M9.39726 12.8539L10.0864 13.543L10.7756 12.8539L10.0864 12.1647L9.39726 12.8539Z" fill="#FF0000"/>
<path d="M10.1629 13.6196L10.8521 14.3088L11.5412 13.6196L10.8521 12.9305L10.1629 13.6196Z" fill="#FF0000"/>
<path d="M10.9288 14.3853L11.6179 15.0745L12.3071 14.3853L11.6179 13.6962L10.9288 14.3853Z" fill="#FF0000"/>
<path d="M11.6944 15.1511L12.3835 15.8402L13.0727 15.1511L12.3835 14.4619L11.6944 15.1511Z" fill="#FF0000"/>
<path d="M10.1629 12.0881L10.8521 12.7773L11.5412 12.0881L10.8521 11.399L10.1629 12.0881Z" fill="#FF0000"/>
<path d="M10.9288 12.8538L11.6179 13.543L12.3071 12.8538L11.6179 12.1647L10.9288 12.8538Z" fill="#FF0000"/>
<path d="M11.6944 13.6196L12.3835 14.3088L13.0727 13.6196L12.3835 12.9305L11.6944 13.6196Z" fill="#FF0000"/>
<path d="M12.4605 14.3853L13.1497 15.0745L13.8388 14.3853L13.1497 13.6962L12.4605 14.3853Z" fill="#FF0000"/>
<path d="M11.6944 10.5566L12.3835 11.2458L13.0727 10.5566L12.3835 9.86746L11.6944 10.5566Z" fill="#FF0000"/>
<path d="M10.9288 9.79091L11.6179 10.4801L12.3071 9.79091L11.6179 9.10175L10.9288 9.79091Z" fill="#FF0000"/>
<path d="M12.4605 11.3224L13.1497 12.0115L13.8388 11.3224L13.1497 10.6332L12.4605 11.3224Z" fill="#FF0000"/>
<path d="M13.2261 12.0881L13.9153 12.7773L14.6044 12.0881L13.9153 11.399L13.2261 12.0881Z" fill="#FF0000"/>
<path d="M13.992 12.8538L14.6812 13.543L15.3703 12.8538L14.6812 12.1647L13.992 12.8538Z" fill="#FF0000"/>
<path d="M10.9288 11.3224L11.6179 12.0116L12.3071 11.3224L11.6179 10.6332L10.9288 11.3224Z" fill="#FF0000"/>
<path d="M11.6944 12.0881L12.3835 12.7773L13.0727 12.0881L12.3835 11.399L11.6944 12.0881Z" fill="#FF0000"/>
<path d="M12.4605 12.8539L13.1497 13.543L13.8388 12.8539L13.1497 12.1647L12.4605 12.8539Z" fill="#FF0000"/>
<path d="M13.2261 13.6196L13.9153 14.3088L14.6044 13.6196L13.9153 12.9305L13.2261 13.6196Z" fill="#FF0000"/>
<path d="M12.4605 9.79091L13.1497 10.4801L13.8388 9.79091L13.1497 9.10175L12.4605 9.79091Z" fill="#FF0000"/>
<path d="M13.2261 10.5566L13.9153 11.2458L14.6044 10.5566L13.9153 9.86746L13.2261 10.5566Z" fill="#FF0000"/>
<path d="M13.992 11.3224L14.6812 12.0115L15.3703 11.3224L14.6812 10.6332L13.992 11.3224Z" fill="#FF0000"/>
<path d="M14.7576 12.0881L15.4468 12.7773L16.1359 12.0881L15.4468 11.399L14.7576 12.0881Z" fill="#FF0000"/>
<path d="M13.2261 9.02513L13.9153 9.71429L14.6044 9.02513L13.9153 8.33597L13.2261 9.02513Z" fill="#FF0000"/>
<path d="M13.992 9.79091L14.6812 10.4801L15.3703 9.79091L14.6812 9.10175L13.992 9.79091Z" fill="#FF0000"/>
<path d="M14.7576 10.5566L15.4468 11.2458L16.1359 10.5566L15.4468 9.86746L14.7576 10.5566Z" fill="#FF0000"/>
<path d="M15.5232 11.3224L16.2124 12.0115L16.9016 11.3224L16.2124 10.6332L15.5232 11.3224Z" fill="#FF0000"/>
<path d="M13.992 8.25942L14.6812 8.94858L15.3703 8.25942L14.6812 7.57025L13.992 8.25942Z" fill="#FF0000"/>
<path d="M14.7576 9.02513L15.4468 9.71429L16.1359 9.02513L15.4468 8.33597L14.7576 9.02513Z" fill="#FF0000"/>
<path d="M15.5232 9.79091L16.2124 10.4801L16.9016 9.79091L16.2124 9.10175L15.5232 9.79091Z" fill="#FF0000"/>
<path d="M16.2891 10.5566L16.9783 11.2458L17.6674 10.5566L16.9783 9.86746L16.2891 10.5566Z" fill="#FF0000"/>
<path d="M14.7576 7.4937L15.4468 8.18286L16.1359 7.4937L15.4468 6.80454L14.7576 7.4937Z" fill="#FF0000"/>
<path d="M15.5232 8.25948L16.2124 8.94864L16.9016 8.25948L16.2124 7.57031L15.5232 8.25948Z" fill="#FF0000"/>
<path d="M16.2891 9.02519L16.9783 9.71436L17.6674 9.02519L16.9783 8.33603L16.2891 9.02519Z" fill="#FF0000"/>
<path d="M17.0547 9.79091L17.7439 10.4801L18.4331 9.79091L17.7439 9.10175L17.0547 9.79091Z" fill="#FF0000"/>
<path d="M11.6944 4.43077L12.3835 5.11993L13.0727 4.43077L12.3835 3.74161L11.6944 4.43077Z" fill="#FF0000"/>
<path d="M12.4605 5.19652L13.1497 5.88568L13.8388 5.19652L13.1497 4.50736L12.4605 5.19652Z" fill="#FF0000"/>
<path d="M13.2261 5.96227L13.9153 6.65143L14.6044 5.96227L13.9153 5.2731L13.2261 5.96227Z" fill="#FF0000"/>
<path d="M13.992 6.72801L14.6812 7.41718L15.3703 6.72801L14.6812 6.03885L13.992 6.72801Z" fill="#FF0000"/>
<path d="M10.9288 5.19652L11.6179 5.88568L12.3071 5.19652L11.6179 4.50736L10.9288 5.19652Z" fill="#FF0000"/>
<path d="M11.6944 5.96227L12.3835 6.65143L13.0727 5.96227L12.3835 5.2731L11.6944 5.96227Z" fill="#FF0000"/>
<path d="M12.4605 6.72792L13.1497 7.41708L13.8388 6.72792L13.1497 6.03876L12.4605 6.72792Z" fill="#FF0000"/>
<path d="M13.2261 7.49373L13.9153 8.18289L14.6044 7.49373L13.9153 6.80457L13.2261 7.49373Z" fill="#FF0000"/>
<path d="M9.39726 6.72801L10.0864 7.41718L10.7756 6.72801L10.0864 6.03885L9.39726 6.72801Z" fill="#FF0000"/>
<path d="M8.70805 8.94862L9.39722 9.63779L10.0864 8.94862L9.39722 8.25946L8.70805 8.94862Z" fill="black"/>
<path d="M8.70805 10.4801L9.39722 11.1693L10.0864 10.4801L9.39722 9.79096L8.70805 10.4801Z" fill="black"/>
<path d="M7.94219 9.71434L8.63135 10.4035L9.32051 9.71434L8.63135 9.02518L7.94219 9.71434Z" fill="black"/>
<path d="M6.41094 9.71434L7.1001 10.4035L7.78926 9.71434L7.1001 9.02518L6.41094 9.71434Z" fill="black"/>
<path d="M9.47368 9.71434L10.1628 10.4035L10.852 9.71434L10.1628 9.02518L9.47368 9.71434Z" fill="black"/>
<path d="M10.9288 3.66506L11.6179 4.35422L12.3071 3.66506L11.6179 2.97589L10.9288 3.66506Z" fill="#FF0000"/>
<path d="M10.1629 4.43077L10.8521 5.11993L11.5412 4.43077L10.8521 3.74161L10.1629 4.43077Z" fill="#FF0000"/>
<path d="M9.39726 5.19652L10.0864 5.88568L10.7756 5.19652L10.0864 4.50736L9.39726 5.19652Z" fill="#FF0000"/>
<path d="M8.63164 5.96227L9.3208 6.65143L10.01 5.96227L9.3208 5.2731L8.63164 5.96227Z" fill="#FF0000"/>
<path d="M7.86577 5.19652L8.55493 5.88568L9.24409 5.19652L8.55493 4.50736L7.86577 5.19652Z" fill="#FF0000"/>
<path d="M7.10014 4.43077L7.78931 5.11993L8.47847 4.43077L7.78931 3.74161L7.10014 4.43077Z" fill="#FF0000"/>
<path d="M8.63164 4.43077L9.3208 5.11993L10.01 4.43077L9.3208 3.74161L8.63164 4.43077Z" fill="#FF0000"/>
<path d="M10.1629 7.49373L10.8521 8.18289L11.5412 7.49373L10.8521 6.80457L10.1629 7.49373Z" fill="#FF0000"/>
<path d="M10.9288 8.25942L11.6179 8.94858L12.3071 8.25942L11.6179 7.57025L10.9288 8.25942Z" fill="#FF0000"/>
<path d="M11.6944 9.02516L12.3835 9.71432L13.0727 9.02516L12.3835 8.336L11.6944 9.02516Z" fill="#FF0000"/>
<path d="M10.1629 5.96227L10.8521 6.65143L11.5412 5.96227L10.8521 5.2731L10.1629 5.96227Z" fill="#FF0000"/>
<path d="M10.9288 6.72801L11.6179 7.41718L12.3071 6.72801L11.6179 6.03885L10.9288 6.72801Z" fill="#FF0000"/>
<path d="M11.6944 7.4937L12.3835 8.18286L13.0727 7.4937L12.3835 6.80454L11.6944 7.4937Z" fill="#FF0000"/>
<path d="M12.4605 8.25948L13.1497 8.94864L13.8388 8.25948L13.1497 7.57031L12.4605 8.25948Z" fill="#FF0000"/>
<path d="M8.63164 15.1511L9.3208 15.8402L10.01 15.1511L9.3208 14.4619L8.63164 15.1511Z" fill="#FF0000"/>
<path d="M9.39726 15.9168L10.0864 16.606L10.7756 15.9168L10.0864 15.2277L9.39726 15.9168Z" fill="#FF0000"/>
<path d="M9.39726 3.66506L10.0864 4.35422L10.7756 3.66506L10.0864 2.97589L9.39726 3.66506Z" fill="#FF0000"/>
<path d="M7.86577 3.66506L8.55493 4.35422L9.24409 3.66506L8.55493 2.97589L7.86577 3.66506Z" fill="#FF0000"/>
<path d="M6.33428 3.66506L7.02344 4.35422L7.7126 3.66506L7.02344 2.97589L6.33428 3.66506Z" fill="#FF0000"/>
<path d="M7.86577 15.9168L8.55493 16.606L9.24409 15.9168L8.55493 15.2277L7.86577 15.9168Z" fill="#FF0000"/>
<path d="M6.33428 15.9168L7.02344 16.606L7.7126 15.9168L7.02344 15.2277L6.33428 15.9168Z" fill="#FF0000"/>
</svg>
