<svg width="21" height="20" viewBox="0 0 21 20" fill="none" xmlns="http://www.w3.org/2000/svg">
<path d="M15.543 0.647583H14.9609V1.22959H15.543V0.647583Z" fill="#A60321"/>
<path d="M15.543 1.29419H14.9609V1.8762H15.543V1.29419Z" fill="#A60321"/>
<path d="M15.543 1.94177H14.9609V2.52378H15.543V1.94177Z" fill="#A60321"/>
<path d="M14.8955 1.94177H14.3135V2.52378H14.8955V1.94177Z" fill="#A60321"/>
<path d="M14.2481 1.94177H13.666V2.52378H14.2481V1.94177Z" fill="#A60321"/>
<path d="M13.6016 1.94177H13.0195V2.52378H13.6016V1.94177Z" fill="#A60321"/>
<path d="M15.543 2.58948H14.9609V3.17149H15.543V2.58948Z" fill="#A60321"/>
<path d="M14.8955 2.58948H14.3135V3.17149H14.8955V2.58948Z" fill="#A60321"/>
<path d="M14.2481 2.58948H13.666V3.17149H14.2481V2.58948Z" fill="#A60321"/>
<path d="M13.6016 2.58948H13.0195V3.17149H13.6016V2.58948Z" fill="#A60321"/>
<path d="M15.543 3.23596H14.9609V3.81797H15.543V3.23596Z" fill="#A60321"/>
<path d="M14.8955 3.23596H14.3135V3.81797H14.8955V3.23596Z" fill="#A60321"/>
<path d="M14.2481 3.23596H13.666V3.81797H14.2481V3.23596Z" fill="#A60321"/>
<path d="M13.6016 3.23596H13.0195V3.81797H13.6016V3.23596Z" fill="#A60321"/>
<path d="M15.543 4.53125H14.9609V5.11326H15.543V4.53125Z" fill="#A60321"/>
<path d="M16.1904 4.53125H15.6084V5.11326H16.1904V4.53125Z" fill="#A60321"/>
<path d="M14.8955 4.53125H14.3135V5.11326H14.8955V4.53125Z" fill="#A60321"/>
<path d="M14.2481 4.53125H13.666V5.11326H14.2481V4.53125Z" fill="#A60321"/>
<path d="M13.6016 4.53125H13.0195V5.11326H13.6016V4.53125Z" fill="#A60321"/>
<path d="M15.543 3.88367H14.9609V4.46568H15.543V3.88367Z" fill="#A60321"/>
<path d="M14.8955 3.88367H14.3135V4.46568H14.8955V3.88367Z" fill="#A60321"/>
<path d="M14.2481 3.88367H13.666V4.46568H14.2481V3.88367Z" fill="#A60321"/>
<path d="M13.6016 3.88367H13.0195V4.46568H13.6016V3.88367Z" fill="#A60321"/>
<path d="M15.543 5.17773H14.9609V5.75975H15.543V5.17773Z" fill="#A60321"/>
<path d="M14.8955 5.17773H14.3135V5.75975H14.8955V5.17773Z" fill="#A60321"/>
<path d="M14.2481 5.17773H13.666V5.75975H14.2481V5.17773Z" fill="#A60321"/>
<path d="M13.6016 5.17773H13.0195V5.75975H13.6016V5.17773Z" fill="#A60321"/>
<path d="M15.543 5.82544H14.9609V6.40745H15.543V5.82544Z" fill="#A60321"/>
<path d="M14.8955 5.82544H14.3135V6.40745H14.8955V5.82544Z" fill="#A60321"/>
<path d="M14.2481 5.82544H13.666V6.40745H14.2481V5.82544Z" fill="#A60321"/>
<path d="M13.6016 5.82544H13.0195V6.40745H13.6016V5.82544Z" fill="#A60321"/>
<path d="M15.543 6.47302H14.9609V7.05503H15.543V6.47302Z" fill="#A60321"/>
<path d="M14.8955 6.47302H14.3135V7.05503H14.8955V6.47302Z" fill="#A60321"/>
<path d="M14.2481 6.47302H13.666V7.05503H14.2481V6.47302Z" fill="#A60321"/>
<path d="M13.6016 6.47302H13.0195V7.05503H13.6016V6.47302Z" fill="#A60321"/>
<path d="M15.543 7.11963H14.9609V7.70164H15.543V7.11963Z" fill="#A60321"/>
<path d="M14.8955 7.11963H14.3135V7.70164H14.8955V7.11963Z" fill="#A60321"/>
<path d="M14.2481 7.11963H13.666V7.70164H14.2481V7.11963Z" fill="#A60321"/>
<path d="M13.6016 7.11963H13.0195V7.70164H13.6016V7.11963Z" fill="#A60321"/>
<path d="M18.1318 7.11963H17.5498V7.70164H18.1318V7.11963Z" fill="#A60321"/>
<path d="M17.4854 7.11963H16.9033V7.70164H17.4854V7.11963Z" fill="#A60321"/>
<path d="M16.8389 7.11963H16.2568V7.70164H16.8389V7.11963Z" fill="#A60321"/>
<path d="M16.1904 7.11963H15.6084V7.70164H16.1904V7.11963Z" fill="#A60321"/>
<path d="M18.1318 6.47302H17.5498V7.05503H18.1318V6.47302Z" fill="#A60321"/>
<path d="M17.4854 6.47302H16.9033V7.05503H17.4854V6.47302Z" fill="#A60321"/>
<path d="M16.8389 6.47302H16.2568V7.05503H16.8389V6.47302Z" fill="#A60321"/>
<path d="M16.1904 6.47302H15.6084V7.05503H16.1904V6.47302Z" fill="#A60321"/>
<path d="M18.1318 5.17773H17.5498V5.75975H18.1318V5.17773Z" fill="#A60321"/>
<path d="M17.4854 3.94812H16.9033V4.53013H17.4854V3.94812Z" fill="black"/>
<path d="M16.8389 3.30054H16.2568V3.88255H16.8389V3.30054Z" fill="black"/>
<path d="M17.4854 3.30054H16.9033V3.88255H17.4854V3.30054Z" fill="black"/>
<path d="M18.1318 2.65393H17.5498V3.23594H18.1318V2.65393Z" fill="black"/>
<path d="M16.8389 3.94812H16.2568V4.53013H16.8389V3.94812Z" fill="black"/>
<path d="M18.7803 7.11963H18.1982V7.70164H18.7803V7.11963Z" fill="#A60321"/>
<path d="M18.7803 6.47302H18.1982V7.05503H18.7803V6.47302Z" fill="#A60321"/>
<path d="M18.7803 5.82544H18.1982V6.40745H18.7803V5.82544Z" fill="#A60321"/>
<path d="M18.7803 5.17773H18.1982V5.75975H18.7803V5.17773Z" fill="#A60321"/>
<path d="M19.4268 5.17773H18.8447V5.75975H19.4268V5.17773Z" fill="#A60321"/>
<path d="M20.0742 5.17773H19.4922V5.75975H20.0742V5.17773Z" fill="#A60321"/>
<path d="M19.4268 5.82544H18.8447V6.40745H19.4268V5.82544Z" fill="#A60321"/>
<path d="M17.4854 5.17773H16.9033V5.75975H17.4854V5.17773Z" fill="#A60321"/>
<path d="M16.8389 5.17773H16.2568V5.75975H16.8389V5.17773Z" fill="#A60321"/>
<path d="M16.1904 5.17773H15.6084V5.75975H16.1904V5.17773Z" fill="#A60321"/>
<path d="M18.1318 5.82544H17.5498V6.40745H18.1318V5.82544Z" fill="#A60321"/>
<path d="M17.4854 5.82544H16.9033V6.40745H17.4854V5.82544Z" fill="#A60321"/>
<path d="M16.8389 5.82544H16.2568V6.40745H16.8389V5.82544Z" fill="#A60321"/>
<path d="M16.1904 5.82544H15.6084V6.40745H16.1904V5.82544Z" fill="#A60321"/>
<path d="M14.8955 1.29419H14.3135V1.8762H14.8955V1.29419Z" fill="#A60321"/>
<path d="M14.2481 1.29419H13.666V1.8762H14.2481V1.29419Z" fill="#A60321"/>
<path d="M19.4268 6.47302H18.8447V7.05503H19.4268V6.47302Z" fill="#A60321"/>
<path d="M20.0742 5.82544H19.4922V6.40745H20.0742V5.82544Z" fill="#A60321"/>
<path d="M20.7236 5.17773H20.1416V5.75975H20.7236V5.17773Z" fill="#A60321"/>
<path d="M14.8955 0.647583H14.3135V1.22959H14.8955V0.647583Z" fill="#A60321"/>
<path d="M15.543 0H14.9609V0.582011H15.543V0Z" fill="#A60321"/>
<path d="M16.8389 9.0614H16.2568V9.64341H16.8389V9.0614Z" fill="#FF0000"/>
<path d="M17.4844 9.0614H16.9023V9.64341H17.4844V9.0614Z" fill="#FF0000"/>
<path d="M16.8389 9.70898H16.2568V10.291H16.8389V9.70898Z" fill="#FF0000"/>
<path d="M17.4844 9.70898H16.9023V10.291H17.4844V9.70898Z" fill="#FF0000"/>
<path d="M18.7813 9.70898H18.1992V10.291H18.7813V9.70898Z" fill="#FF0000"/>
<path d="M18.7813 9.0614H18.1992V9.64341H18.7813V9.0614Z" fill="black"/>
<path d="M18.7813 10.3556H18.1992V10.9376H18.7813V10.3556Z" fill="black"/>
<path d="M16.1904 10.3556H15.6084V10.9376H16.1904V10.3556Z" fill="black"/>
<path d="M16.1904 9.0614H15.6084V9.64341H16.1904V9.0614Z" fill="black"/>
<path d="M14.8975 9.0614H14.3154V9.64341H14.8975V9.0614Z" fill="black"/>
<path d="M14.8975 9.70898H14.3154V10.291H14.8975V9.70898Z" fill="black"/>
<path d="M14.8975 10.3556H14.3154V10.9376H14.8975V10.3556Z" fill="black"/>
<path d="M20.0742 9.0614H19.4922V9.64341H20.0742V9.0614Z" fill="black"/>
<path d="M20.0742 9.70898H19.4922V10.291H20.0742V9.70898Z" fill="black"/>
<path d="M20.7217 9.70898H20.1396V10.291H20.7217V9.70898Z" fill="black"/>
<path d="M20.0742 10.3556H19.4922V10.9376H20.0742V10.3556Z" fill="black"/>
<path d="M14.249 9.70898H13.667V10.291H14.249V9.70898Z" fill="black"/>
<path d="M16.1904 9.70898H15.6084V10.291H16.1904V9.70898Z" fill="#FF0000"/>
<path d="M16.8389 10.3556H16.2568V10.9376H16.8389V10.3556Z" fill="#FF0000"/>
<path d="M17.4844 10.3556H16.9023V10.9376H17.4844V10.3556Z" fill="#FF0000"/>
<path d="M18.1338 9.0614H17.5518V9.64341H18.1338V9.0614Z" fill="#FF0000"/>
<path d="M18.1338 9.70898H17.5518V10.291H18.1338V9.70898Z" fill="#FF0000"/>
<path d="M16.8389 8.4137H16.2568V8.99571H16.8389V8.4137Z" fill="black"/>
<path d="M17.4844 8.4137H16.9023V8.99571H17.4844V8.4137Z" fill="black"/>
<path d="M18.7813 8.4137H18.1992V8.99571H18.7813V8.4137Z" fill="black"/>
<path d="M16.1904 8.4137H15.6084V8.99571H16.1904V8.4137Z" fill="black"/>
<path d="M18.1338 8.4137H17.5518V8.99571H18.1338V8.4137Z" fill="black"/>
<path d="M16.8389 7.76721H16.2568V8.34922H16.8389V7.76721Z" fill="black"/>
<path d="M17.4844 7.76721H16.9023V8.34922H17.4844V7.76721Z" fill="black"/>
<path d="M18.7813 7.76721H18.1992V8.34922H18.7813V7.76721Z" fill="black"/>
<path d="M16.1904 7.76721H15.6084V8.34922H16.1904V7.76721Z" fill="black"/>
<path d="M18.1338 7.76721H17.5518V8.34922H18.1338V7.76721Z" fill="black"/>
<path d="M16.8389 11.6508H16.2568V12.2328H16.8389V11.6508Z" fill="black"/>
<path d="M17.4844 11.6508H16.9023V12.2328H17.4844V11.6508Z" fill="black"/>
<path d="M18.7813 11.6508H18.1992V12.2328H18.7813V11.6508Z" fill="black"/>
<path d="M16.1904 11.6508H15.6084V12.2328H16.1904V11.6508Z" fill="black"/>
<path d="M18.1338 11.6508H17.5518V12.2328H18.1338V11.6508Z" fill="black"/>
<path d="M16.8389 11.0032H16.2568V11.5852H16.8389V11.0032Z" fill="black"/>
<path d="M15.544 9.0614H14.9619V9.64341H15.544V9.0614Z" fill="black"/>
<path d="M15.544 9.70898H14.9619V10.291H15.544V9.70898Z" fill="black"/>
<path d="M15.544 10.3556H14.9619V10.9376H15.544V10.3556Z" fill="black"/>
<path d="M15.544 8.4137H14.9619V8.99571H15.544V8.4137Z" fill="black"/>
<path d="M15.544 11.0032H14.9619V11.5852H15.544V11.0032Z" fill="black"/>
<path d="M19.4277 9.0614H18.8457V9.64341H19.4277V9.0614Z" fill="black"/>
<path d="M19.4277 9.70898H18.8457V10.291H19.4277V9.70898Z" fill="black"/>
<path d="M19.4277 10.3556H18.8457V10.9376H19.4277V10.3556Z" fill="black"/>
<path d="M19.4277 8.4137H18.8457V8.99571H19.4277V8.4137Z" fill="black"/>
<path d="M19.4277 11.0032H18.8457V11.5852H19.4277V11.0032Z" fill="black"/>
<path d="M17.4844 11.0032H16.9023V11.5852H17.4844V11.0032Z" fill="black"/>
<path d="M18.7813 11.0032H18.1992V11.5852H18.7813V11.0032Z" fill="black"/>
<path d="M16.1904 11.0032H15.6084V11.5852H16.1904V11.0032Z" fill="black"/>
<path d="M18.1338 11.0032H17.5518V11.5852H18.1338V11.0032Z" fill="black"/>
<path d="M18.1338 10.3556H17.5518V10.9376H18.1338V10.3556Z" fill="#FF0000"/>
<path d="M11.0137 7.76721H10.4316V8.34922H11.0137V7.76721Z" fill="#FF0000"/>
<path d="M11.0137 8.4137H10.4316V8.99571H11.0137V8.4137Z" fill="#FF0000"/>
<path d="M12.3086 8.4137H11.7266V8.99571H12.3086V8.4137Z" fill="#FF0000"/>
<path d="M11.6602 9.0614H11.0781V9.64341H11.6602V9.0614Z" fill="#FF0000"/>
<path d="M12.9551 7.76721H12.373V8.34922H12.9551V7.76721Z" fill="#FF0000"/>
<path d="M12.9551 9.70898H12.373V10.291H12.9551V9.70898Z" fill="#FF0000"/>
<path d="M12.3086 9.70898H11.7266V10.291H12.3086V9.70898Z" fill="#FF0000"/>
<path d="M11.0137 11.0032H10.4316V11.5852H11.0137V11.0032Z" fill="#FF0000"/>
<path d="M11.0137 11.6508H10.4316V12.2328H11.0137V11.6508Z" fill="#FF0000"/>
<path d="M12.3086 11.0032H11.7266V11.5852H12.3086V11.0032Z" fill="#FF0000"/>
<path d="M11.6602 10.3556H11.0781V10.9376H11.6602V10.3556Z" fill="#FF0000"/>
<path d="M12.9551 11.6508H12.373V12.2328H12.9551V11.6508Z" fill="#FF0000"/>
<path d="M11.6621 3.23596H11.0801V3.81797H11.6621V3.23596Z" fill="#FF0000"/>
<path d="M11.6621 3.88354H11.0801V4.46556H11.6621V3.88354Z" fill="#FF0000"/>
<path d="M11.0156 3.23694H10.4336V3.81895H11.0156V3.23694Z" fill="#FF0000"/>
<path d="M11.0156 3.88354H10.4336V4.46556H11.0156V3.88354Z" fill="#FF0000"/>
<path d="M11.0156 5.17773H10.4336V5.75975H11.0156V5.17773Z" fill="#FF0000"/>
<path d="M11.6621 5.17773H11.0801V5.75975H11.6621V5.17773Z" fill="black"/>
<path d="M11.6621 2.58826H11.0801V3.17027H11.6621V2.58826Z" fill="black"/>
<path d="M11.6621 1.29407H11.0801V1.87608H11.6621V1.29407Z" fill="black"/>
<path d="M11.0156 1.29517H10.4336V1.87718H11.0156V1.29517Z" fill="black"/>
<path d="M11.6621 6.47192H11.0801V7.05393H11.6621V6.47192Z" fill="black"/>
<path d="M11.0137 6.4729H10.4316V7.05491H11.0137V6.4729Z" fill="black"/>
<path d="M11.0156 7.11951H10.4336V7.70152H11.0156V7.11951Z" fill="black"/>
<path d="M11.0137 0.647583H10.4316V1.22959H11.0137V0.647583Z" fill="black"/>
<path d="M11.0137 2.58936H10.4316V3.17137H11.0137V2.58936Z" fill="#FF0000"/>
<path d="M11.6621 4.53015H11.0801V5.11216H11.6621V4.53015Z" fill="#FF0000"/>
<path d="M11.0137 4.53113H10.4316V5.11314H11.0137V4.53113Z" fill="#FF0000"/>
<path d="M12.3086 3.23596H11.7266V3.81797H12.3086V3.23596Z" fill="black"/>
<path d="M12.3086 3.88354H11.7266V4.46556H12.3086V3.88354Z" fill="black"/>
<path d="M12.3086 5.17773H11.7266V5.75975H12.3086V5.17773Z" fill="black"/>
<path d="M12.3086 2.58936H11.7266V3.17137H12.3086V2.58936Z" fill="black"/>
<path d="M12.3086 4.53113H11.7266V5.11314H12.3086V4.53113Z" fill="black"/>
<path d="M12.957 3.23694H12.375V3.81895H12.957V3.23694Z" fill="black"/>
<path d="M12.957 3.88354H12.375V4.46556H12.957V3.88354Z" fill="black"/>
<path d="M12.957 5.17773H12.375V5.75975H12.957V5.17773Z" fill="black"/>
<path d="M12.9551 2.58936H12.373V3.17137H12.9551V2.58936Z" fill="black"/>
<path d="M12.9551 4.53113H12.373V5.11314H12.9551V4.53113Z" fill="black"/>
<path d="M11.6621 1.94177H11.0801V2.52378H11.6621V1.94177Z" fill="black"/>
<path d="M11.0156 1.94177H10.4336V2.52378H11.0156V1.94177Z" fill="black"/>
<path d="M12.3086 1.94177H11.7266V2.52378H12.3086V1.94177Z" fill="black"/>
<path d="M11.6621 5.82434H11.0801V6.40635H11.6621V5.82434Z" fill="black"/>
<path d="M11.0156 5.82532H10.4336V6.40733H11.0156V5.82532Z" fill="black"/>
<path d="M12.3086 5.82532H11.7266V6.40733H12.3086V5.82532Z" fill="black"/>
<path d="M15.543 18.7704H14.9609V19.3524H15.543V18.7704Z" fill="#A60321"/>
<path d="M15.543 18.1228H14.9609V18.7048H15.543V18.1228Z" fill="#A60321"/>
<path d="M15.543 17.4762H14.9609V18.0582H15.543V17.4762Z" fill="#A60321"/>
<path d="M14.8955 17.4762H14.3135V18.0582H14.8955V17.4762Z" fill="#A60321"/>
<path d="M14.2481 17.4762H13.666V18.0582H14.2481V17.4762Z" fill="#A60321"/>
<path d="M13.6016 17.4762H13.0195V18.0582H13.6016V17.4762Z" fill="#A60321"/>
<path d="M15.543 16.8286H14.9609V17.4106H15.543V16.8286Z" fill="#A60321"/>
<path d="M14.8955 16.8286H14.3135V17.4106H14.8955V16.8286Z" fill="#A60321"/>
<path d="M14.2481 16.8286H13.666V17.4106H14.2481V16.8286Z" fill="#A60321"/>
<path d="M13.6016 16.8286H13.0195V17.4106H13.6016V16.8286Z" fill="#A60321"/>
<path d="M15.543 16.181H14.9609V16.763H15.543V16.181Z" fill="#A60321"/>
<path d="M14.8955 16.181H14.3135V16.763H14.8955V16.181Z" fill="#A60321"/>
<path d="M14.2481 16.181H13.666V16.763H14.2481V16.181Z" fill="#A60321"/>
<path d="M13.6016 16.181H13.0195V16.763H13.6016V16.181Z" fill="#A60321"/>
<path d="M15.543 14.8868H14.9609V15.4689H15.543V14.8868Z" fill="#A60321"/>
<path d="M16.1904 14.8868H15.6084V15.4689H16.1904V14.8868Z" fill="#A60321"/>
<path d="M14.8955 14.8868H14.3135V15.4689H14.8955V14.8868Z" fill="#A60321"/>
<path d="M14.2481 14.8868H13.666V15.4689H14.2481V14.8868Z" fill="#A60321"/>
<path d="M13.6016 14.8868H13.0195V15.4689H13.6016V14.8868Z" fill="#A60321"/>
<path d="M15.543 15.5344H14.9609V16.1164H15.543V15.5344Z" fill="#A60321"/>
<path d="M14.8955 15.5344H14.3135V16.1164H14.8955V15.5344Z" fill="#A60321"/>
<path d="M14.2481 15.5344H13.666V16.1164H14.2481V15.5344Z" fill="#A60321"/>
<path d="M13.6016 15.5344H13.0195V16.1164H13.6016V15.5344Z" fill="#A60321"/>
<path d="M15.543 14.2391H14.9609V14.8211H15.543V14.2391Z" fill="#A60321"/>
<path d="M14.8955 14.2391H14.3135V14.8211H14.8955V14.2391Z" fill="#A60321"/>
<path d="M14.2481 14.2391H13.666V14.8211H14.2481V14.2391Z" fill="#A60321"/>
<path d="M13.6016 14.2391H13.0195V14.8211H13.6016V14.2391Z" fill="#A60321"/>
<path d="M15.543 13.5927H14.9609V14.1747H15.543V13.5927Z" fill="#A60321"/>
<path d="M14.8955 13.5927H14.3135V14.1747H14.8955V13.5927Z" fill="#A60321"/>
<path d="M14.2481 13.5927H13.666V14.1747H14.2481V13.5927Z" fill="#A60321"/>
<path d="M13.6016 13.5927H13.0195V14.1747H13.6016V13.5927Z" fill="#A60321"/>
<path d="M15.543 12.9449H14.9609V13.527H15.543V12.9449Z" fill="#A60321"/>
<path d="M14.8955 12.9449H14.3135V13.527H14.8955V12.9449Z" fill="#A60321"/>
<path d="M14.2481 12.9449H13.666V13.527H14.2481V12.9449Z" fill="#A60321"/>
<path d="M13.6016 12.9449H13.0195V13.527H13.6016V12.9449Z" fill="#A60321"/>
<path d="M15.543 12.2974H14.9609V12.8794H15.543V12.2974Z" fill="#A60321"/>
<path d="M14.8955 12.2974H14.3135V12.8794H14.8955V12.2974Z" fill="#A60321"/>
<path d="M14.2481 12.2974H13.666V12.8794H14.2481V12.2974Z" fill="#A60321"/>
<path d="M13.6016 12.2974H13.0195V12.8794H13.6016V12.2974Z" fill="#A60321"/>
<path d="M18.1318 12.2974H17.5498V12.8794H18.1318V12.2974Z" fill="#A60321"/>
<path d="M17.4854 12.2974H16.9033V12.8794H17.4854V12.2974Z" fill="#A60321"/>
<path d="M16.8389 12.2974H16.2568V12.8794H16.8389V12.2974Z" fill="#A60321"/>
<path d="M16.1904 12.2974H15.6084V12.8794H16.1904V12.2974Z" fill="#A60321"/>
<path d="M18.1318 12.9449H17.5498V13.527H18.1318V12.9449Z" fill="#A60321"/>
<path d="M17.4854 12.9449H16.9033V13.527H17.4854V12.9449Z" fill="#A60321"/>
<path d="M16.8389 12.9449H16.2568V13.527H16.8389V12.9449Z" fill="#A60321"/>
<path d="M16.1904 12.9449H15.6084V13.527H16.1904V12.9449Z" fill="#A60321"/>
<path d="M18.1318 14.2391H17.5498V14.8211H18.1318V14.2391Z" fill="#A60321"/>
<path d="M17.4854 15.4688H16.9033V16.0508H17.4854V15.4688Z" fill="black"/>
<path d="M16.8389 16.1165H16.2568V16.6985H16.8389V16.1165Z" fill="black"/>
<path d="M17.4854 16.1165H16.9033V16.6985H17.4854V16.1165Z" fill="black"/>
<path d="M18.1318 16.764H17.5498V17.346H18.1318V16.764Z" fill="black"/>
<path d="M16.8389 15.4688H16.2568V16.0508H16.8389V15.4688Z" fill="black"/>
<path d="M18.7803 12.2974H18.1982V12.8794H18.7803V12.2974Z" fill="#A60321"/>
<path d="M18.7803 12.9449H18.1982V13.527H18.7803V12.9449Z" fill="#A60321"/>
<path d="M18.7803 13.5927H18.1982V14.1747H18.7803V13.5927Z" fill="#A60321"/>
<path d="M18.7803 14.2391H18.1982V14.8211H18.7803V14.2391Z" fill="#A60321"/>
<path d="M19.4268 14.2391H18.8447V14.8211H19.4268V14.2391Z" fill="#A60321"/>
<path d="M20.0742 14.2391H19.4922V14.8211H20.0742V14.2391Z" fill="#A60321"/>
<path d="M19.4268 13.5927H18.8447V14.1747H19.4268V13.5927Z" fill="#A60321"/>
<path d="M17.4854 14.2391H16.9033V14.8211H17.4854V14.2391Z" fill="#A60321"/>
<path d="M16.8389 14.2391H16.2568V14.8211H16.8389V14.2391Z" fill="#A60321"/>
<path d="M16.1904 14.2391H15.6084V14.8211H16.1904V14.2391Z" fill="#A60321"/>
<path d="M18.1318 13.5927H17.5498V14.1747H18.1318V13.5927Z" fill="#A60321"/>
<path d="M17.4854 13.5927H16.9033V14.1747H17.4854V13.5927Z" fill="#A60321"/>
<path d="M16.8389 13.5927H16.2568V14.1747H16.8389V13.5927Z" fill="#A60321"/>
<path d="M16.1904 13.5927H15.6084V14.1747H16.1904V13.5927Z" fill="#A60321"/>
<path d="M14.8955 18.1228H14.3135V18.7048H14.8955V18.1228Z" fill="#A60321"/>
<path d="M14.2481 18.1228H13.666V18.7048H14.2481V18.1228Z" fill="#A60321"/>
<path d="M19.4268 12.9449H18.8447V13.527H19.4268V12.9449Z" fill="#A60321"/>
<path d="M20.0742 13.5927H19.4922V14.1747H20.0742V13.5927Z" fill="#A60321"/>
<path d="M20.7236 14.2391H20.1416V14.8211H20.7236V14.2391Z" fill="#A60321"/>
<path d="M14.8955 18.7704H14.3135V19.3524H14.8955V18.7704Z" fill="#A60321"/>
<path d="M15.543 19.418H14.9609V20H15.543V19.418Z" fill="#A60321"/>
<path d="M11.6621 16.1821H11.0801V16.7641H11.6621V16.1821Z" fill="#FF0000"/>
<path d="M11.6621 15.5355H11.0801V16.1175H11.6621V15.5355Z" fill="#FF0000"/>
<path d="M11.0137 16.1821H10.4316V16.7641H11.0137V16.1821Z" fill="#FF0000"/>
<path d="M11.0156 15.5344H10.4336V16.1164H11.0156V15.5344Z" fill="#FF0000"/>
<path d="M11.0137 14.2402H10.4316V14.8222H11.0137V14.2402Z" fill="#FF0000"/>
<path d="M11.6621 14.2402H11.0801V14.8222H11.6621V14.2402Z" fill="black"/>
<path d="M11.6621 16.8297H11.0801V17.4117H11.6621V16.8297Z" fill="black"/>
<path d="M11.6621 18.1239H11.0801V18.7059H11.6621V18.1239Z" fill="black"/>
<path d="M11.0137 18.1228H10.4316V18.7048H11.0137V18.1228Z" fill="black"/>
<path d="M11.6621 12.946H11.0801V13.5281H11.6621V12.946Z" fill="black"/>
<path d="M11.0137 12.9451H10.4316V13.5271H11.0137V12.9451Z" fill="black"/>
<path d="M11.0137 12.2985H10.4316V12.8805H11.0137V12.2985Z" fill="black"/>
<path d="M11.0137 18.7704H10.4316V19.3524H11.0137V18.7704Z" fill="black"/>
<path d="M11.0137 16.8286H10.4316V17.4106H11.0137V16.8286Z" fill="#FF0000"/>
<path d="M11.6621 14.8879H11.0801V15.47H11.6621V14.8879Z" fill="#FF0000"/>
<path d="M11.0137 14.8868H10.4316V15.4689H11.0137V14.8868Z" fill="#FF0000"/>
<path d="M12.3086 16.1821H11.7266V16.7641H12.3086V16.1821Z" fill="black"/>
<path d="M12.3086 15.5344H11.7266V16.1164H12.3086V15.5344Z" fill="black"/>
<path d="M12.3086 14.2402H11.7266V14.8222H12.3086V14.2402Z" fill="black"/>
<path d="M12.3086 16.8286H11.7266V17.4106H12.3086V16.8286Z" fill="black"/>
<path d="M12.3086 14.8879H11.7266V15.47H12.3086V14.8879Z" fill="black"/>
<path d="M12.9551 16.181H12.373V16.763H12.9551V16.181Z" fill="black"/>
<path d="M12.957 15.5344H12.375V16.1164H12.957V15.5344Z" fill="black"/>
<path d="M12.9551 14.2402H12.373V14.8222H12.9551V14.2402Z" fill="black"/>
<path d="M12.9551 16.8286H12.373V17.4106H12.9551V16.8286Z" fill="black"/>
<path d="M12.9551 14.8868H12.373V15.4689H12.9551V14.8868Z" fill="black"/>
<path d="M11.6621 17.4763H11.0801V18.0583H11.6621V17.4763Z" fill="black"/>
<path d="M11.0156 17.4763H10.4336V18.0583H11.0156V17.4763Z" fill="black"/>
<path d="M12.3086 17.4763H11.7266V18.0583H12.3086V17.4763Z" fill="black"/>
<path d="M11.6621 13.5938H11.0801V14.1758H11.6621V13.5938Z" fill="black"/>
<path d="M11.0156 13.5927H10.4336V14.1747H11.0156V13.5927Z" fill="black"/>
<path d="M12.3086 13.5927H11.7266V14.1747H12.3086V13.5927Z" fill="black"/>
<path d="M6.48439 0.647583H5.90234V1.22959H6.48439V0.647583Z" fill="#A60321"/>
<path d="M6.48439 1.29529H5.90234V1.8773H6.48439V1.29529Z" fill="#A60321"/>
<path d="M6.48439 1.94177H5.90234V2.52378H6.48439V1.94177Z" fill="#A60321"/>
<path d="M7.13087 1.94177H6.54883V2.52378H7.13087V1.94177Z" fill="#A60321"/>
<path d="M7.77638 1.94177H7.19434V2.52378H7.77638V1.94177Z" fill="#A60321"/>
<path d="M8.42482 1.94177H7.84277V2.52378H8.42482V1.94177Z" fill="#A60321"/>
<path d="M6.48439 2.58948H5.90234V3.17149H6.48439V2.58948Z" fill="#A60321"/>
<path d="M7.13087 2.58948H6.54883V3.17149H7.13087V2.58948Z" fill="#A60321"/>
<path d="M7.77638 2.58948H7.19434V3.17149H7.77638V2.58948Z" fill="#A60321"/>
<path d="M8.42482 2.58948H7.84277V3.17149H8.42482V2.58948Z" fill="#A60321"/>
<path d="M6.48439 3.23706H5.90234V3.81907H6.48439V3.23706Z" fill="#A60321"/>
<path d="M7.13087 3.23706H6.54883V3.81907H7.13087V3.23706Z" fill="#A60321"/>
<path d="M7.77638 3.23706H7.19434V3.81907H7.77638V3.23706Z" fill="#A60321"/>
<path d="M8.42482 3.23706H7.84277V3.81907H8.42482V3.23706Z" fill="#A60321"/>
<path d="M6.48439 4.53125H5.90234V5.11326H6.48439V4.53125Z" fill="#A60321"/>
<path d="M5.83497 4.53125H5.25293V5.11326H5.83497V4.53125Z" fill="#A60321"/>
<path d="M7.13087 4.53125H6.54883V5.11326H7.13087V4.53125Z" fill="#A60321"/>
<path d="M7.77638 4.53125H7.19434V5.11326H7.77638V4.53125Z" fill="#A60321"/>
<path d="M8.42482 4.53125H7.84277V5.11326H8.42482V4.53125Z" fill="#A60321"/>
<path d="M6.48439 3.88367H5.90234V4.46568H6.48439V3.88367Z" fill="#A60321"/>
<path d="M7.13087 3.88367H6.54883V4.46568H7.13087V3.88367Z" fill="#A60321"/>
<path d="M7.77638 3.88367H7.19434V4.46568H7.77638V3.88367Z" fill="#A60321"/>
<path d="M8.42482 3.88367H7.84277V4.46568H8.42482V3.88367Z" fill="#A60321"/>
<path d="M6.48439 5.17883H5.90234V5.76084H6.48439V5.17883Z" fill="#A60321"/>
<path d="M7.13087 5.17883H6.54883V5.76084H7.13087V5.17883Z" fill="#A60321"/>
<path d="M7.77638 5.17883H7.19434V5.76084H7.77638V5.17883Z" fill="#A60321"/>
<path d="M8.42482 5.17883H7.84277V5.76084H8.42482V5.17883Z" fill="#A60321"/>
<path d="M6.48439 5.82544H5.90234V6.40745H6.48439V5.82544Z" fill="#A60321"/>
<path d="M7.13087 5.82544H6.54883V6.40745H7.13087V5.82544Z" fill="#A60321"/>
<path d="M7.77638 5.82544H7.19434V6.40745H7.77638V5.82544Z" fill="#A60321"/>
<path d="M8.42482 5.82544H7.84277V6.40745H8.42482V5.82544Z" fill="#A60321"/>
<path d="M6.48439 6.47192H5.90234V7.05393H6.48439V6.47192Z" fill="#A60321"/>
<path d="M7.13087 6.47192H6.54883V7.05393H7.13087V6.47192Z" fill="#A60321"/>
<path d="M7.77638 6.47192H7.19434V7.05393H7.77638V6.47192Z" fill="#A60321"/>
<path d="M8.42482 6.47192H7.84277V7.05393H8.42482V6.47192Z" fill="#A60321"/>
<path d="M6.48439 7.12061H5.90234V7.70262H6.48439V7.12061Z" fill="#A60321"/>
<path d="M7.13087 7.12061H6.54883V7.70262H7.13087V7.12061Z" fill="#A60321"/>
<path d="M7.77638 7.12061H7.19434V7.70262H7.77638V7.12061Z" fill="#A60321"/>
<path d="M8.42482 7.12061H7.84277V7.70262H8.42482V7.12061Z" fill="#A60321"/>
<path d="M3.89259 7.12061H3.31055V7.70262H3.89259V7.12061Z" fill="#A60321"/>
<path d="M4.54298 7.12061H3.96094V7.70262H4.54298V7.12061Z" fill="#A60321"/>
<path d="M5.18947 7.12061H4.60742V7.70262H5.18947V7.12061Z" fill="#A60321"/>
<path d="M5.83497 7.12061H5.25293V7.70262H5.83497V7.12061Z" fill="#A60321"/>
<path d="M3.89259 6.47192H3.31055V7.05393H3.89259V6.47192Z" fill="#A60321"/>
<path d="M4.54298 6.47192H3.96094V7.05393H4.54298V6.47192Z" fill="#A60321"/>
<path d="M5.18947 6.47192H4.60742V7.05393H5.18947V6.47192Z" fill="#A60321"/>
<path d="M5.83497 6.47192H5.25293V7.05393H5.83497V6.47192Z" fill="#A60321"/>
<path d="M3.89259 5.17883H3.31055V5.76084H3.89259V5.17883Z" fill="#A60321"/>
<path d="M4.54298 3.94922H3.96094V4.53123H4.54298V3.94922Z" fill="black"/>
<path d="M5.18947 3.30164H4.60742V3.88365H5.18947V3.30164Z" fill="black"/>
<path d="M4.54298 3.30164H3.96094V3.88365H4.54298V3.30164Z" fill="black"/>
<path d="M3.89259 2.65393H3.31055V3.23594H3.89259V2.65393Z" fill="black"/>
<path d="M5.18947 3.94922H4.60742V4.53123H5.18947V3.94922Z" fill="black"/>
<path d="M3.24708 7.12061H2.66504V7.70262H3.24708V7.12061Z" fill="#A60321"/>
<path d="M3.24708 6.47192H2.66504V7.05393H3.24708V6.47192Z" fill="#A60321"/>
<path d="M3.24708 5.82544H2.66504V6.40745H3.24708V5.82544Z" fill="#A60321"/>
<path d="M3.24708 5.17883H2.66504V5.76084H3.24708V5.17883Z" fill="#A60321"/>
<path d="M2.59962 5.17883H2.01758V5.76084H2.59962V5.17883Z" fill="#A60321"/>
<path d="M1.95216 5.17883H1.37012V5.76084H1.95216V5.17883Z" fill="#A60321"/>
<path d="M2.59962 5.82544H2.01758V6.40745H2.59962V5.82544Z" fill="#A60321"/>
<path d="M4.54298 5.17883H3.96094V5.76084H4.54298V5.17883Z" fill="#A60321"/>
<path d="M5.18947 5.17883H4.60742V5.76084H5.18947V5.17883Z" fill="#A60321"/>
<path d="M5.83497 5.17883H5.25293V5.76084H5.83497V5.17883Z" fill="#A60321"/>
<path d="M3.89259 5.82544H3.31055V6.40745H3.89259V5.82544Z" fill="#A60321"/>
<path d="M4.54298 5.82544H3.96094V6.40745H4.54298V5.82544Z" fill="#A60321"/>
<path d="M5.18947 5.82544H4.60742V6.40745H5.18947V5.82544Z" fill="#A60321"/>
<path d="M5.83497 5.82544H5.25293V6.40745H5.83497V5.82544Z" fill="#A60321"/>
<path d="M7.13087 1.29529H6.54883V1.8773H7.13087V1.29529Z" fill="#A60321"/>
<path d="M7.77638 1.29529H7.19434V1.8773H7.77638V1.29529Z" fill="#A60321"/>
<path d="M2.59962 6.47192H2.01758V7.05393H2.59962V6.47192Z" fill="#A60321"/>
<path d="M1.95216 5.82544H1.37012V6.40745H1.95216V5.82544Z" fill="#A60321"/>
<path d="M1.30568 5.17883H0.723633V5.76084H1.30568V5.17883Z" fill="#A60321"/>
<path d="M7.13087 0.647583H6.54883V1.22959H7.13087V0.647583Z" fill="#A60321"/>
<path d="M6.48439 0H5.90234V0.582011H6.48439V0Z" fill="#A60321"/>
<path d="M5.83204 9.06238H5.25V9.64439H5.83204V9.06238Z" fill="#FF0000"/>
<path d="M5.18556 9.06238H4.60352V9.64439H5.18556V9.06238Z" fill="#FF0000"/>
<path d="M5.83204 9.70898H5.25V10.291H5.83204V9.70898Z" fill="#FF0000"/>
<path d="M5.18556 9.70898H4.60352V10.291H5.18556V9.70898Z" fill="#FF0000"/>
<path d="M3.88966 9.70898H3.30762V10.291H3.88966V9.70898Z" fill="#FF0000"/>
<path d="M3.88966 9.06238H3.30762V9.64439H3.88966V9.06238Z" fill="black"/>
<path d="M3.88966 10.3566H3.30762V10.9386H3.88966V10.3566Z" fill="black"/>
<path d="M6.47951 10.3566H5.89746V10.9386H6.47951V10.3566Z" fill="black"/>
<path d="M6.47951 9.06238H5.89746V9.64439H6.47951V9.06238Z" fill="black"/>
<path d="M7.77345 9.06238H7.19141V9.64439H7.77345V9.06238Z" fill="black"/>
<path d="M7.77345 9.70898H7.19141V10.291H7.77345V9.70898Z" fill="black"/>
<path d="M7.77345 10.3566H7.19141V10.9386H7.77345V10.3566Z" fill="black"/>
<path d="M2.59669 9.06238H2.01465V9.64439H2.59669V9.06238Z" fill="black"/>
<path d="M2.59669 9.70898H2.01465V10.291H2.59669V9.70898Z" fill="black"/>
<path d="M1.94826 9.70898H1.36621V10.291H1.94826V9.70898Z" fill="black"/>
<path d="M2.59669 10.3566H2.01465V10.9386H2.59669V10.3566Z" fill="black"/>
<path d="M8.42091 9.70898H7.83887V10.291H8.42091V9.70898Z" fill="black"/>
<path d="M6.47951 9.70898H5.89746V10.291H6.47951V9.70898Z" fill="#FF0000"/>
<path d="M5.83204 10.3566H5.25V10.9386H5.83204V10.3566Z" fill="#FF0000"/>
<path d="M5.18556 10.3566H4.60352V10.9386H5.18556V10.3566Z" fill="#FF0000"/>
<path d="M4.54005 9.06238H3.95801V9.64439H4.54005V9.06238Z" fill="#FF0000"/>
<path d="M4.54005 9.70898H3.95801V10.291H4.54005V9.70898Z" fill="#FF0000"/>
<path d="M5.83204 8.41479H5.25V8.99681H5.83204V8.41479Z" fill="black"/>
<path d="M5.18556 8.41479H4.60352V8.99681H5.18556V8.41479Z" fill="black"/>
<path d="M3.88966 8.41479H3.30762V8.99681H3.88966V8.41479Z" fill="black"/>
<path d="M6.47951 8.41479H5.89746V8.99681H6.47951V8.41479Z" fill="black"/>
<path d="M4.54005 8.41479H3.95801V8.99681H4.54005V8.41479Z" fill="black"/>
<path d="M5.83204 7.76721H5.25V8.34922H5.83204V7.76721Z" fill="black"/>
<path d="M5.18556 7.76721H4.60352V8.34922H5.18556V7.76721Z" fill="black"/>
<path d="M3.88966 7.76721H3.30762V8.34922H3.88966V7.76721Z" fill="black"/>
<path d="M6.47951 7.76721H5.89746V8.34922H6.47951V7.76721Z" fill="black"/>
<path d="M4.54005 7.76721H3.95801V8.34922H4.54005V7.76721Z" fill="black"/>
<path d="M5.83204 11.6508H5.25V12.2328H5.83204V11.6508Z" fill="black"/>
<path d="M5.18556 11.6508H4.60352V12.2328H5.18556V11.6508Z" fill="black"/>
<path d="M3.88966 11.6508H3.30762V12.2328H3.88966V11.6508Z" fill="black"/>
<path d="M6.47951 11.6508H5.89746V12.2328H6.47951V11.6508Z" fill="black"/>
<path d="M4.54005 11.6508H3.95801V12.2328H4.54005V11.6508Z" fill="black"/>
<path d="M5.83204 11.0043H5.25V11.5863H5.83204V11.0043Z" fill="black"/>
<path d="M7.12697 9.06238H6.54492V9.64439H7.12697V9.06238Z" fill="black"/>
<path d="M7.12697 9.70898H6.54492V10.291H7.12697V9.70898Z" fill="black"/>
<path d="M7.12697 10.3566H6.54492V10.9386H7.12697V10.3566Z" fill="black"/>
<path d="M7.12697 8.41479H6.54492V8.99681H7.12697V8.41479Z" fill="black"/>
<path d="M7.12697 11.0043H6.54492V11.5863H7.12697V11.0043Z" fill="black"/>
<path d="M3.2422 9.06238H2.66016V9.64439H3.2422V9.06238Z" fill="black"/>
<path d="M3.2422 9.70898H2.66016V10.291H3.2422V9.70898Z" fill="black"/>
<path d="M3.2422 10.3566H2.66016V10.9386H3.2422V10.3566Z" fill="black"/>
<path d="M3.2422 8.41479H2.66016V8.99681H3.2422V8.41479Z" fill="black"/>
<path d="M3.2422 11.0043H2.66016V11.5863H3.2422V11.0043Z" fill="black"/>
<path d="M5.18556 11.0043H4.60352V11.5863H5.18556V11.0043Z" fill="black"/>
<path d="M3.88966 11.0043H3.30762V11.5863H3.88966V11.0043Z" fill="black"/>
<path d="M6.47951 11.0043H5.89746V11.5863H6.47951V11.0043Z" fill="black"/>
<path d="M4.54005 11.0043H3.95801V11.5863H4.54005V11.0043Z" fill="black"/>
<path d="M4.54005 10.3566H3.95801V10.9386H4.54005V10.3566Z" fill="#FF0000"/>
<path d="M11.0137 7.76721H10.4316V8.34922H11.0137V7.76721Z" fill="#FF0000"/>
<path d="M11.0137 8.41479H10.4316V8.99681H11.0137V8.41479Z" fill="#FF0000"/>
<path d="M9.72072 8.41479H9.13867V8.99681H9.72072V8.41479Z" fill="#FF0000"/>
<path d="M10.3662 9.06238H9.78418V9.64439H10.3662V9.06238Z" fill="#FF0000"/>
<path d="M9.07228 7.76721H8.49023V8.34922H9.07228V7.76721Z" fill="#FF0000"/>
<path d="M9.07228 9.70898H8.49023V10.291H9.07228V9.70898Z" fill="#FF0000"/>
<path d="M9.72072 9.70898H9.13867V10.291H9.72072V9.70898Z" fill="#FF0000"/>
<path d="M11.0137 11.0043H10.4316V11.5863H11.0137V11.0043Z" fill="#FF0000"/>
<path d="M11.0137 11.6508H10.4316V12.2328H11.0137V11.6508Z" fill="#FF0000"/>
<path d="M9.72072 11.0043H9.13867V11.5863H9.72072V11.0043Z" fill="#FF0000"/>
<path d="M10.3662 10.3566H9.78418V10.9386H10.3662V10.3566Z" fill="#FF0000"/>
<path d="M9.07228 11.6508H8.49023V12.2328H9.07228V11.6508Z" fill="#FF0000"/>
<path d="M10.3643 3.23596H9.78223V3.81797H10.3643V3.23596Z" fill="#FF0000"/>
<path d="M10.3643 3.88354H9.78223V4.46556H10.3643V3.88354Z" fill="#FF0000"/>
<path d="M11.0137 3.23694H10.4316V3.81895H11.0137V3.23694Z" fill="#FF0000"/>
<path d="M11.0137 3.88354H10.4316V4.46556H11.0137V3.88354Z" fill="#FF0000"/>
<path d="M11.0137 5.17773H10.4316V5.75975H11.0137V5.17773Z" fill="#FF0000"/>
<path d="M10.3643 5.17773H9.78223V5.75975H10.3643V5.17773Z" fill="black"/>
<path d="M10.3643 2.58936H9.78223V3.17137H10.3643V2.58936Z" fill="black"/>
<path d="M10.3643 1.29407H9.78223V1.87608H10.3643V1.29407Z" fill="black"/>
<path d="M11.0137 1.29517H10.4316V1.87718H11.0137V1.29517Z" fill="black"/>
<path d="M10.3643 6.47192H9.78223V7.05393H10.3643V6.47192Z" fill="black"/>
<path d="M11.0117 6.4729H10.4297V7.05491H11.0117V6.4729Z" fill="black"/>
<path d="M11.0137 7.11951H10.4316V7.70152H11.0137V7.11951Z" fill="black"/>
<path d="M11.0117 0.647583H10.4297V1.22959H11.0117V0.647583Z" fill="black"/>
<path d="M11.0117 2.58936H10.4297V3.17137H11.0117V2.58936Z" fill="#FF0000"/>
<path d="M10.3643 4.53015H9.78223V5.11216H10.3643V4.53015Z" fill="#FF0000"/>
<path d="M11.0117 4.53113H10.4297V5.11314H11.0117V4.53113Z" fill="#FF0000"/>
<path d="M9.71876 3.23596H9.13672V3.81797H9.71876V3.23596Z" fill="black"/>
<path d="M9.71876 3.88245H9.13672V4.46446H9.71876V3.88245Z" fill="black"/>
<path d="M9.71876 5.17773H9.13672V5.75975H9.71876V5.17773Z" fill="black"/>
<path d="M9.71876 2.58826H9.13672V3.17027H9.71876V2.58826Z" fill="black"/>
<path d="M9.71876 4.53015H9.13672V5.11216H9.71876V4.53015Z" fill="black"/>
<path d="M9.07228 3.23596H8.49023V3.81797H9.07228V3.23596Z" fill="black"/>
<path d="M9.07228 3.88354H8.49023V4.46556H9.07228V3.88354Z" fill="black"/>
<path d="M9.07228 5.17773H8.49023V5.75975H9.07228V5.17773Z" fill="black"/>
<path d="M9.07033 2.58936H8.48828V3.17137H9.07033V2.58936Z" fill="black"/>
<path d="M9.07033 4.53113H8.48828V5.11314H9.07033V4.53113Z" fill="black"/>
<path d="M10.3643 1.94177H9.78223V2.52378H10.3643V1.94177Z" fill="black"/>
<path d="M11.0137 1.94177H10.4316V2.52378H11.0137V1.94177Z" fill="black"/>
<path d="M9.71876 1.94177H9.13672V2.52378H9.71876V1.94177Z" fill="black"/>
<path d="M10.3643 5.82532H9.78223V6.40733H10.3643V5.82532Z" fill="black"/>
<path d="M11.0137 5.82532H10.4316V6.40733H11.0137V5.82532Z" fill="black"/>
<path d="M9.71876 5.82434H9.13672V6.40635H9.71876V5.82434Z" fill="black"/>
<path d="M6.48439 18.7704H5.90234V19.3524H6.48439V18.7704Z" fill="#A60321"/>
<path d="M6.48439 18.1239H5.90234V18.7059H6.48439V18.1239Z" fill="#A60321"/>
<path d="M6.48439 17.4763H5.90234V18.0583H6.48439V17.4763Z" fill="#A60321"/>
<path d="M7.13087 17.4763H6.54883V18.0583H7.13087V17.4763Z" fill="#A60321"/>
<path d="M7.77638 17.4763H7.19434V18.0583H7.77638V17.4763Z" fill="#A60321"/>
<path d="M8.42482 17.4763H7.84277V18.0583H8.42482V17.4763Z" fill="#A60321"/>
<path d="M6.48439 16.8286H5.90234V17.4106H6.48439V16.8286Z" fill="#A60321"/>
<path d="M7.13087 16.8286H6.54883V17.4106H7.13087V16.8286Z" fill="#A60321"/>
<path d="M7.77638 16.8286H7.19434V17.4106H7.77638V16.8286Z" fill="#A60321"/>
<path d="M8.42482 16.8286H7.84277V17.4106H8.42482V16.8286Z" fill="#A60321"/>
<path d="M6.48439 16.1821H5.90234V16.7641H6.48439V16.1821Z" fill="#A60321"/>
<path d="M7.13087 16.1821H6.54883V16.7641H7.13087V16.1821Z" fill="#A60321"/>
<path d="M7.77638 16.1821H7.19434V16.7641H7.77638V16.1821Z" fill="#A60321"/>
<path d="M8.42482 16.1821H7.84277V16.7641H8.42482V16.1821Z" fill="#A60321"/>
<path d="M6.48439 14.8868H5.90234V15.4689H6.48439V14.8868Z" fill="#A60321"/>
<path d="M5.83497 14.8868H5.25293V15.4689H5.83497V14.8868Z" fill="#A60321"/>
<path d="M7.13087 14.8868H6.54883V15.4689H7.13087V14.8868Z" fill="#A60321"/>
<path d="M7.77638 14.8868H7.19434V15.4689H7.77638V14.8868Z" fill="#A60321"/>
<path d="M8.42482 14.8868H7.84277V15.4689H8.42482V14.8868Z" fill="#A60321"/>
<path d="M6.48439 15.5344H5.90234V16.1164H6.48439V15.5344Z" fill="#A60321"/>
<path d="M7.13087 15.5344H6.54883V16.1164H7.13087V15.5344Z" fill="#A60321"/>
<path d="M7.77638 15.5344H7.19434V16.1164H7.77638V15.5344Z" fill="#A60321"/>
<path d="M8.42482 15.5344H7.84277V16.1164H8.42482V15.5344Z" fill="#A60321"/>
<path d="M6.48439 14.2402H5.90234V14.8222H6.48439V14.2402Z" fill="#A60321"/>
<path d="M7.13087 14.2402H6.54883V14.8222H7.13087V14.2402Z" fill="#A60321"/>
<path d="M7.77638 14.2402H7.19434V14.8222H7.77638V14.2402Z" fill="#A60321"/>
<path d="M8.42482 14.2402H7.84277V14.8222H8.42482V14.2402Z" fill="#A60321"/>
<path d="M6.48439 13.5927H5.90234V14.1747H6.48439V13.5927Z" fill="#A60321"/>
<path d="M7.13087 13.5927H6.54883V14.1747H7.13087V13.5927Z" fill="#A60321"/>
<path d="M7.77638 13.5927H7.19434V14.1747H7.77638V13.5927Z" fill="#A60321"/>
<path d="M8.42482 13.5927H7.84277V14.1747H8.42482V13.5927Z" fill="#A60321"/>
<path d="M6.48439 12.946H5.90234V13.5281H6.48439V12.946Z" fill="#A60321"/>
<path d="M7.13087 12.946H6.54883V13.5281H7.13087V12.946Z" fill="#A60321"/>
<path d="M7.77638 12.946H7.19434V13.5281H7.77638V12.946Z" fill="#A60321"/>
<path d="M8.42482 12.946H7.84277V13.5281H8.42482V12.946Z" fill="#A60321"/>
<path d="M6.48439 12.2985H5.90234V12.8805H6.48439V12.2985Z" fill="#A60321"/>
<path d="M7.13087 12.2985H6.54883V12.8805H7.13087V12.2985Z" fill="#A60321"/>
<path d="M7.77638 12.2985H7.19434V12.8805H7.77638V12.2985Z" fill="#A60321"/>
<path d="M8.42482 12.2985H7.84277V12.8805H8.42482V12.2985Z" fill="#A60321"/>
<path d="M3.89259 12.2985H3.31055V12.8805H3.89259V12.2985Z" fill="#A60321"/>
<path d="M4.54298 12.2985H3.96094V12.8805H4.54298V12.2985Z" fill="#A60321"/>
<path d="M5.18947 12.2985H4.60742V12.8805H5.18947V12.2985Z" fill="#A60321"/>
<path d="M5.83497 12.2985H5.25293V12.8805H5.83497V12.2985Z" fill="#A60321"/>
<path d="M3.89259 12.946H3.31055V13.5281H3.89259V12.946Z" fill="#A60321"/>
<path d="M4.54298 12.946H3.96094V13.5281H4.54298V12.946Z" fill="#A60321"/>
<path d="M5.18947 12.946H4.60742V13.5281H5.18947V12.946Z" fill="#A60321"/>
<path d="M5.83497 12.946H5.25293V13.5281H5.83497V12.946Z" fill="#A60321"/>
<path d="M3.89259 14.2402H3.31055V14.8222H3.89259V14.2402Z" fill="#A60321"/>
<path d="M4.54298 15.4698H3.96094V16.0519H4.54298V15.4698Z" fill="black"/>
<path d="M5.18947 16.1176H4.60742V16.6996H5.18947V16.1176Z" fill="black"/>
<path d="M4.54298 16.1176H3.96094V16.6996H4.54298V16.1176Z" fill="black"/>
<path d="M3.89259 16.764H3.31055V17.346H3.89259V16.764Z" fill="black"/>
<path d="M5.18947 15.4698H4.60742V16.0519H5.18947V15.4698Z" fill="black"/>
<path d="M3.24708 12.2985H2.66504V12.8805H3.24708V12.2985Z" fill="#A60321"/>
<path d="M3.24708 12.946H2.66504V13.5281H3.24708V12.946Z" fill="#A60321"/>
<path d="M3.24708 13.5927H2.66504V14.1747H3.24708V13.5927Z" fill="#A60321"/>
<path d="M3.24708 14.2402H2.66504V14.8222H3.24708V14.2402Z" fill="#A60321"/>
<path d="M2.59962 14.2402H2.01758V14.8222H2.59962V14.2402Z" fill="#A60321"/>
<path d="M1.95216 14.2402H1.37012V14.8222H1.95216V14.2402Z" fill="#A60321"/>
<path d="M2.59962 13.5927H2.01758V14.1747H2.59962V13.5927Z" fill="#A60321"/>
<path d="M4.54298 14.2402H3.96094V14.8222H4.54298V14.2402Z" fill="#A60321"/>
<path d="M5.18947 14.2402H4.60742V14.8222H5.18947V14.2402Z" fill="#A60321"/>
<path d="M5.83497 14.2402H5.25293V14.8222H5.83497V14.2402Z" fill="#A60321"/>
<path d="M3.89259 13.5927H3.31055V14.1747H3.89259V13.5927Z" fill="#A60321"/>
<path d="M4.54298 13.5927H3.96094V14.1747H4.54298V13.5927Z" fill="#A60321"/>
<path d="M5.18947 13.5927H4.60742V14.1747H5.18947V13.5927Z" fill="#A60321"/>
<path d="M5.83497 13.5927H5.25293V14.1747H5.83497V13.5927Z" fill="#A60321"/>
<path d="M7.13087 18.1239H6.54883V18.7059H7.13087V18.1239Z" fill="#A60321"/>
<path d="M7.77638 18.1239H7.19434V18.7059H7.77638V18.1239Z" fill="#A60321"/>
<path d="M2.59962 12.946H2.01758V13.5281H2.59962V12.946Z" fill="#A60321"/>
<path d="M1.95216 13.5927H1.37012V14.1747H1.95216V13.5927Z" fill="#A60321"/>
<path d="M1.30568 14.2402H0.723633V14.8222H1.30568V14.2402Z" fill="#A60321"/>
<path d="M7.13087 18.7704H6.54883V19.3524H7.13087V18.7704Z" fill="#A60321"/>
<path d="M6.48439 19.4181H5.90234V20.0001H6.48439V19.4181Z" fill="#A60321"/>
<path d="M10.3643 16.1821H9.78223V16.7641H10.3643V16.1821Z" fill="#FF0000"/>
<path d="M10.3643 15.5344H9.78223V16.1164H10.3643V15.5344Z" fill="#FF0000"/>
<path d="M11.0117 16.1821H10.4297V16.7641H11.0117V16.1821Z" fill="#FF0000"/>
<path d="M11.0137 15.5344H10.4316V16.1164H11.0137V15.5344Z" fill="#FF0000"/>
<path d="M11.0117 14.2402H10.4297V14.8222H11.0117V14.2402Z" fill="#FF0000"/>
<path d="M10.3643 14.2402H9.78223V14.8222H10.3643V14.2402Z" fill="black"/>
<path d="M10.3643 16.8297H9.78223V17.4117H10.3643V16.8297Z" fill="black"/>
<path d="M10.3643 18.1239H9.78223V18.7059H10.3643V18.1239Z" fill="black"/>
<path d="M11.0117 18.1228H10.4297V18.7048H11.0117V18.1228Z" fill="black"/>
<path d="M10.3643 12.946H9.78223V13.5281H10.3643V12.946Z" fill="black"/>
<path d="M11.0117 12.9451H10.4297V13.5271H11.0117V12.9451Z" fill="black"/>
<path d="M11.0117 12.2985H10.4297V12.8805H11.0117V12.2985Z" fill="black"/>
<path d="M11.0117 18.7704H10.4297V19.3524H11.0117V18.7704Z" fill="black"/>
<path d="M11.0117 16.8286H10.4297V17.4106H11.0117V16.8286Z" fill="#FF0000"/>
<path d="M10.3643 14.8879H9.78223V15.47H10.3643V14.8879Z" fill="#FF0000"/>
<path d="M11.0117 14.8868H10.4297V15.4689H11.0117V14.8868Z" fill="#FF0000"/>
<path d="M9.71876 16.1821H9.13672V16.7641H9.71876V16.1821Z" fill="black"/>
<path d="M9.71876 15.5355H9.13672V16.1175H9.71876V15.5355Z" fill="black"/>
<path d="M9.71876 14.2402H9.13672V14.8222H9.71876V14.2402Z" fill="black"/>
<path d="M9.71876 16.8297H9.13672V17.4117H9.71876V16.8297Z" fill="black"/>
<path d="M9.71876 14.8879H9.13672V15.47H9.71876V14.8879Z" fill="black"/>
<path d="M9.07033 16.1821H8.48828V16.7641H9.07033V16.1821Z" fill="black"/>
<path d="M9.07228 15.5344H8.49023V16.1164H9.07228V15.5344Z" fill="black"/>
<path d="M9.07033 14.2402H8.48828V14.8222H9.07033V14.2402Z" fill="black"/>
<path d="M9.07033 16.8286H8.48828V17.4106H9.07033V16.8286Z" fill="black"/>
<path d="M9.07033 14.8868H8.48828V15.4689H9.07033V14.8868Z" fill="black"/>
<path d="M10.3643 17.4763H9.78223V18.0583H10.3643V17.4763Z" fill="black"/>
<path d="M11.0137 17.4763H10.4316V18.0583H11.0137V17.4763Z" fill="black"/>
<path d="M9.71876 17.4773H9.13672V18.0593H9.71876V17.4773Z" fill="black"/>
<path d="M10.3643 13.5927H9.78223V14.1747H10.3643V13.5927Z" fill="black"/>
<path d="M11.0137 13.5927H10.4316V14.1747H11.0137V13.5927Z" fill="black"/>
<path d="M9.71876 13.5938H9.13672V14.1758H9.71876V13.5938Z" fill="black"/>
</svg>
